<?xml version="1.0" encoding="UTF-8"?>
<svg id="b" data-name="Warstwa 1" xmlns="http://www.w3.org/2000/svg" viewBox="0 0 1080 1155.18">
  <path d="m579.56,416.21s-5.72-2.04-16.17-2.93-.39,23.61-.39,23.61c0,0,18.22-14.75,16.56-20.68Z" fill="#960127"/>
  <path d="m501.75,416.21s5.72-2.04,16.17-2.93.39,23.61.39,23.61c0,0-18.22-14.75-16.56-20.68Z" fill="#960127"/>
  <polygon points="651.7 723.33 428.3 723.33 390.37 1129.91 689.63 1129.91 651.7 723.33" fill="#c70132"/>
  <rect x="352.52" y="1129.91" width="374.96" height="25.27" rx="12.63" ry="12.63" fill="#1d1730"/>
  <polygon points="571.9 468.85 510.07 468.85 515.07 392.84 566.9 392.84 571.9 468.85" fill="#e39466"/>
  <path d="m620.93,450.16h-161.85l-54.27,384.78s58.72,10,135.19,10c68.53,0,135.19-10,135.19-10l-54.27-384.78Z" fill="#e0e0e0"/>
  <path d="m400.75,746.05s-11.56,48,23.11,81.78c9.78-65.78,6.22-85.33,6.22-85.33l-29.33,3.56Z" fill="#f9be9c"/>
  <path d="m454.78,764.72c-.28,8.17-7.7,14.21-15.75,12.83-26.97-4.61-80.61-14.98-83.88-24.93-7.01-21.3,53.78-268.54,81.33-284.73,27.56-16.19,28.89-11.62,28.89-11.62l-10.59,308.44Z" fill="#f0f0f0"/>
  <path d="m498.3,426.71l38.22,24.04-3.56,217.33s-69.33-.89-129.33-38.22c-4-6.67,2.67-21.78,2.67-21.78,0,0-25.78-6.67-49.78-36,26.22-40.44,60-95.57,74.67-107.78,14.67-12.22,67.11-37.59,67.11-37.59Z" fill="#c70132"/>
  <path d="m495.98,427.85l4.06-10.49c.45-1.15,1.89-1.53,2.84-.73,3.67,3.11,12.51,9.88,25.1,15.02,1.82.74,3.25,2.22,3.9,4.08,1.98,5.58,4.65,15.02,4.65,15.02,0,0-27.6-9.63-40.54-22.91Z" fill="#de0139"/>
  <path d="m411.19,597.39s-32.33-17.23-47.94-35.73c2.13-3.33,3.63-5.66,3.63-5.66,0,0,26.42,24.5,47.92,35.17-1.61,3.11-3.61,6.22-3.61,6.22Z" fill="#e6e63c"/>
  <path d="m533.24,651.61s-74.37-7.51-127.98-40.87c1.05-2.66,3.16-7.02,3.16-7.02,0,0,53.22,32.24,124.96,39.89l-.13,8Z" fill="#e6e63c"/>
  <path d="m680.56,746.05s11.56,48-23.11,81.78c-9.78-65.78-6.22-85.33-6.22-85.33l29.33,3.56Z" fill="#f9be9c"/>
  <path d="m626.53,764.72c.28,8.17,7.7,14.21,15.75,12.83,26.97-4.61,80.61-14.98,83.88-24.93,7.01-21.3-53.78-268.54-81.33-284.73-27.56-16.19-28.89-11.62-28.89-11.62l10.59,308.44Z" fill="#f0f0f0"/>
  <path d="m583.01,426.71l-38.22,24.04,3.56,217.33s69.33-.89,129.33-38.22c4-6.67-2.67-21.78-2.67-21.78,0,0,25.78-6.67,49.78-36-26.22-40.44-60-95.57-74.67-107.78-14.67-12.22-67.11-37.59-67.11-37.59Z" fill="#c70132"/>
  <path d="m585.33,427.85l-4.06-10.49c-.45-1.15-1.89-1.53-2.84-.73-3.67,3.11-12.51,9.88-25.1,15.02-1.82.74-3.25,2.22-3.9,4.08-1.98,5.58-4.65,15.02-4.65,15.02,0,0,27.6-9.63,40.54-22.91Z" fill="#de0139"/>
  <path d="m670.12,597.39s32.33-17.23,47.94-35.73c-2.13-3.33-3.63-5.66-3.63-5.66,0,0-26.42,24.5-47.92,35.17,1.61,3.11,3.61,6.22,3.61,6.22Z" fill="#e6e63c"/>
  <path d="m548.07,651.61s74.37-7.51,127.98-40.87c-1.05-2.66-3.16-7.02-3.16-7.02,0,0-53.22,32.24-124.96,39.89l.13,8Z" fill="#e6e63c"/>
  <g>
    <g>
      <ellipse cx="589.22" cy="362.86" rx="16.35" ry="13.62" transform="translate(25.93 764.8) rotate(-67.14)" fill="#e39466"/>
      <ellipse cx="492.75" cy="362.86" rx="13.62" ry="16.35" transform="translate(-102.27 219.96) rotate(-22.86)" fill="#e39466"/>
    </g>
    <path d="m592.61,349.53c0,42.63-23.1,77.18-51.6,77.18s-51.6-34.56-51.6-77.18,23.1-60.72,51.6-60.72,51.6,18.1,51.6,60.72Z" fill="#f9be9c"/>
    <rect x="507.42" y="339.88" width="21.13" height="5.26" rx="2.63" ry="2.63" fill="#1a1e21"/>
    <circle cx="519.47" cy="354.16" r="3.52" fill="#1a1e21"/>
    <path d="m523.49,386.28c3.84,1.9,10.07,3.14,17.13,3.14s13.28-1.24,17.13-3.14" fill="none" stroke="#e39466" stroke-miterlimit="10" stroke-width="2.67"/>
    <path d="m487.96,299.7s-6.67,3.23-6.67,11.34,8.12,43.6,8.12,43.6c0,0,12.01-23.02,14.57-42.82,2.56-19.8-16.02-12.12-16.02-12.12Z" fill="#1a1e21"/>
    <rect x="553.42" y="339.88" width="21.13" height="5.26" rx="2.63" ry="2.63" transform="translate(1127.96 685.03) rotate(180)" fill="#1a1e21"/>
    <circle cx="562.5" cy="354.16" r="3.52" fill="#1a1e21"/>
    <path d="m594.01,299.7s6.67,3.23,6.67,11.34-8.12,43.6-8.12,43.6c0,0-12.01-23.02-14.57-42.82-2.56-19.8,16.02-12.12,16.02-12.12Z" fill="#1a1e21"/>
    <path d="m544.57,378.74s-9.12-.89-9.12-3.48,4.56-12.39,4.56-12.39" fill="none" stroke="#e39466" stroke-miterlimit="10" stroke-width="2.67"/>
    <g>
      <g>
        <circle cx="509.94" cy="294.72" r="19.18" fill="#1a1e21"/>
        <circle cx="572.07" cy="294.72" r="19.18" fill="#1a1e21"/>
      </g>
      <circle cx="541.01" cy="291.13" r="22.77" fill="#1a1e21"/>
    </g>
  </g>
</svg>