<?xml version="1.0" encoding="UTF-8"?>
<svg id="b" data-name="Warstwa 1" xmlns="http://www.w3.org/2000/svg" viewBox="0 0 1080 1155.18">
  <path d="m579.56,416.21s-5.72-2.04-16.17-2.93c-10.44-.89-.39,23.61-.39,23.61,0,0,18.22-14.75,16.56-20.68Z" fill="#999"/>
  <path d="m501.75,416.21s5.72-2.04,16.17-2.93c10.44-.89.39,23.61.39,23.61,0,0-18.22-14.75-16.56-20.68Z" fill="#999"/>
  <polygon points="571.9 468.85 510.07 468.85 515.07 392.84 566.9 392.84 571.9 468.85" fill="#e39466"/>
  <polygon points="634.23 450.16 445.77 450.16 383.27 1129.91 696.73 1129.91 634.23 450.16" fill="#e0e0e0"/>
  <rect x="522.48" y="433.48" width="37" height="17.82" fill="#fff"/>
  <path d="m385.75,746.05s-11.56,48,23.11,81.78c9.78-65.78,6.22-85.33,6.22-85.33l-29.33,3.56Z" fill="#f9be9c"/>
  <rect x="431.64" y="669.4" width="216.72" height="50.54" fill="#ccc"/>
  <path d="m439.78,764.72c-.28,8.17-7.7,14.21-15.75,12.83-26.97-4.61-65.61-14.98-68.88-24.93-7.01-21.3,38.78-268.54,66.33-284.73,27.56-16.19,28.89-11.62,28.89-11.62l-10.59,308.44Z" fill="#f0f0f0"/>
  <path d="m498.3,426.71l33.22,20.93-18.56,189.2s-49.33-.77-109.33-33.27c-4-5.8,2.67-18.96,2.67-18.96,0,0-25.78-5.8-49.78-31.34,26.22-35.21,60-83.2,74.67-93.83,14.67-10.64,67.11-32.72,67.11-32.72Z" fill="#f0f0f0"/>
  <path d="m495.98,427.85l4.06-10.49c.45-1.15,1.89-1.53,2.84-.73,3.67,3.11,7.51,9.88,20.1,15.02,1.82.74,3.25,2.22,3.9,4.08,1.98,5.58,4.65,15.02,4.65,15.02,0,0-22.6-9.63-35.54-22.91Z" fill="#e0e0e0"/>
  <path d="m695.56,746.05s11.56,48-23.11,81.78c-9.78-65.78-6.22-85.33-6.22-85.33l29.33,3.56Z" fill="#f9be9c"/>
  <path d="m641.53,764.72c.28,8.17,7.7,14.21,15.75,12.83,26.97-4.61,65.61-14.98,68.88-24.93,7.01-21.3-38.78-268.54-66.33-284.73-27.56-16.19-28.89-11.62-28.89-11.62l10.59,308.44Z" fill="#f0f0f0"/>
  <path d="m583.01,426.71l-33.22,20.93,18.56,189.2s49.33-.77,109.33-33.27c4-5.8-2.67-18.96-2.67-18.96,0,0,25.78-5.8,49.78-31.34-26.22-35.21-60-83.2-74.67-93.83-14.67-10.64-67.11-32.72-67.11-32.72Z" fill="#f0f0f0"/>
  <path d="m585.33,427.85l-4.06-10.49c-.45-1.15-1.89-1.53-2.84-.73-3.67,3.11-7.51,9.88-20.1,15.02-1.82.74-3.25,2.22-3.9,4.08-1.98,5.58-4.65,15.02-4.65,15.02,0,0,22.6-9.63,35.54-22.91Z" fill="#e0e0e0"/>
  <g>
    <rect x="540.01" y="504.89" width="2.34" height="9.11" fill="#9e9e9e"/>
    <path d="m541.01,507.16s-44.56-51.91-45.79-78.73" fill="none" stroke="#9e9e9e" stroke-miterlimit="10" stroke-width="2"/>
    <path d="m541.01,507.16s44.56-51.91,45.79-78.73" fill="none" stroke="#9e9e9e" stroke-miterlimit="10" stroke-width="2"/>
    <polygon points="563.26 529.27 547.62 528.04 546.34 511.77 536.02 511.77 534.74 528.04 519.1 529.27 519.1 539.59 534.61 540.81 536.02 570.07 546.34 570.07 547.74 540.81 563.26 539.59 563.26 529.27" fill="#9e9e9e"/>
  </g>
  <rect x="352.52" y="1129.91" width="374.96" height="25.27" rx="12.63" ry="12.63" fill="#1d1730"/>
  <rect x="570.24" y="664.74" width="56.94" height="323.78" fill="#ccc"/>
  <g>
    <rect x="570.24" y="988.52" width="2.31" height="31.33" fill="#e6e63c"/>
    <rect x="574.44" y="988.52" width="2.31" height="31.33" fill="#e6e63c"/>
    <rect x="578.64" y="988.52" width="2.31" height="31.33" fill="#e6e63c"/>
    <rect x="582.85" y="988.52" width="2.31" height="31.33" fill="#e6e63c"/>
    <rect x="587.05" y="988.52" width="2.31" height="31.33" fill="#e6e63c"/>
    <rect x="591.25" y="988.52" width="2.31" height="31.33" fill="#e6e63c"/>
    <rect x="595.45" y="988.52" width="2.31" height="31.33" fill="#e6e63c"/>
    <rect x="599.65" y="988.52" width="2.31" height="31.33" fill="#e6e63c"/>
    <rect x="603.86" y="988.52" width="2.31" height="31.33" fill="#e6e63c"/>
    <rect x="608.06" y="988.52" width="2.31" height="31.33" fill="#e6e63c"/>
    <rect x="612.26" y="988.52" width="2.31" height="31.33" fill="#e6e63c"/>
    <rect x="616.46" y="988.52" width="2.31" height="31.33" fill="#e6e63c"/>
    <rect x="620.66" y="988.52" width="2.31" height="31.33" fill="#e6e63c"/>
    <rect x="624.87" y="988.52" width="2.31" height="31.33" fill="#e6e63c"/>
    <rect x="570.24" y="988.52" width="56.94" height="4.64" fill="#e6e63c"/>
  </g>
  <g>
    <g>
      <ellipse cx="588.23" cy="362.86" rx="16.35" ry="13.62" transform="translate(25.33 763.89) rotate(-67.14)" fill="#e39466"/>
      <ellipse cx="491.77" cy="362.86" rx="13.62" ry="16.35" transform="translate(-102.35 219.58) rotate(-22.86)" fill="#e39466"/>
    </g>
    <path d="m591.63,349.53c0,42.63-23.1,77.18-51.6,77.18s-51.6-34.56-51.6-77.18,23.1-60.72,51.6-60.72,51.6,18.1,51.6,60.72Z" fill="#f9be9c"/>
    <path d="m584.53,403.01c0,25.1-19.92,56.94-44.5,56.94s-44.5-31.84-44.5-56.94,19.92-24.26,44.5-24.26,44.5-.84,44.5,24.26Z" fill="#f2f2f2"/>
    <rect x="506.44" y="339.88" width="21.13" height="5.26" rx="2.63" ry="2.63" fill="#1a1e21"/>
    <circle cx="518.49" cy="354.16" r="3.52" fill="#1a1e21"/>
    <path d="m522.51,386.28c3.84,1.9,10.07,3.14,17.13,3.14s13.28-1.24,17.13-3.14" fill="none" stroke="#e39466" stroke-miterlimit="10" stroke-width="2.67"/>
    <rect x="552.43" y="339.88" width="21.13" height="5.26" rx="2.63" ry="2.63" transform="translate(1125.99 685.03) rotate(-180)" fill="#1a1e21"/>
    <circle cx="561.51" cy="354.16" r="3.52" fill="#1a1e21"/>
    <path d="m543.58,378.74s-9.12-.89-9.12-3.48,4.56-12.39,4.56-12.39" fill="none" stroke="#e39466" stroke-miterlimit="10" stroke-width="2.67"/>
    <g>
      <path d="m549.42,353.03c-2.11-2.12-5.53-3.5-9.39-3.5s-7.29,1.38-9.39,3.5" fill="none" stroke="#9e7f00" stroke-miterlimit="10" stroke-width="1.41"/>
      <circle cx="518.57" cy="357.89" r="12.91" fill="none" stroke="#9e7f00" stroke-miterlimit="10" stroke-width="1.41"/>
      <circle cx="561.51" cy="357.89" r="12.91" fill="none" stroke="#9e7f00" stroke-miterlimit="10" stroke-width="1.41"/>
      <line x1="591.63" y1="347" x2="573.14" y2="352.27" fill="none" stroke="#9e7f00" stroke-miterlimit="10" stroke-width="1.41"/>
      <line x1="488.42" y1="347" x2="506.91" y2="352.27" fill="none" stroke="#9e7f00" stroke-miterlimit="10" stroke-width="1.41"/>
    </g>
  </g>
  <path d="m539.97,300.29h.06c10.54,0,20.61-1.03,29.81-2.88-7.27-8.3-17.93-13.56-29.83-13.56h-.01c-11.9,0-22.56,5.26-29.83,13.56,9.21,1.85,19.27,2.88,29.81,2.88Z" fill="#f0f0f0"/>
</svg>