<?xml version="1.0" encoding="UTF-8"?>
<svg id="b" data-name="Warstwa 1" xmlns="http://www.w3.org/2000/svg" viewBox="0 0 1080 1155.18">
  <path d="m579.26,416.21s-5.72-2.04-16.17-2.93c-10.44-.89-.39,23.61-.39,23.61,0,0,18.22-14.75,16.56-20.68Z" fill="#a3a3a3"/>
  <path d="m500.74,416.21s5.72-2.04,16.17-2.93c10.44-.89.39,23.61.39,23.61,0,0-18.22-14.75-16.56-20.68Z" fill="#a3a3a3"/>
  <rect x="351.51" y="1129.91" width="374.96" height="25.27" rx="12.06" ry="12.06" fill="#1d1730"/>
  <polygon points="570.89 468.85 509.06 468.85 514.06 392.84 565.89 392.84 570.89 468.85" fill="#e39466"/>
  <polygon points="540 1129.91 540 450.16 458.06 450.16 384.47 1129.91 540 1129.91" fill="#e0e0e0"/>
  <path d="m494.97,427.85l4.5-10.49c.5-1.15,2.1-1.53,3.15-.73,4.08,3.11,13.89,9.88,27.88,15.02,2.02.74,3.61,2.22,4.33,4.08,2.2,5.58,5.16,15.02,5.16,15.02,0,0-21.48,1.86-45.03-22.91Z" fill="#e0e0e0"/>
  <path d="m494.97,427.85s-46.79,15.09-67.06,27.83c-17.58,11.05,33.24,93.93,33.24,93.93l74.36-98.85-40.54-22.91Z" fill="#e0e0e0"/>
  <path d="m421.26,790.04l21.14-.55c8.03-.21,14.45-6.74,14.52-14.77l-1.26-234.4-4.49-31.59-15.94,152.23-13.98,129.09Z" fill="#cfcfcf"/>
  <polygon points="540 1129.91 540 450.16 621.94 450.16 695.53 1129.91 540 1129.91" fill="#e0e0e0"/>
  <path d="m585.03,427.85l-4.5-10.49c-.5-1.15-2.1-1.53-3.15-.73-4.08,3.11-13.89,9.88-27.88,15.02-2.02.74-3.61,2.22-4.33,4.08-2.2,5.58-5.16,15.02-5.16,15.02,0,0,21.48,1.86,45.03-22.91Z" fill="#e0e0e0"/>
  <path d="m585.03,427.85s46.79,15.09,67.06,27.83c17.58,11.05-33.24,93.93-33.24,93.93l-74.36-98.85,40.54-22.91Z" fill="#e0e0e0"/>
  <path d="m658.74,790.04l-21.14-.55c-8.03-.21-14.45-6.74-14.52-14.77l1.26-234.4,4.49-31.59,15.94,152.23,13.98,129.09Z" fill="#cfcfcf"/>
  <rect x="447.08" y="738.94" width="77.33" height="353.78" fill="#c70132"/>
  <g>
    <rect x="482.91" y="785.28" width="5.67" height="177.67" fill="#e6e63c"/>
    <rect x="482.91" y="812.44" width="5.67" height="57" transform="translate(1326.69 355.2) rotate(90)" fill="#e6e63c"/>
  </g>
  <g>
    <rect x="424.22" y="735.28" width="231.57" height="7.22" rx="3.61" ry="3.61" fill="#bababa"/>
    <rect x="564.7" y="777.54" width="87.08" height="7.22" rx="3.61" ry="3.61" transform="translate(1389.39 172.91) rotate(90)" fill="#bababa"/>
    <rect x="584.85" y="765.5" width="63" height="7.22" rx="3.61" ry="3.61" transform="translate(1344.02 104.34) rotate(86.29)" fill="#bababa"/>
    <circle cx="611.1" cy="738.89" r="9.22" fill="#bababa"/>
  </g>
  <path d="m392.18,746.05s-11.56,48,23.11,81.78c9.78-65.78,6.22-85.33,6.22-85.33l-29.33,3.56Z" fill="#f9be9c"/>
  <path d="m446.22,764.72c-.28,8.17-7.7,14.21-15.75,12.83-26.97-4.61-80.61-14.98-83.88-24.93-7.01-21.3,53.78-280.75,81.33-296.94,27.56-16.19,28.89,57.77,28.89,57.77l-10.59,251.27Z" fill="#f0f0f0"/>
  <path d="m687.82,746.05s11.56,48-23.11,81.78c-9.78-65.78-6.22-85.33-6.22-85.33l29.33,3.56Z" fill="#f9be9c"/>
  <path d="m633.78,764.72c.28,8.17,7.7,14.21,15.75,12.83,26.97-4.61,80.61-14.98,83.88-24.93,7.01-21.3-53.78-280.75-81.33-296.94-27.56-16.19-28.89,57.77-28.89,57.77l10.59,251.27Z" fill="#f0f0f0"/>
  <g>
    <g>
      <ellipse cx="588.21" cy="362.86" rx="16.35" ry="13.62" transform="translate(25.31 763.87) rotate(-67.14)" fill="#e39466"/>
      <ellipse cx="491.74" cy="362.86" rx="13.62" ry="16.35" transform="translate(-102.35 219.57) rotate(-22.86)" fill="#e39466"/>
    </g>
    <path d="m591.6,349.53c0,42.63-23.1,77.18-51.6,77.18s-51.6-34.56-51.6-77.18,23.1-60.72,51.6-60.72,51.6,18.1,51.6,60.72Z" fill="#f9be9c"/>
    <path d="m571.07,399.87c0,14.83-13.91,26.85-31.07,26.85s-31.07-12.02-31.07-26.85,13.91-21.12,31.07-21.12,31.07,6.29,31.07,21.12Z" fill="#ebac8d"/>
    <rect x="506.41" y="339.88" width="21.13" height="5.26" rx="2.63" ry="2.63" fill="#1a1e21"/>
    <circle cx="518.46" cy="354.16" r="3.52" fill="#1a1e21"/>
    <path d="m522.49,386.28c3.84,1.9,10.07,3.14,17.13,3.14s13.28-1.24,17.13-3.14" fill="none" stroke="#e39466" stroke-miterlimit="10" stroke-width="2.67"/>
    <path d="m486.95,299.7s-6.67,3.23-6.67,11.34,8.12,43.6,8.12,43.6c0,0,12.01-23.02,14.57-42.82,2.56-19.8-16.02-12.12-16.02-12.12Z" fill="#1a1e21"/>
    <rect x="552.41" y="339.88" width="21.13" height="5.26" rx="2.63" ry="2.63" transform="translate(1125.95 685.03) rotate(-180)" fill="#1a1e21"/>
    <circle cx="561.49" cy="354.16" r="3.52" fill="#1a1e21"/>
    <path d="m593,299.7s6.67,3.23,6.67,11.34-8.12,43.6-8.12,43.6c0,0-12.01-23.02-14.57-42.82-2.56-19.8,16.02-12.12,16.02-12.12Z" fill="#1a1e21"/>
    <path d="m543.56,378.74s-9.12-.89-9.12-3.48,4.56-12.39,4.56-12.39" fill="none" stroke="#e39466" stroke-miterlimit="10" stroke-width="2.67"/>
    <g>
      <g>
        <circle cx="508.93" cy="294.72" r="19.18" fill="#1a1e21"/>
        <circle cx="571.07" cy="294.72" r="19.18" fill="#1a1e21"/>
      </g>
      <circle cx="540" cy="291.13" r="22.77" fill="#1a1e21"/>
    </g>
  </g>
  <path d="m649.69,454.24s-16.98-9.06-31.42-14.71c-13.42-5.25-33.24-11.68-33.24-11.68l-137.57,307.43h76.96l125.28-281.04Z" fill="#c70132"/>
</svg>