<?xml version="1.0" encoding="UTF-8"?>
<svg id="b" data-name="Warstwa 1" xmlns="http://www.w3.org/2000/svg" viewBox="0 0 1080 1155.18">
  <path d="m485.84,409.44c5.61-6.11,46.33-11.06,46.33-11.06l-27.22,56.89s-27.51-36.69-19.11-45.83Z" fill="#5c4d29"/>
  <path d="m596.19,409.44c-5.61-6.11-46.33-11.06-46.33-11.06l27.22,56.89s27.51-36.69,19.11-45.83Z" fill="#5c4d29"/>
  <polygon points="621.53 528.28 541.01 528.28 460.49 528.28 388.17 1129.79 541.01 1129.79 693.85 1129.79 621.53 528.28" fill="#a80029"/>
  <path d="m580.27,428.12s-5.72-2.04-16.17-2.93-.39,23.61-.39,23.61c0,0,18.22-14.75,16.56-20.68Z" fill="#272322"/>
  <path d="m501.75,428.12s5.72-2.04,16.17-2.93.39,23.61.39,23.61c0,0-18.22-14.75-16.56-20.68Z" fill="#272322"/>
  <rect x="352.52" y="1129.91" width="374.96" height="25.27" rx="12.06" ry="12.06" fill="#1d1730"/>
  <polygon points="571.9 468.85 510.07 468.85 515.07 392.84 566.9 392.84 571.9 468.85" fill="#e39466"/>
  <path d="m495.98,427.85s-46.79,15.09-67.06,27.83c-17.58,11.05,33.24,93.93,33.24,93.93l74.36-98.85-40.54-22.91Z" fill="#dbc27f"/>
  <path d="m422.27,790.04l21.14-.55c8.03-.21,14.45-6.74,14.52-14.77l-1.26-234.4-4.49-31.59-15.94,152.23-13.98,129.09Z" fill="#cfcfcf"/>
  <polygon points="622.94 450.16 541.01 450.16 459.07 450.16 385.47 1062.28 541.01 1062.28 696.54 1062.28 622.94 450.16" fill="#dbc27f"/>
  <path d="m586.04,427.85s46.79,15.09,67.06,27.83c17.58,11.05-33.24,93.93-33.24,93.93l-74.36-98.85,40.54-22.91Z" fill="#dbc27f"/>
  <path d="m624.93,810.71c.28,8.17,7.7,14.21,15.75,12.83,26.97-4.61,67.98-40.15,77.75-57.58,17.8-31.74-37.06-294.09-64.62-310.28-27.56-16.19-28.89,57.77-28.89,57.77v297.26Z" fill="#dbc27f"/>
  <path d="m457.81,810.71c-.28,8.17-7.7,14.21-15.75,12.83-26.97-4.61-67.98-40.15-77.75-57.58-17.8-31.74,37.06-294.09,64.62-310.28,27.56-16.19,28.89,57.77,28.89,57.77v297.26Z" fill="#dbc27f"/>
  <path d="m601.14,667.46c0,70.82,95.4,394.82,95.4,394.82l-29.98-249.35s26.67-70.72,4.52-164.81c-9.89-41.99-69.94,19.35-69.94,19.35Z" fill="#f0f0f0"/>
  <path d="m480.88,667.46c0,70.82-95.4,394.82-95.4,394.82l29.98-249.35s-26.67-70.72-4.52-164.81c9.89-41.99,69.94,19.35,69.94,19.35Z" fill="#f0f0f0"/>
  <path d="m481.59,667.46c0,38.75-16.01,85.08-35.76,85.08s-35.76-46.33-35.76-85.08,16.01-55.24,35.76-55.24,35.76,16.49,35.76,55.24Z" fill="#a80029"/>
  <path d="m601.14,667.46c0,38.75,16.01,85.08,35.76,85.08s35.76-46.33,35.76-85.08-16.01-55.24-35.76-55.24-35.76,16.49-35.76,55.24Z" fill="#a80029"/>
  <path d="m578.43,427.55c-7.52,7.69-21.47,12.86-37.45,12.86s-29.92-5.17-37.45-12.86l-17.28,3.3,17.72,29.06s27.76,16.59,37.01,16.59,37.06-16.59,37.06-16.59l17.67-29.06-17.28-3.3Z" fill="#f0f0f0"/>
  <path d="m541.01,465.83c-15.02,0-28.76-2.23-39.37-5.92v602.37h78.74V459.91c-10.61,3.69-24.35,5.92-39.37,5.92Z" fill="#c70132"/>
  <g>
    <rect x="536.91" y="516.64" width="6.51" height="48.62" fill="#e6e63c"/>
    <path d="m547.72,517.08c-.08-.02-.14-.02-.21-.02-1.33,0-2.61.32-3.72.89-1.53.75-2.79,1.98-3.6,3.48-.81-1.5-2.08-2.73-3.62-3.48-1.12-.57-2.38-.89-3.72-.89-.08,0-.14,0-.21.02,1.03-2.21,3-3.89,5.41-4.52.58-.83,1.32-1.55,2.15-2.12.83.57,1.55,1.29,2.13,2.12,2.41.61,4.38,2.3,5.41,4.52Z" fill="#e6e63c"/>
    <path d="m532.62,564.48c.08.02.14.02.21.02,1.33,0,2.61-.32,3.72-.89,1.53-.75,2.79-1.98,3.6-3.48.81,1.5,2.08,2.73,3.62,3.48,1.12.57,2.38.89,3.72.89.08,0,.14,0,.21-.02-1.03,2.21-3,3.89-5.41,4.52-.58.83-1.32,1.55-2.15,2.12-.83-.57-1.55-1.29-2.13-2.12-2.41-.61-4.38-2.3-5.41-4.52Z" fill="#e6e63c"/>
    <rect x="536.74" y="516.64" width="6.51" height="31.63" transform="translate(1072.46 -7.54) rotate(90)" fill="#e6e63c"/>
    <g>
      <path d="m555.14,540.01c.02-.08.02-.14.02-.21,0-1.33-.32-2.61-.89-3.72-.75-1.53-1.98-2.79-3.48-3.6,1.5-.81,2.73-2.08,3.48-3.62.57-1.12.89-2.38.89-3.72,0-.08,0-.14-.02-.21,2.21,1.03,3.89,3,4.52,5.41.83.58,1.55,1.32,2.12,2.15-.57.83-1.29,1.55-2.12,2.13-.61,2.41-2.3,4.38-4.52,5.41Z" fill="#e6e63c"/>
      <path d="m524.86,524.91c-.02.08-.02.14-.02.21,0,1.33.32,2.61.89,3.72.75,1.53,1.98,2.79,3.48,3.6-1.5.81-2.73,2.08-3.48,3.62-.57,1.12-.89,2.38-.89,3.72,0,.08,0,.14.02.21-2.21-1.03-3.89-3-4.52-5.41-.83-.58-1.55-1.32-2.12-2.15.57-.83,1.29-1.55,2.12-2.13.61-2.41,2.3-4.38,4.52-5.41Z" fill="#e6e63c"/>
    </g>
    <rect x="539" y="504.89" width="2.34" height="9.11" fill="#e6e63c"/>
    <path d="m540,507.16s-44.56-51.91-45.79-78.73" fill="none" stroke="#e6e63c" stroke-miterlimit="10" stroke-width="2"/>
    <path d="m540,507.16s44.56-51.91,45.79-78.73" fill="none" stroke="#e6e63c" stroke-miterlimit="10" stroke-width="2"/>
  </g>
  <g>
    <path d="m402.15,542.72l139,69.5v57.46l-81.48-23.29-59.21-101.86c-.64-1.11.55-2.38,1.69-1.8Z" fill="#bfa565"/>
    <path d="m541.15,594.51s-5.9-26.4-32.92-35.41c-27.02-9.01-68.02-11.18-86.34-18.32-2.8.62-17.14,3.23-17.14,3.23l136.4,68.2v-17.7Z" fill="#f0f0f0"/>
    <path d="m679.86,542.72l-139,69.5v57.46l81.48-23.29,59.21-101.86c.64-1.11-.55-2.38-1.69-1.8Z" fill="#5c4d29"/>
    <path d="m540.87,594.51s5.9-26.4,32.92-35.41c27.02-9.01,68.02-11.18,86.34-18.32,2.8.62,17.14,3.23,17.14,3.23l-136.4,68.2v-17.7Z" fill="#f0f0f0"/>
    <g>
      <path d="m608.07,614.5h39.93v10.51h-50.42v-.03c0-5.79,4.7-10.49,10.49-10.49Z" transform="translate(364.13 -219.92) rotate(28.02)" fill="#dea281"/>
      <path d="m595.4,621.52h48.31v10.51h-58.83c0-5.8,4.71-10.51,10.51-10.51Z" transform="translate(366.43 -215.11) rotate(28.02)" fill="#dea281"/>
      <path d="m595.11,631.59h43.55v10.51h-54.06c0-5.8,4.71-10.51,10.51-10.51Z" transform="translate(370.85 -212.67) rotate(28.02)" fill="#dea281"/>
      <path d="m599.86,642.85h33.47v10.51h-43.98c0-5.8,4.71-10.51,10.51-10.51Z" transform="translate(376.11 -211.22) rotate(28.02)" fill="#dea281"/>
      <path d="m641.64,605.22h0v55.02h-10.51v-44.5c0-5.8,4.71-10.51,10.51-10.51Z" transform="translate(401.62 -233.42) rotate(30)" fill="#dea281"/>
      <ellipse cx="636.38" cy="644.2" rx="20.5" ry="18.46" transform="translate(-239.7 873.22) rotate(-60)" fill="#dea281"/>
    </g>
    <g>
      <path d="m434.21,614.5h50.42v10.51h-39.93c-5.79,0-10.49-4.7-10.49-10.49v-.03h0Z" transform="translate(1156.14 951.06) rotate(151.98)" fill="#dea281"/>
      <path d="m438.51,621.52h58.83v10.51h-48.31c-5.8,0-10.51-4.71-10.51-10.51h0Z" transform="translate(1175.43 960.29) rotate(151.98)" fill="#dea281"/>
      <path d="m443.56,631.59h54.06v10.51h-43.55c-5.8,0-10.51-4.71-10.51-10.51h0Z" transform="translate(1185.19 977.98) rotate(151.98)" fill="#dea281"/>
      <path d="m448.89,642.85h43.98v10.51h-33.47c-5.8,0-10.51-4.71-10.51-10.51h0Z" transform="translate(1191.02 999.06) rotate(151.98)" fill="#dea281"/>
      <path d="m440.58,605.22h10.51v55.02h0c-5.8,0-10.51-4.71-10.51-10.51v-44.5h0Z" transform="translate(1148.3 957.77) rotate(150)" fill="#dea281"/>
      <ellipse cx="445.83" cy="644.2" rx="18.46" ry="20.5" transform="translate(-262.37 309.22) rotate(-30)" fill="#dea281"/>
    </g>
  </g>
  <path d="m555.82,464.98s24.69-23.88,40.38-55.54c6.25,5.33,20.69,29.42,20.69,29.42,0,0-26.31,26.83-61.06,26.12Z" fill="#bfa565"/>
  <path d="m526.21,464.98s-24.69-23.88-40.38-55.54c-6.25,5.33-20.69,29.42-20.69,29.42,0,0,26.31,26.83,61.06,26.12Z" fill="#bfa565"/>
  <g>
    <ellipse cx="540.89" cy="304.86" rx="44.55" ry="11.13" fill="#1a1e21"/>
    <g>
      <ellipse cx="589.1" cy="363.03" rx="16.35" ry="13.62" transform="translate(25.7 764.79) rotate(-67.14)" fill="#e39466"/>
      <ellipse cx="492.63" cy="363.03" rx="13.62" ry="16.35" transform="translate(-102.35 219.93) rotate(-22.86)" fill="#e39466"/>
    </g>
    <path d="m592.5,349.7c0,42.63-23.1,77.18-51.6,77.18s-51.6-34.56-51.6-77.18,23.1-60.72,51.6-60.72,51.6,18.1,51.6,60.72Z" fill="#f9be9c"/>
    <path d="m580.68,397.03c0,18.75-17.82,42.53-39.79,42.53s-39.79-23.78-39.79-42.53,17.82-18.12,39.79-18.12,39.79-.62,39.79,18.12Z" fill="#1a1e21"/>
    <rect x="507.3" y="340.05" width="21.13" height="5.26" rx="2.63" ry="2.63" fill="#1a1e21"/>
    <circle cx="519.35" cy="354.33" r="3.52" fill="#1a1e21"/>
    <path d="m523.38,386.45c3.84,1.9,10.07,3.14,17.13,3.14s13.28-1.24,17.13-3.14" fill="none" stroke="#e39466" stroke-miterlimit="10" stroke-width="2.67"/>
    <rect x="553.3" y="340.05" width="21.13" height="5.26" rx="2.63" ry="2.63" transform="translate(1127.73 685.36) rotate(180)" fill="#1a1e21"/>
    <circle cx="562.38" cy="354.33" r="3.52" fill="#1a1e21"/>
    <path d="m581.33,300.2s6.89,3.09,8.66,11.01c4.12,18.45,2.46,43.6,2.46,43.6,0,0-2.73-34.31-14.27-50.6-5.73-8.1,3.15-4.01,3.15-4.01Z" fill="#1a1e21"/>
    <path d="m500.47,300.2s-6.89,3.09-8.66,11.01c-4.12,18.45-2.46,43.6-2.46,43.6,0,0,2.73-34.31,14.27-50.6,5.73-8.1-3.15-4.01-3.15-4.01Z" fill="#1a1e21"/>
    <path d="m544.45,378.91s-9.12-.89-9.12-3.48,4.56-12.39,4.56-12.39" fill="none" stroke="#e39466" stroke-miterlimit="10" stroke-width="2.67"/>
    <g>
      <path d="m550.29,353.2c-2.11-2.12-5.53-3.5-9.39-3.5s-7.29,1.38-9.39,3.5" fill="none" stroke="#9e7f00" stroke-miterlimit="10" stroke-width="1.41"/>
      <circle cx="519.44" cy="358.05" r="12.91" fill="none" stroke="#9e7f00" stroke-miterlimit="10" stroke-width="1.41"/>
      <circle cx="562.38" cy="358.05" r="12.91" fill="none" stroke="#9e7f00" stroke-miterlimit="10" stroke-width="1.41"/>
      <line x1="592.5" y1="347.16" x2="574" y2="352.43" fill="none" stroke="#9e7f00" stroke-miterlimit="10" stroke-width="1.41"/>
      <line x1="489.29" y1="347.16" x2="507.78" y2="352.43" fill="none" stroke="#9e7f00" stroke-miterlimit="10" stroke-width="1.41"/>
    </g>
  </g>
  <g>
    <path d="m540.87,165.4s-71.25,53.01-71.25,77.88,17.37,77.63,17.37,77.63h107.77s17.37-52.75,17.37-77.63-71.25-77.88-71.25-77.88Z" fill="#f0f0f0"/>
    <path d="m515.07,186.26v134.64h51.59v-134.64c-14-12.09-25.79-20.87-25.79-20.87,0,0-11.8,8.78-25.79,20.87Z" fill="#e6e63c"/>
    <path d="m480.62,299.87c3.44,12.17,6.36,21.04,6.36,21.04h107.77s2.92-8.86,6.36-21.04h-120.49Z" fill="#e6e63c"/>
  </g>
</svg>