<?xml version="1.0" encoding="UTF-8"?>
<svg id="b" data-name="Warstwa 1" xmlns="http://www.w3.org/2000/svg" viewBox="0 0 1080 1155.18">
  <path d="m580.27,416.21s-5.72-2.04-16.17-2.93-.39,23.61-.39,23.61c0,0,18.22-14.75,16.56-20.68Z" fill="#1c1c1c"/>
  <path d="m501.75,416.21s5.72-2.04,16.17-2.93.39,23.61.39,23.61c0,0-18.22-14.75-16.56-20.68Z" fill="#1c1c1c"/>
  <rect x="352.52" y="1129.91" width="374.96" height="25.27" rx="12.06" ry="12.06" fill="#1d1730"/>
  <polygon points="571.9 468.85 510.07 468.85 515.07 392.84 566.9 392.84 571.9 468.85" fill="#e39466"/>
  <path d="m495.98,427.85l4.5-10.49c.5-1.15,2.1-1.53,3.15-.73,4.08,3.11,13.89,9.88,27.88,15.02,2.02.74,3.61,2.22,4.33,4.08,2.2,5.58,5.16,15.02,5.16,15.02,0,0-21.48,1.86-45.03-22.91Z" fill="#363636"/>
  <path d="m495.98,427.85s-46.79,15.09-67.06,27.83c-17.58,11.05,33.24,93.93,33.24,93.93l74.36-98.85-40.54-22.91Z" fill="#363636"/>
  <path d="m422.27,790.04l21.14-.55c8.03-.21,14.45-6.74,14.52-14.77l-1.26-234.4-4.49-31.59-15.94,152.23-13.98,129.09Z" fill="#cfcfcf"/>
  <polygon points="622.94 450.16 541.01 450.16 459.07 450.16 385.47 1129.91 541.01 1129.91 696.54 1129.91 622.94 450.16" fill="#363636"/>
  <path d="m586.04,427.85l-4.5-10.49c-.5-1.15-2.1-1.53-3.15-.73-4.08,3.11-13.89,9.88-27.88,15.02-2.02.74-3.61,2.22-4.33,4.08-2.2,5.58-5.16,15.02-5.16,15.02,0,0,21.48,1.86,45.03-22.91Z" fill="#363636"/>
  <path d="m586.04,427.85s46.79,15.09,67.06,27.83c17.58,11.05-33.24,93.93-33.24,93.93l-74.36-98.85,40.54-22.91Z" fill="#363636"/>
  <path d="m624.93,810.71c.28,8.17,7.7,14.21,15.75,12.83,26.97-4.61,67.98-40.15,77.75-57.58,17.8-31.74-37.06-294.09-64.62-310.28-27.56-16.19-28.89,57.77-28.89,57.77v297.26Z" fill="#363636"/>
  <rect x="570.11" y="745.54" width="56.94" height="307.3" fill="#131111"/>
  <rect x="445.83" y="715.42" width="207.6" height="50.54" fill="#131111"/>
  <path d="m457.81,810.71c-.28,8.17-7.7,14.21-15.75,12.83-26.97-4.61-67.98-40.15-77.75-57.58-17.8-31.74,37.06-294.09,64.62-310.28,27.56-16.19,28.89,57.77,28.89,57.77v297.26Z" fill="#363636"/>
  <path d="m481.59,695.48c0,58.41-16.01,128.25-35.76,128.25s-35.76-69.84-35.76-128.25,16.01-83.27,35.76-83.27,35.76,24.86,35.76,83.27Z" fill="#1c1c1c"/>
  <g>
    <rect x="595.49" y="969.96" width="6.51" height="48.62" fill="#e8e8e6"/>
    <path d="m606.3,970.4c-.08-.02-.14-.02-.21-.02-1.33,0-2.61.32-3.72.89-1.53.75-2.79,1.98-3.6,3.48-.81-1.5-2.08-2.73-3.62-3.48-1.12-.57-2.38-.89-3.72-.89-.08,0-.14,0-.21.02,1.03-2.21,3-3.89,5.41-4.52.58-.83,1.32-1.55,2.15-2.12.83.57,1.55,1.29,2.13,2.12,2.41.61,4.38,2.3,5.41,4.52Z" fill="#e8e8e6"/>
    <path d="m591.2,1017.8c.08.02.14.02.21.02,1.33,0,2.61-.32,3.72-.89,1.53-.75,2.79-1.98,3.6-3.48.81,1.5,2.08,2.73,3.62,3.48,1.12.57,2.38.89,3.72.89.08,0,.14,0,.21-.02-1.03,2.21-3,3.89-5.41,4.52-.58.83-1.32,1.55-2.15,2.12-.83-.57-1.55-1.29-2.13-2.12-2.41-.61-4.38-2.3-5.41-4.52Z" fill="#e8e8e6"/>
    <rect x="595.32" y="969.96" width="6.51" height="31.63" transform="translate(1584.35 387.2) rotate(90)" fill="#e8e8e6"/>
    <g>
      <path d="m613.72,993.32c.02-.08.02-.14.02-.21,0-1.33-.32-2.61-.89-3.72-.75-1.53-1.98-2.79-3.48-3.6,1.5-.81,2.73-2.08,3.48-3.62.57-1.12.89-2.38.89-3.72,0-.08,0-.14-.02-.21,2.21,1.03,3.89,3,4.52,5.41.83.58,1.55,1.32,2.12,2.15-.57.83-1.29,1.55-2.12,2.13-.61,2.41-2.3,4.38-4.52,5.41Z" fill="#e8e8e6"/>
      <path d="m583.43,978.23c-.02.08-.02.14-.02.21,0,1.33.32,2.61.89,3.72.75,1.53,1.98,2.79,3.48,3.6-1.5.81-2.73,2.08-3.48,3.62-.57,1.12-.89,2.38-.89,3.72,0,.08,0,.14.02.21-2.21-1.03-3.89-3-4.52-5.41-.83-.58-1.55-1.32-2.12-2.15.57-.83,1.29-1.55,2.12-2.13.61-2.41,2.3-4.38,4.52-5.41Z" fill="#e8e8e6"/>
    </g>
  </g>
  <path d="m601.14,695.48c0,58.41,16.01,128.25,35.76,128.25s35.76-69.84,35.76-128.25-16.01-83.27-35.76-83.27-35.76,24.86-35.76,83.27Z" fill="#1c1c1c"/>
  <g>
    <path d="m402.15,542.72l139,69.5v57.46l-81.48-23.29-59.21-101.86c-.64-1.11.55-2.38,1.69-1.8Z" fill="#9a896d"/>
    <path d="m541.15,594.51s-5.9-26.4-32.92-35.41c-27.02-9.01-68.02-11.18-86.34-18.32-2.8.62-17.14,3.23-17.14,3.23l136.4,68.2v-17.7Z" fill="#e9d4ac"/>
    <path d="m679.86,542.72l-139,69.5v57.46l81.48-23.29,59.21-101.86c.64-1.11-.55-2.38-1.69-1.8Z" fill="#86775f"/>
    <path d="m540.87,594.51s5.9-26.4,32.92-35.41c27.02-9.01,68.02-11.18,86.34-18.32,2.8.62,17.14,3.23,17.14,3.23l-136.4,68.2v-17.7Z" fill="#d5c29d"/>
    <g>
      <path d="m608.07,614.5h39.93v10.51h-50.42v-.03c0-5.79,4.7-10.49,10.49-10.49Z" transform="translate(364.13 -219.92) rotate(28.02)" fill="#dea281"/>
      <path d="m595.4,621.52h48.31v10.51h-58.83c0-5.8,4.71-10.51,10.51-10.51Z" transform="translate(366.43 -215.11) rotate(28.02)" fill="#dea281"/>
      <path d="m595.11,631.59h43.55v10.51h-54.06c0-5.8,4.71-10.51,10.51-10.51Z" transform="translate(370.85 -212.67) rotate(28.02)" fill="#dea281"/>
      <path d="m599.86,642.85h33.47v10.51h-43.98c0-5.8,4.71-10.51,10.51-10.51Z" transform="translate(376.11 -211.22) rotate(28.02)" fill="#dea281"/>
      <path d="m641.64,605.22h0v55.02h-10.51v-44.5c0-5.8,4.71-10.51,10.51-10.51Z" transform="translate(401.62 -233.42) rotate(30)" fill="#dea281"/>
      <ellipse cx="636.38" cy="644.2" rx="20.5" ry="18.46" transform="translate(-239.7 873.22) rotate(-60)" fill="#dea281"/>
    </g>
    <g>
      <path d="m434.21,614.5h50.42v10.51h-39.93c-5.79,0-10.49-4.7-10.49-10.49v-.03h0Z" transform="translate(1156.14 951.06) rotate(151.98)" fill="#dea281"/>
      <path d="m438.51,621.52h58.83v10.51h-48.31c-5.8,0-10.51-4.71-10.51-10.51h0Z" transform="translate(1175.43 960.29) rotate(151.98)" fill="#dea281"/>
      <path d="m443.56,631.59h54.06v10.51h-43.55c-5.8,0-10.51-4.71-10.51-10.51h0Z" transform="translate(1185.19 977.98) rotate(151.98)" fill="#dea281"/>
      <path d="m448.89,642.85h43.98v10.51h-33.47c-5.8,0-10.51-4.71-10.51-10.51h0Z" transform="translate(1191.02 999.06) rotate(151.98)" fill="#dea281"/>
      <path d="m440.58,605.22h10.51v55.02h0c-5.8,0-10.51-4.71-10.51-10.51v-44.5h0Z" transform="translate(1148.3 957.77) rotate(150)" fill="#dea281"/>
      <ellipse cx="445.83" cy="644.2" rx="18.46" ry="20.5" transform="translate(-262.37 309.22) rotate(-30)" fill="#dea281"/>
    </g>
  </g>
  <path d="m551.57,434.31c-.08-1.06-1.1-1.81-2.13-1.54-3.53.91-13.44.91-17.08-.06-.9-.24-1.81.38-1.89,1.31-.31,3.84-.6,12.29-.69,15.08-.02.52.37.97.89,1.02,1.72.19,18.95.19,20.68,0,.52-.06.91-.5.89-1.02-.09-2.72-.37-10.83-.67-14.79Z" fill="#fff"/>
  <g>
    <ellipse cx="541.01" cy="304.8" rx="50.62" ry="11.13" fill="#1a1e21"/>
    <g>
      <ellipse cx="589.22" cy="362.97" rx="16.35" ry="13.62" transform="translate(25.83 764.87) rotate(-67.14)" fill="#e39466"/>
      <ellipse cx="492.75" cy="362.97" rx="13.62" ry="16.35" transform="translate(-102.31 219.97) rotate(-22.86)" fill="#e39466"/>
    </g>
    <path d="m592.61,349.64c0,42.63-23.1,77.18-51.6,77.18s-51.6-34.56-51.6-77.18,23.1-60.72,51.6-60.72,51.6,18.1,51.6,60.72Z" fill="#f9be9c"/>
    <path d="m572.07,399.98c0,14.83-13.91,26.85-31.07,26.85s-31.07-12.02-31.07-26.85,13.91-21.12,31.07-21.12,31.07,6.29,31.07,21.12Z" fill="#ebac8d"/>
    <rect x="507.42" y="339.99" width="21.13" height="5.26" rx="2.63" ry="2.63" fill="#1a1e21"/>
    <circle cx="519.47" cy="354.27" r="3.52" fill="#1a1e21"/>
    <path d="m523.49,386.39c3.84,1.9,10.07,3.14,17.13,3.14s13.28-1.24,17.13-3.14" fill="none" stroke="#e39466" stroke-miterlimit="10" stroke-width="2.67"/>
    <rect x="553.42" y="339.99" width="21.13" height="5.26" rx="2.63" ry="2.63" transform="translate(1127.96 685.25) rotate(180)" fill="#1a1e21"/>
    <circle cx="562.5" cy="354.27" r="3.52" fill="#1a1e21"/>
    <path d="m587.01,300.15s6.89,3.09,8.66,11.01c4.12,18.45-3.11,43.6-3.11,43.6,0,0-2.73-34.31-14.27-50.6-5.73-8.1,8.72-4.01,8.72-4.01Z" fill="#1a1e21"/>
    <path d="m495.02,300.15s-6.89,3.09-8.66,11.01c-4.12,18.45,3.11,43.6,3.11,43.6,0,0,2.73-34.31,14.27-50.6,5.73-8.1-8.72-4.01-8.72-4.01Z" fill="#1a1e21"/>
    <path d="m544.57,378.85s-9.12-.89-9.12-3.48,4.56-12.39,4.56-12.39" fill="none" stroke="#e39466" stroke-miterlimit="10" stroke-width="2.67"/>
    <path d="m592.61,297.8c0,12.24-23.1-4.13-51.6-4.13s-51.6,16.37-51.6,4.13,23.1-24.4,51.6-24.4,51.6,12.17,51.6,24.4Z" fill="#1a1e21"/>
  </g>
</svg>