<?xml version="1.0" encoding="UTF-8"?>
<svg id="b" data-name="Warstwa 1" xmlns="http://www.w3.org/2000/svg" viewBox="0 0 1080 1155.18">
  <g>
    <polygon points="627.84 913.4 638.07 1116.06 609.73 1116.06 567.74 918.5 627.84 913.4" fill="#f9be9c"/>
    <path d="m633.42,715.1s4.47,164.36,5.77,230.59c-24.11,5.52-78.89,3.07-78.89,3.07l-16.89-105.79h-3.57v-123.27l93.58-4.6Z" fill="#334c94"/>
    <path d="m644.87,1089.26h-44.89s-4.74,16.46-4.99,40.65h97.52c6.24,0,14.22-6.98,8.23-12.47-5.99-5.49-34.67-5.99-55.87-28.18Z" fill="#3d3d3d"/>
    <path d="m589.19,432.16s-15.17-2.89-31.72-2.89h-24.55l40.17,68.33,16.11-65.44Z" fill="#3d3d3d"/>
    <path d="m490.81,432.16s15.17-2.89,31.72-2.89h24.55l-40.17,68.33-16.11-65.44Z" fill="#3d3d3d"/>
    <polygon points="452.16 913.4 441.93 1116.06 470.27 1116.06 512.26 918.5 452.16 913.4" fill="#f9be9c"/>
    <path d="m446.58,715.1s-4.47,164.36-5.77,230.59c24.11,5.52,78.89,3.07,78.89,3.07l16.89-105.79h3.57v-123.27l-93.58-4.6Z" fill="#334c94"/>
    <polygon points="571.07 468.85 509.25 468.85 514.25 392.84 566.07 392.84 571.07 468.85" fill="#e39466"/>
    <g>
      <ellipse cx="588.77" cy="362.36" rx="16.48" ry="13.73" transform="translate(26.12 764.08) rotate(-67.14)" fill="#e39466"/>
      <ellipse cx="491.55" cy="362.36" rx="13.73" ry="16.48" transform="translate(-102.17 219.46) rotate(-22.86)" fill="#e39466"/>
      <path d="m592.2,348.92c0,42.96-23.29,77.79-52.01,77.79s-52.01-34.83-52.01-77.79,23.29-61.2,52.01-61.2,52.01,18.24,52.01,61.2Z" fill="#f9be9c"/>
      <rect x="506.33" y="337.71" width="21.3" height="5.31" rx="2.65" ry="2.65" fill="#1a1e21"/>
      <circle cx="518.48" cy="353.59" r="3.55" fill="#1a1e21"/>
      <path d="m522.53,385.96c3.87,1.91,10.15,3.16,17.26,3.16s13.39-1.25,17.26-3.16" fill="none" stroke="#e39466" stroke-miterlimit="10" stroke-width="2.69"/>
      <path d="m594.44,291.75c0,15.6-24.29,24.44-54.25,24.44s-54.25-8.84-54.25-24.44,1.09-28.25,31.05-28.25,77.46,12.65,77.46,28.25Z" fill="#1a1e21"/>
      <path d="m486.72,298.7s-6.73,3.25-6.73,11.43,8.18,43.94,8.18,43.94c0,0,12.11-23.2,14.68-43.16,2.58-19.95-16.14-12.22-16.14-12.22Z" fill="#1a1e21"/>
      <rect x="552.69" y="337.71" width="21.3" height="5.31" rx="2.65" ry="2.65" transform="translate(1126.68 680.73) rotate(180)" fill="#1a1e21"/>
      <circle cx="561.84" cy="353.59" r="3.55" fill="#1a1e21"/>
      <path d="m593.6,298.7s6.73,3.25,6.73,11.43-8.18,43.94-8.18,43.94c0,0-12.11-23.2-14.68-43.16-2.58-19.95,16.14-12.22,16.14-12.22Z" fill="#1a1e21"/>
      <path d="m543.77,378.36s-9.19-.9-9.19-3.51,4.6-12.49,4.6-12.49" fill="none" stroke="#e39466" stroke-miterlimit="10" stroke-width="2.69"/>
    </g>
    <path d="m497.23,450.16s17.17,15.33,42.93,15.33v292.53c-32.2,0-78.5-6.44-78.5-6.44l35.57-301.42Z" fill="#f0f0f0"/>
    <path d="m499.99,446.79s-58.26,13.37-74.61,26.83,7.77,286.63,7.77,286.63c0,0,35.88,5.69,65.01,5.69-.92-68.27,22.69-279.33,22.69-279.33l-20.85-39.82Z" fill="#8c8c8c"/>
    <path d="m422.71,481.83s-34.74,108.98-39.24,136.98,29.44,151.07,29.44,151.07l29.85-25.76s2.04-118.97,0-137.37-5.33-73.63-20.04-124.92Z" fill="#3d3d3d"/>
    <path d="m435.13,1089.26h44.89s4.74,16.46,4.99,40.65h-97.52c-6.24,0-14.22-6.98-8.23-12.47,5.99-5.49,34.67-5.99,55.87-28.18Z" fill="#3d3d3d"/>
    <path d="m485.89,488.8l15.03-26.68,3.83,1.53,14.78,23.35-23.93-52.61-4.79-2.23-15.81,20.14s5.23,26.87,10.89,36.49Z" fill="#b0b0b0"/>
    <path d="m423.42,771.44c0,.5,8.24,23.83,20.74,34.83,8.31-15.88,11.42-40.33,11.42-40.33l-17.33-10.33-14.83,15.83Z" fill="#f9be9c"/>
    <path d="m401.46,772.33l15.95,13.49s22.49-20.65,34.75-31.89c-1.02-9.4-8.49-25.55-8.49-25.55,0,0-29.12,20.24-42.2,43.95Z" fill="#b0b0b0"/>
    <path d="m582.77,450.16s-17.17,15.33-42.93,15.33v292.53c32.2,0,78.5-6.44,78.5-6.44l-35.57-301.42Z" fill="#f0f0f0"/>
    <path d="m580.01,446.79s58.26,13.37,74.61,26.83c16.35,13.46-7.77,286.63-7.77,286.63,0,0-35.88,5.69-65.01,5.69.92-68.27-22.69-279.33-22.69-279.33l20.85-39.82Z" fill="#8c8c8c"/>
    <path d="m657.29,481.83s34.74,108.98,39.24,136.98-29.44,151.07-29.44,151.07l-29.85-25.76s-2.04-118.97,0-137.37c2.04-18.4,5.33-73.63,20.04-124.92Z" fill="#3d3d3d"/>
    <path d="m594.11,488.8l-15.03-26.68-3.83,1.53-14.78,23.35,23.93-52.61,4.79-2.23,15.81,20.14s-5.23,26.87-10.89,36.49Z" fill="#b0b0b0"/>
    <path d="m656.58,771.44c0,.5-8.24,23.83-20.74,34.83-8.31-15.88-11.42-40.33-11.42-40.33l17.33-10.33,14.83,15.83Z" fill="#f9be9c"/>
    <path d="m678.54,772.33l-15.95,13.49s-22.49-20.65-34.75-31.89c1.02-9.4,8.49-25.55,8.49-25.55,0,0,29.12,20.24,42.2,43.95Z" fill="#b0b0b0"/>
  </g>
  <rect x="352.52" y="1129.91" width="374.96" height="25.27" rx="12.63" ry="12.63" fill="#1d1730"/>
</svg>