<?xml version="1.0" encoding="UTF-8"?>
<svg id="b" data-name="Warstwa 1" xmlns="http://www.w3.org/2000/svg" viewBox="0 0 1080 1920">
  <rect x="-.3" y="0" width="1080.3" height="1463.91" fill="#3a3355"/>
  <path d="m887.28,803.74v660.17H192.13v-660.17c49.39-177.61,179.12-321.77,347.58-390.88,168.46,69.11,298.18,213.27,347.58,390.88Z" fill="#251e3b"/>
  <path d="m855.25,853.37v610.54H224.15v-610.54c44.84-164.26,162.61-297.58,315.55-361.49,152.94,63.91,270.71,197.23,315.55,361.49Z" fill="#2f2649"/>
  <rect y="1446.33" width="1080" height="473.67" fill="#292241"/>
  <polygon points="855.25 1437.64 224.15 1437.64 192.13 1447.33 887.28 1447.33 855.25 1437.64" fill="#292241"/>
  <g>
    <g>
      <path d="m943.35,437.97h24.05c6.5,0,11.78,5.28,11.78,11.78v157.65h-47.62v-157.65c0-6.5,5.28-11.78,11.78-11.78Z" fill="#ededed"/>
      <path d="m955.38,394.52s-9.32,19.26-9.32,27.7,9.32,9.57,9.32,9.57c0,0,9.32-1.12,9.32-9.57s-9.32-27.7-9.32-27.7Z" fill="#ffee4e"/>
      <path d="m979.53,507.72c0,7.99,8.73,23.34,0,23.34s-6.78-33.94-6.78-33.94v-44.88c0-2.03-1.65-3.67-3.67-3.67h0c-2.03,0-3.67,1.65-3.67,3.67v30.87c0,2.15-1.74,3.89-3.89,3.89h0c-2.15,0-3.89-1.74-3.89-3.89v-31.17c0-1.87-1.51-3.38-3.38-3.38h0c-1.87,0-3.38,1.51-3.38,3.38v12.3c0,2.01-1.63,3.65-3.65,3.65h0c-2.01,0-3.65-1.63-3.65-3.65v-12.54c0-1.73-1.4-3.13-3.13-3.13h0c-1.73,0-3.13,1.4-3.13,3.13v14.07c0,15.35-.84,22.28-5.81,22.28-9.06,0-.45-21.74-.45-34.53v-6.92c0-4.76,3.86-8.62,8.62-8.62h31.26c4.76,0,8.62,3.86,8.62,8.62v61.12Z" fill="#fff"/>
      <circle cx="955.38" cy="411.93" r="167.07" fill="#fbe76e" opacity=".2"/>
      <circle cx="955.38" cy="411.93" r="66.43" fill="#fbe76e" opacity=".2"/>
    </g>
    <g>
      <rect x="918.8" y="637.39" width="73.15" height="13.19" rx="6.6" ry="6.6" transform="translate(1599.36 -311.39) rotate(90)" fill="#a69900"/>
      <rect x="918.8" y="607.41" width="73.15" height="13.19" rx="6.6" ry="6.6" fill="#edd800"/>
    </g>
  </g>
  <g>
    <g>
      <path d="m119.47,437.97h24.05c6.5,0,11.78,5.28,11.78,11.78v157.65h-47.62v-157.65c0-6.5,5.28-11.78,11.78-11.78Z" fill="#ededed"/>
      <path d="m131.49,394.52s-9.32,19.26-9.32,27.7,9.32,9.57,9.32,9.57c0,0,9.32-1.12,9.32-9.57s-9.32-27.7-9.32-27.7Z" fill="#ffee4e"/>
      <path d="m155.65,478.14c0,7.99,8.73,23.34,0,23.34s-6.78-33.94-6.78-33.94v-15.3c0-2.03-1.65-3.67-3.67-3.67h0c-2.03,0-3.67,1.65-3.67,3.67v14.67c0,2.15-1.74,3.89-3.89,3.89h0c-2.15,0-3.89-1.74-3.89-3.89v-14.97c0-1.87-1.51-3.38-3.38-3.38h0c-1.87,0-3.38,1.51-3.38,3.38v52.16c0,2.01-1.63,3.65-3.65,3.65h0c-2.01,0-3.65-1.63-3.65-3.65v-52.4c0-1.73-1.4-3.13-3.13-3.13h0c-1.73,0-3.13,1.4-3.13,3.13v96.25c0,15.35-.84,22.28-5.81,22.28-9.06,0-.45-21.74-.45-34.53v-89.11c0-4.76,3.86-8.62,8.62-8.62h31.26c4.76,0,8.62,3.86,8.62,8.62v31.55Z" fill="#fff"/>
      <circle cx="131.49" cy="411.93" r="167.07" fill="#fbe76e" opacity=".2"/>
      <circle cx="131.49" cy="411.93" r="66.43" fill="#fbe76e" opacity=".2"/>
    </g>
    <g>
      <rect x="94.91" y="637.39" width="73.15" height="13.19" rx="6.6" ry="6.6" transform="translate(775.48 512.5) rotate(90)" fill="#a69900"/>
      <rect x="94.91" y="607.41" width="73.15" height="13.19" rx="6.6" ry="6.6" fill="#edd800"/>
    </g>
  </g>
</svg>