<?xml version="1.0" encoding="UTF-8"?>
<svg id="b" data-name="Warstwa 1" xmlns="http://www.w3.org/2000/svg" viewBox="0 0 1080 1155.18">
  <path d="m1035.25,1067.1c-16.75-33-62.11-48.96-98.5-42.44.85-26.06-9.82-47.85-45.35-52.18-3.93-.48-7.63-.66-11.11-.59-6.29-41.73-22.88-74.76-60.11-72.48-8.33.51-15.48,2.62-21.6,6.04v-204.97h0v-24.32h0v-.31h38.34l27.7,39.96v-67.23l-110.2-158.96c.38-1.13.73-2.28,1.01-3.46,3.1-12.82-.54-25.68-8.62-34.89,3.29-4.23,5.76-9.21,7.1-14.75,5.05-20.93-7.81-41.99-28.74-47.04-12.62-3.05-25.28.43-34.46,8.25l-146.31-211.04,7.11-75.8,36.84,3.46,1.73-18.42-36.84-3.46,4.2-44.73-18.42-1.73-4.2,44.73-36.84-3.46-1.73,18.42,36.84,3.46-8.33,88.8,4.9.46-201.67,290.89c-5.94-.72-12.14-.09-18.15,2.12-12.37,4.56-21.04,14.73-24.19,26.58-5.35-.38-10.86.33-16.21,2.3-20.2,7.44-30.54,29.85-23.1,50.05,2.7,7.33,7.37,13.35,13.19,17.7l-41.95,60.51v67.23l27.7-39.96h38.34v121.77l-3.53,27.96c-13.03-39.26-32.02-66.98-59.57-69.58-41.15-3.9-50.48,54.4-46.82,126.02-64.55,35.23-65.66,91.3-48.41,141.16-33.12,1.37-67.6,16.87-82.03,43.57-26.42,48.88,59.64,62.59,59.64,62.59l.33.58c-6.8,0-12.32,5.52-12.32,12.32v.63c0,6.8,5.52,12.32,12.32,12.32h873.5c6.8,0,12.32-5.52,12.32-12.32v-.63c0-6.38-4.84-11.62-11.05-12.25h.97s81.18-13.77,56.26-62.88Z" fill="#284954" opacity=".2"/>
</svg>