<?xml version="1.0" encoding="UTF-8"?>
<svg id="b" data-name="Warstwa 1" xmlns="http://www.w3.org/2000/svg" viewBox="0 0 1080 1155.18">
  <g>
    <rect x="113.71" y="374.25" width="858.67" height="430.67" fill="#36424f"/>
    <rect x="143.79" y="804.91" width="798.49" height="315.78" fill="#c7c7d9"/>
    <rect x="143.79" y="1120.7" width="798.49" height="18.84" fill="#959db0"/>
    <g>
      <path d="m869.61,910.62s-25.63,20.05-25.63,46.21v108.99h51.26v-108.99c0-26.16-25.63-46.21-25.63-46.21Z" fill="#2a415b"/>
      <path d="m869.61,910.62s25.63,20.05,25.63,46.21v108.99h-51.26v-108.99c0-26.16,25.63-46.21,25.63-46.21m0-15.09l-6.66,5.21c-1.24.97-30.3,24.08-30.3,56.09v121.2h73.93v-121.2c0-32.01-29.07-55.12-30.3-56.09l-6.66-5.21h0Z" fill="#959db0"/>
      <rect x="825.9" y="1065.82" width="87.42" height="12.21" fill="#959db0"/>
      <path d="m869.61,910.62s-25.63,20.05-25.63,46.21v108.99h2.7v-100.95c0-26.16,22.93-46.21,22.93-46.21,0,0,22.93,20.05,22.93,46.21v100.95h2.7v-108.99c0-26.16-25.63-46.21-25.63-46.21Z" fill="#152937"/>
      <rect x="868.05" y="915.46" width="3.12" height="150.36" fill="#152937"/>
      <rect x="868.05" y="949.48" width="3.12" height="48.19" transform="translate(1843.18 103.97) rotate(90)" fill="#152937"/>
      <rect x="868.05" y="998.6" width="3.12" height="48.19" transform="translate(1892.3 153.09) rotate(90)" fill="#152937"/>
    </g>
    <g>
      <path d="m215.93,910.62s-25.63,20.05-25.63,46.21v108.99h51.26v-108.99c0-26.16-25.63-46.21-25.63-46.21Z" fill="#2a415b"/>
      <path d="m215.93,910.62s25.63,20.05,25.63,46.21v108.99h-51.26v-108.99c0-26.16,25.63-46.21,25.63-46.21m0-15.09l-6.66,5.21c-1.24.97-30.3,24.08-30.3,56.09v121.2h73.93v-121.2c0-32.01-29.07-55.12-30.3-56.09l-6.66-5.21h0Z" fill="#959db0"/>
      <rect x="172.22" y="1065.82" width="87.42" height="12.21" fill="#959db0"/>
      <path d="m215.93,910.62s-25.63,20.05-25.63,46.21v108.99h2.7v-100.95c0-26.16,22.93-46.21,22.93-46.21,0,0,22.93,20.05,22.93,46.21v100.95h2.7v-108.99c0-26.16-25.63-46.21-25.63-46.21Z" fill="#152937"/>
      <rect x="214.37" y="915.46" width="3.12" height="150.36" fill="#152937"/>
      <rect x="214.37" y="949.48" width="3.12" height="48.19" transform="translate(1189.5 757.65) rotate(90)" fill="#152937"/>
      <rect x="214.37" y="998.6" width="3.12" height="48.19" transform="translate(1238.62 806.77) rotate(90)" fill="#152937"/>
    </g>
  </g>
  <g>
    <polygon points="547.77 1121.67 869.61 1121.67 869.61 844.3 547.77 384.83 547.77 1121.67" fill="#e2e2e6"/>
    <rect x="547.77" y="1121.67" width="321.84" height="17.86" fill="#959db0"/>
    <polygon points="547.77 352.13 547.77 384.83 869.61 844.3 869.61 816.56 547.77 352.13" fill="#959bae"/>
    <polygon points="901.65 802.22 547.77 293.57 547.77 293.92 547.77 332.35 547.77 352.13 869.61 816.56 902.35 863.81 901.65 802.22" fill="#152937"/>
    <polygon points="547.77 1121.67 225.93 1121.67 225.93 844.3 547.77 384.83 547.77 1121.67" fill="#e2e2e6"/>
    <rect x="225.93" y="1121.67" width="321.84" height="17.86" fill="#959db0"/>
    <polygon points="547.77 352.13 547.77 384.83 225.93 844.3 225.93 816.56 547.77 352.13" fill="#959bae"/>
    <polygon points="193.88 802.22 193.19 863.81 225.93 816.56 547.77 352.13 547.77 332.35 547.77 293.92 547.77 293.57 193.88 802.22" fill="#152937"/>
  </g>
  <g>
    <path d="m786.54,890.09s-28.77,22.51-28.77,51.88v122.35h57.55v-122.35c0-29.37-28.77-51.88-28.77-51.88Z" fill="#2a415b"/>
    <path d="m786.54,890.09s28.77,22.51,28.77,51.88v122.35h-57.55v-122.35c0-29.37,28.77-51.88,28.77-51.88m0-16.94l-7.48,5.85c-1.39,1.09-34.02,27.03-34.02,62.97v136.06h82.99v-136.06c0-35.94-32.63-61.88-34.02-62.97l-7.48-5.85h0Z" fill="#959db0"/>
    <rect x="737.47" y="1064.32" width="98.13" height="13.7" fill="#c7c7d9"/>
    <path d="m786.54,890.09s-28.77,22.51-28.77,51.88v122.35h3.03v-113.33c0-29.37,25.74-51.88,25.74-51.88,0,0,25.75,22.51,25.75,51.88v113.33h3.03v-122.35c0-29.37-28.77-51.88-28.77-51.88Z" fill="#152937"/>
    <rect x="784.78" y="895.53" width="3.5" height="168.79" fill="#152937"/>
    <rect x="784.78" y="933.72" width="3.5" height="54.1" transform="translate(1747.3 174.23) rotate(90)" fill="#152937"/>
    <rect x="784.78" y="988.86" width="3.5" height="54.1" transform="translate(1802.45 229.37) rotate(90)" fill="#152937"/>
  </g>
  <g>
    <path d="m296.65,890.09s-28.77,22.51-28.77,51.88v122.35h57.55v-122.35c0-29.37-28.77-51.88-28.77-51.88Z" fill="#2a415b"/>
    <path d="m296.65,890.09s28.77,22.51,28.77,51.88v122.35h-57.55v-122.35c0-29.37,28.77-51.88,28.77-51.88m0-16.94l-7.48,5.85c-1.39,1.09-34.02,27.03-34.02,62.97v136.06h82.99v-136.06c0-35.94-32.63-61.88-34.02-62.97l-7.48-5.85h0Z" fill="#959db0"/>
    <rect x="247.59" y="1064.32" width="98.13" height="13.7" fill="#c7c7d9"/>
    <path d="m296.65,890.09s-28.77,22.51-28.77,51.88v122.35h3.03v-113.33c0-29.37,25.74-51.88,25.74-51.88,0,0,25.75,22.51,25.75,51.88v113.33h3.03v-122.35c0-29.37-28.77-51.88-28.77-51.88Z" fill="#152937"/>
    <rect x="294.9" y="895.53" width="3.5" height="168.79" fill="#152937"/>
    <rect x="294.9" y="933.72" width="3.5" height="54.1" transform="translate(1257.42 664.11) rotate(90)" fill="#152937"/>
    <rect x="294.9" y="988.86" width="3.5" height="54.1" transform="translate(1312.56 719.26) rotate(90)" fill="#152937"/>
  </g>
  <polygon points="714.28 858.27 371.77 858.27 543.02 611.23 714.28 858.27" fill="#fbfbfb"/>
  <rect x="371.77" y="858.27" width="342.52" height="269.07" fill="#fbfbfb"/>
  <rect x="383.54" y="1127.34" width="318.97" height="12.28" fill="#959db0"/>
  <g>
    <path d="m543.03,798.9s-50.32,39.37-50.32,90.72v213.96h100.63v-213.96c0-51.35-50.32-90.72-50.32-90.72Z" fill="#2a415b"/>
    <path d="m543.03,798.9s50.32,39.37,50.32,90.72v213.96h-100.63v-213.96c0-51.35,50.32-90.72,50.32-90.72m0-29.62l-13.07,10.23c-2.43,1.9-59.49,47.27-59.49,110.11v237.93h145.13v-237.93c0-62.84-57.06-108.21-59.49-110.11l-13.07-10.23h0Z" fill="#959db0"/>
    <rect x="457.22" y="1103.58" width="171.61" height="17.97" fill="#c7c7d9"/>
    <rect x="430.04" y="1121.56" width="225.96" height="17.97" fill="#e2e2e6"/>
    <path d="m543.03,798.9s-50.32,39.37-50.32,90.72v213.96h5.3v-198.18c0-51.35,45.02-90.72,45.02-90.72,0,0,45.02,39.37,45.02,90.72v198.18h5.3v-213.96c0-51.35-50.32-90.72-50.32-90.72Z" fill="#152937"/>
    <path d="m492.71,1024.55h15.46c5.85,0,10.61,4.75,10.61,10.61v68.43h-26.07v-79.03h0Z" fill="#152937"/>
    <path d="m577.88,1024.55h15.46v79.03h-26.07v-68.43c0-5.85,4.75-10.61,10.61-10.61Z" fill="#152937"/>
  </g>
  <polygon points="735.12 858.27 714.28 858.27 543.02 611.23 371.77 858.27 350.94 858.27 543.02 581.19 735.12 858.27" fill="#959bae"/>
  <polygon points="543.03 552.32 342.63 841.38 342.63 883.02 543.03 593.96 743.42 883.02 743.42 841.38 543.03 552.32" fill="#152937"/>
  <polygon points="543.03 552.32 342.63 841.38 342.63 883.02 543.03 593.96 543.03 552.32" fill="#36424f"/>
  <g>
    <rect x="409.96" y="953.67" width="60.5" height="78.46" fill="#959db0"/>
    <g>
      <rect x="421.53" y="962.47" width="37.37" height="54.26" fill="#e2e2e6"/>
      <circle cx="440.21" cy="966.13" r="1.52" fill="#2a415b"/>
      <rect x="429.52" y="974.41" width="20.09" height="2.35" fill="#959db0"/>
      <rect x="430.16" y="993.76" width="20.09" height="2.35" fill="#959db0"/>
      <rect x="442.66" y="1002.85" width="10.74" height="1.2" fill="#959db0"/>
      <rect x="425.73" y="980.56" width="27.66" height="2.35" fill="#959db0"/>
    </g>
  </g>
  <rect x="68.94" y="1139.53" width="946.79" height="15.65" rx="7.83" ry="7.83" fill="#05614e"/>
  <g>
    <rect x="707.61" y="1095.89" width="13.35" height="24.81" fill="#8c6239"/>
    <rect x="676.47" y="1114.12" width="75.64" height="25.41" fill="#c7c7d9"/>
    <path d="m676.66,1018.13c0,17.92,1.44,35.25,4.14,51.66,7.42,45.21,59.55,45.21,66.97,0,2.7-16.42,4.14-33.75,4.14-51.66,0-56.97-14.59-107.99-37.63-142.58-23.03,34.59-37.63,85.62-37.63,142.58Z" fill="#098d73"/>
    <path d="m679.86,1063.69c.29,2.05.61,4.08.94,6.11,7.42,45.21,59.55,45.21,66.97,0,.33-2.02.64-4.06.94-6.11-19.43,20.02-49.42,20.02-68.85,0Z" fill="#067a61"/>
  </g>
  <g>
    <rect x="836.63" y="1095.89" width="13.35" height="24.81" fill="#8c6239"/>
    <rect x="805.48" y="1114.12" width="75.64" height="25.41" fill="#c7c7d9"/>
    <path d="m805.68,1034.62c0,14.47,1.44,28.46,4.14,41.71,7.42,36.5,59.55,36.5,66.97,0,2.7-13.25,4.14-27.24,4.14-41.71,0-45.99-14.59-87.19-37.63-115.11-23.03,27.92-37.63,69.12-37.63,115.11Z" fill="#098d73"/>
    <path d="m808.88,1071.4c.29,1.65.61,3.3.94,4.93,7.42,36.5,59.55,36.5,66.97,0,.33-1.63.64-3.28.94-4.93-19.43,16.16-49.42,16.16-68.85,0Z" fill="#067a61"/>
  </g>
  <g>
    <rect x="975.13" y="1107.01" width="9.95" height="18.48" fill="#8c6239"/>
    <rect x="951.93" y="1120.6" width="56.36" height="18.93" fill="#c7c7d9"/>
    <path d="m952.07,1061.36c0,10.78,1.08,21.2,3.08,31.08,5.53,27.2,44.37,27.2,49.9,0,2.01-9.87,3.08-20.3,3.08-31.08,0-34.27-10.87-64.96-28.04-85.77-17.16,20.81-28.04,51.5-28.04,85.77Z" fill="#098d73"/>
    <path d="m954.46,1088.77c.22,1.23.45,2.46.7,3.67,5.53,27.2,44.37,27.2,49.9,0,.25-1.22.48-2.44.7-3.67-14.48,12.04-36.82,12.04-51.3,0Z" fill="#067a61"/>
  </g>
  <g>
    <rect x="100.13" y="1107.01" width="9.95" height="18.48" fill="#8c6239"/>
    <rect x="76.93" y="1120.6" width="56.36" height="18.93" fill="#c7c7d9"/>
    <path d="m77.07,1061.36c0,10.78,1.08,21.2,3.08,31.08,5.53,27.2,44.37,27.2,49.9,0,2.01-9.87,3.08-20.3,3.08-31.08,0-34.27-10.87-64.96-28.04-85.77-17.16,20.81-28.04,51.5-28.04,85.77Z" fill="#098d73"/>
    <path d="m79.46,1088.77c.22,1.23.45,2.46.7,3.67,5.53,27.2,44.37,27.2,49.9,0,.25-1.22.48-2.44.7-3.67-14.48,12.04-36.82,12.04-51.3,0Z" fill="#067a61"/>
  </g>
  <g>
    <rect x="365.09" y="1095.89" width="13.35" height="24.81" fill="#8c6239"/>
    <rect x="333.95" y="1114.12" width="75.64" height="25.41" fill="#c7c7d9"/>
    <path d="m334.14,1018.13c0,17.92,1.44,35.25,4.14,51.66,7.42,45.21,59.55,45.21,66.97,0,2.7-16.42,4.14-33.75,4.14-51.66,0-56.97-14.59-107.99-37.63-142.58-23.03,34.59-37.63,85.62-37.63,142.58Z" fill="#098d73"/>
    <path d="m337.34,1063.69c.29,2.05.61,4.08.94,6.11,7.42,45.21,59.55,45.21,66.97,0,.33-2.02.64-4.06.94-6.11-19.43,20.02-49.42,20.02-68.85,0Z" fill="#067a61"/>
  </g>
  <g>
    <rect x="237.66" y="1095.89" width="13.35" height="24.81" fill="#8c6239"/>
    <rect x="206.52" y="1114.12" width="75.64" height="25.41" fill="#c7c7d9"/>
    <path d="m206.71,1034.62c0,14.47,1.44,28.46,4.14,41.71,7.42,36.5,59.55,36.5,66.97,0,2.7-13.25,4.14-27.24,4.14-41.71,0-45.99-14.59-87.19-37.63-115.11-23.03,27.92-37.63,69.12-37.63,115.11Z" fill="#098d73"/>
    <path d="m209.92,1071.4c.29,1.65.61,3.3.94,4.93,7.42,36.5,59.55,36.5,66.97,0,.33-1.63.64-3.28.94-4.93-19.43,16.16-49.42,16.16-68.85,0Z" fill="#067a61"/>
  </g>
  <g>
    <g>
      <rect x="451.71" y="329.63" width="182.66" height="354.13" fill="#c7c7d9"/>
      <rect x="481.67" y="329.63" width="122.73" height="354.13" fill="#fbfbfb"/>
    </g>
    <g>
      <polygon points="651.72 329.59 434.36 329.59 543.04 126.56 651.72 329.59" fill="#152937"/>
      <polygon points="616.06 329.59 470.02 329.59 543.04 126.56 616.06 329.59" fill="#36424f"/>
    </g>
    <g>
      <path d="m543.04,427.22s-24.95,19.52-24.95,44.99v97.1h49.91v-97.1c0-25.47-24.95-44.99-24.95-44.99Z" fill="#2a415b"/>
      <path d="m543.04,427.22s24.95,19.52,24.95,44.99v97.1h-49.91v-97.1c0-25.47,24.95-44.99,24.95-44.99m0-14.69l-6.48,5.07c-1.2.94-29.5,23.44-29.5,54.61v108.98h71.97v-108.98c0-31.16-28.3-53.66-29.5-54.61l-6.48-5.07h0Z" fill="#959db0"/>
      <rect x="500.49" y="569.31" width="85.1" height="11.88" fill="#c7c7d9"/>
      <path d="m543.04,427.22s-24.95,19.52-24.95,44.99v97.1h2.63v-89.27c0-25.47,22.33-44.99,22.33-44.99,0,0,22.33,19.52,22.33,44.99v89.27h2.63v-97.1c0-25.47-24.95-44.99-24.95-44.99Z" fill="#152937"/>
    </g>
    <g>
      <rect x="537.3" y="35.58" width="11.46" height="94.54" fill="#2a415b"/>
      <rect x="514.39" y="63.41" width="57.29" height="11.46" fill="#2a415b"/>
    </g>
    <rect x="451.71" y="329.59" width="182.66" height="12.68" fill="#959bae"/>
  </g>
  <rect x="451.71" y="683.76" width="182.66" height="41.92" fill="#152937"/>
  <rect x="451.71" y="725.67" width="182.66" height="11.48" fill="#959bae"/>
</svg>