<svg id="b" data-name="Warstwa 1" xmlns="http://www.w3.org/2000/svg" viewBox="0 0 1080 1920">
    <defs>
        <style>
            .c{fill:#fff}
        </style>
    </defs>
    <path style="fill:#6cc4e0" d="M0 0h1080v1920H0z"/>
    <path d="M1080 1549.23V749.72C955.5 589.15 760.74 485.78 541.83 485.78s-415.59 104.38-540 266.3v797.15H1080Z" style="fill:#82c8e0"/>
    <path class="c" d="M681.69 567.07h670.18s-50.25-167.78-208.58-111.06c-55.53-114.61-198.5-138.24-245.76 14.18-112.24-48.44-219.01 53.17-215.84 96.89ZM-147.02 769.01h670.18s-50.25-167.78-208.58-111.06c-55.53-114.61-198.5-138.24-245.76 14.18-112.24-48.44-219.01 53.17-215.84 96.89Z"/>
    <path style="fill:#098d74" d="M0 1446.33h1080V1920H0z"/>
</svg>
