<?xml version="1.0" encoding="UTF-8"?>
<svg id="b" data-name="Warstwa 1" xmlns="http://www.w3.org/2000/svg" viewBox="0 0 1080 1155.18">
  <g>
    <rect x="190.11" y="513.45" width="705.61" height="353.9" fill="#36424f"/>
    <rect x="214.83" y="867.35" width="656.16" height="259.49" fill="#c7c7d9"/>
    <rect x="214.83" y="1126.84" width="656.16" height="15.48" fill="#959db0"/>
    <g>
      <path d="m811.27,954.21s-21.06,16.48-21.06,37.97v89.56h42.12v-89.56c0-21.49-21.06-37.97-21.06-37.97Z" fill="#2a415b"/>
      <path d="m811.27,954.21s21.06,16.48,21.06,37.97v89.56h-42.12v-89.56c0-21.49,21.06-37.97,21.06-37.97m0-12.4l-5.47,4.28c-1.02.8-24.9,19.79-24.9,46.09v99.59h60.75v-99.59c0-26.3-23.89-45.29-24.9-46.09l-5.47-4.28h0Z" fill="#959db0"/>
      <rect x="775.35" y="1081.75" width="71.83" height="10.03" fill="#959db0"/>
      <path d="m811.27,954.21s-21.06,16.48-21.06,37.97v89.56h2.22v-82.95c0-21.49,18.84-37.97,18.84-37.97,0,0,18.85,16.48,18.85,37.97v82.95h2.22v-89.56c0-21.49-21.06-37.97-21.06-37.97Z" fill="#152937"/>
      <rect x="809.99" y="958.19" width="2.57" height="123.55" fill="#152937"/>
      <rect x="809.99" y="986.15" width="2.57" height="39.6" transform="translate(1817.22 194.68) rotate(90)" fill="#152937"/>
      <rect x="809.99" y="1026.51" width="2.57" height="39.6" transform="translate(1857.58 235.04) rotate(90)" fill="#152937"/>
    </g>
    <g>
      <path d="m274.11,954.21s-21.06,16.48-21.06,37.97v89.56h42.12v-89.56c0-21.49-21.06-37.97-21.06-37.97Z" fill="#2a415b"/>
      <path d="m274.11,954.21s21.06,16.48,21.06,37.97v89.56h-42.12v-89.56c0-21.49,21.06-37.97,21.06-37.97m0-12.4l-5.47,4.28c-1.02.8-24.9,19.79-24.9,46.09v99.59h60.75v-99.59c0-26.3-23.89-45.29-24.9-46.09l-5.47-4.28h0Z" fill="#959db0"/>
      <rect x="238.19" y="1081.75" width="71.83" height="10.03" fill="#959db0"/>
      <path d="m274.11,954.21s-21.06,16.48-21.06,37.97v89.56h2.22v-82.95c0-21.49,18.84-37.97,18.84-37.97,0,0,18.85,16.48,18.85,37.97v82.95h2.22v-89.56c0-21.49-21.06-37.97-21.06-37.97Z" fill="#152937"/>
      <rect x="272.83" y="958.19" width="2.57" height="123.55" fill="#152937"/>
      <rect x="272.83" y="986.15" width="2.57" height="39.6" transform="translate(1280.06 731.84) rotate(90)" fill="#152937"/>
      <rect x="272.83" y="1026.51" width="2.57" height="39.6" transform="translate(1320.42 772.2) rotate(90)" fill="#152937"/>
    </g>
  </g>
  <g>
    <g>
      <rect x="552.02" y="393.64" width="263.23" height="510.35" fill="#c7c7d9"/>
      <rect x="595.2" y="393.64" width="176.87" height="510.35" fill="#fbfbfb"/>
    </g>
    <g>
      <polygon points="840.25 393.59 527.02 393.59 683.63 101 840.25 393.59" fill="#152937"/>
      <polygon points="788.87 393.59 578.4 393.59 683.63 101 788.87 393.59" fill="#36424f"/>
    </g>
    <rect x="552.02" y="393.59" width="263.23" height="18.27" fill="#959bae"/>
    <g>
      <path d="m644.07,451.77s-20.51,16.04-20.51,36.97v79.79h41.01v-79.79c0-20.93-20.51-36.97-20.51-36.97Z" fill="#2a415b"/>
      <path d="m644.07,451.77s20.51,16.04,20.51,36.97v79.79h-41.01v-79.79c0-20.93,20.51-36.97,20.51-36.97m0-12.07l-5.33,4.17c-.99.77-24.24,19.26-24.24,44.87v89.56h59.14v-89.56c0-25.61-23.25-44.1-24.24-44.87l-5.33-4.17h0Z" fill="#959db0"/>
      <rect x="609.1" y="568.53" width="69.93" height="9.77" fill="#c7c7d9"/>
      <path d="m644.07,451.77s-20.51,16.04-20.51,36.97v79.79h2.16v-73.36c0-20.93,18.35-36.97,18.35-36.97,0,0,18.35,16.04,18.35,36.97v73.36h2.16v-79.79c0-20.93-20.51-36.97-20.51-36.97Z" fill="#152937"/>
    </g>
    <g>
      <path d="m727.45,451.77s-20.51,16.04-20.51,36.97v79.79h41.01v-79.79c0-20.93-20.51-36.97-20.51-36.97Z" fill="#2a415b"/>
      <path d="m727.45,451.77s20.51,16.04,20.51,36.97v79.79h-41.01v-79.79c0-20.93,20.51-36.97,20.51-36.97m0-12.07l-5.33,4.17c-.99.77-24.24,19.26-24.24,44.87v89.56h59.14v-89.56c0-25.61-23.25-44.1-24.24-44.87l-5.33-4.17h0Z" fill="#959db0"/>
      <rect x="692.49" y="568.53" width="69.93" height="9.77" fill="#c7c7d9"/>
      <path d="m727.45,451.77s-20.51,16.04-20.51,36.97v79.79h2.16v-73.36c0-20.93,18.35-36.97,18.35-36.97,0,0,18.35,16.04,18.35,36.97v73.36h2.16v-79.79c0-20.93-20.51-36.97-20.51-36.97Z" fill="#152937"/>
    </g>
    <g>
      <rect x="678.92" y="26.07" width="9.42" height="77.68" fill="#2a415b"/>
      <rect x="660.09" y="48.94" width="47.08" height="9.42" fill="#2a415b"/>
    </g>
    <polygon points="846.75 661.56 761.29 864.99 845.89 864.99 846.75 661.56" fill="#36424f"/>
    <path d="m708.13,536.46h27.12v-12.22s-13.35-5.78-13.35-13.35v-48.17s-13.77,10.33-13.77,38.68v35.06Z" fill="#152937"/>
    <path d="m663.53,536.46h-27.12v-12.22s13.35-5.78,13.35-13.35v-48.17s13.77,10.33,13.77,38.68v35.06Z" fill="#152937"/>
  </g>
  <g>
    <polygon points="546.8 1127.64 811.27 1127.64 811.27 899.71 546.8 522.15 546.8 1127.64" fill="#e2e2e6"/>
    <rect x="546.8" y="1127.64" width="264.47" height="14.68" fill="#959db0"/>
    <polygon points="546.8 495.27 546.8 522.15 811.27 899.71 811.27 876.92 546.8 495.27" fill="#959bae"/>
    <polygon points="837.6 865.13 546.8 447.16 546.8 447.44 546.8 479.02 546.8 495.27 811.27 876.92 838.18 915.75 837.6 865.13" fill="#152937"/>
    <polygon points="546.8 1127.64 282.33 1127.64 282.33 899.71 546.8 522.15 546.8 1127.64" fill="#e2e2e6"/>
    <rect x="282.33" y="1127.64" width="264.47" height="14.68" fill="#959db0"/>
    <polygon points="546.8 495.27 546.8 522.15 282.33 899.71 282.33 876.92 546.8 495.27" fill="#959bae"/>
    <polygon points="255.99 865.13 255.42 915.75 282.33 876.92 546.8 495.27 546.8 479.02 546.8 447.44 546.8 447.16 255.99 865.13" fill="#152937"/>
  </g>
  <g>
    <path d="m743.01,937.34s-23.64,18.5-23.64,42.63v100.54h47.29v-100.54c0-24.13-23.65-42.63-23.65-42.63Z" fill="#2a415b"/>
    <path d="m743.01,937.34s23.65,18.5,23.65,42.63v100.54h-47.29v-100.54c0-24.13,23.64-42.63,23.64-42.63m0-13.92l-6.14,4.81c-1.14.89-27.96,22.21-27.96,51.74v111.81h68.2v-111.81c0-29.53-26.81-50.85-27.96-51.74l-6.14-4.81h0Z" fill="#959db0"/>
    <rect x="702.69" y="1080.52" width="80.64" height="11.26" fill="#c7c7d9"/>
    <path d="m743.01,937.34s-23.64,18.5-23.64,42.63v100.54h2.49v-93.13c0-24.13,21.16-42.63,21.16-42.63,0,0,21.16,18.5,21.16,42.63v93.13h2.49v-100.54c0-24.13-23.65-42.63-23.65-42.63Z" fill="#152937"/>
    <rect x="741.57" y="941.81" width="2.88" height="138.7" fill="#152937"/>
    <rect x="741.57" y="973.19" width="2.88" height="44.46" transform="translate(1738.43 252.42) rotate(90)" fill="#152937"/>
    <rect x="741.57" y="1018.51" width="2.88" height="44.46" transform="translate(1783.74 297.73) rotate(90)" fill="#152937"/>
  </g>
  <g>
    <path d="m340.45,937.34s-23.64,18.5-23.64,42.63v100.54h47.29v-100.54c0-24.13-23.65-42.63-23.65-42.63Z" fill="#2a415b"/>
    <path d="m340.45,937.34s23.65,18.5,23.65,42.63v100.54h-47.29v-100.54c0-24.13,23.64-42.63,23.64-42.63m0-13.92l-6.14,4.81c-1.14.89-27.96,22.21-27.96,51.74v111.81h68.2v-111.81c0-29.53-26.81-50.85-27.96-51.74l-6.14-4.81h0Z" fill="#959db0"/>
    <rect x="300.13" y="1080.52" width="80.64" height="11.26" fill="#c7c7d9"/>
    <path d="m340.45,937.34s-23.64,18.5-23.64,42.63v100.54h2.49v-93.13c0-24.13,21.16-42.63,21.16-42.63,0,0,21.16,18.5,21.16,42.63v93.13h2.49v-100.54c0-24.13-23.65-42.63-23.65-42.63Z" fill="#152937"/>
    <rect x="339.01" y="941.81" width="2.88" height="138.7" fill="#152937"/>
    <rect x="339.01" y="973.19" width="2.88" height="44.46" transform="translate(1335.87 654.98) rotate(90)" fill="#152937"/>
    <rect x="339.01" y="1018.51" width="2.88" height="44.46" transform="translate(1381.18 700.29) rotate(90)" fill="#152937"/>
  </g>
  <polygon points="683.63 911.19 402.17 911.19 542.9 708.19 683.63 911.19" fill="#fbfbfb"/>
  <rect x="402.17" y="911.19" width="281.46" height="221.11" fill="#fbfbfb"/>
  <rect x="411.84" y="1132.3" width="262.11" height="10.09" fill="#959db0"/>
  <g>
    <path d="m542.9,862.41s-41.35,32.35-41.35,74.55v175.82h82.7v-175.82c0-42.2-41.35-74.55-41.35-74.55Z" fill="#2a415b"/>
    <path d="m542.9,862.41s41.35,32.35,41.35,74.55v175.82h-82.7v-175.82c0-42.2,41.35-74.55,41.35-74.55m0-24.34l-10.74,8.41c-2,1.56-48.89,38.84-48.89,90.48v195.51h119.26v-195.51c0-51.64-46.89-88.92-48.89-90.48l-10.74-8.41h0Z" fill="#959db0"/>
    <rect x="472.39" y="1112.78" width="141.02" height="14.77" fill="#c7c7d9"/>
    <rect x="450.06" y="1127.55" width="185.69" height="14.77" fill="#e2e2e6"/>
    <path d="m542.9,862.41s-41.35,32.35-41.35,74.55v175.82h4.35v-162.85c0-42.2,37-74.55,37-74.55,0,0,37,32.35,37,74.55v162.85h4.35v-175.82c0-42.2-41.35-74.55-41.35-74.55Z" fill="#152937"/>
    <path d="m501.55,1047.84h12.71c4.81,0,8.71,3.91,8.71,8.71v56.23h-21.42v-64.94h0Z" fill="#152937"/>
    <path d="m571.54,1047.84h12.71v64.94h-21.42v-56.23c0-4.81,3.91-8.71,8.71-8.71Z" fill="#152937"/>
  </g>
  <polygon points="700.75 911.19 683.63 911.19 542.9 708.19 402.17 911.19 385.05 911.19 542.9 683.51 700.75 911.19" fill="#959bae"/>
  <polygon points="542.9 659.78 378.23 897.31 378.23 931.53 542.9 694 707.58 931.53 707.58 897.32 542.9 659.78" fill="#152937"/>
  <polygon points="542.9 659.78 378.23 897.31 378.23 931.53 542.9 694 542.9 659.78" fill="#36424f"/>
  <g>
    <rect x="433.56" y="989.59" width="49.71" height="64.47" fill="#959db0"/>
    <g>
      <rect x="443.06" y="996.82" width="30.71" height="44.59" fill="#e2e2e6"/>
      <circle cx="458.42" cy="999.83" r="1.25" fill="#2a415b"/>
      <rect x="449.63" y="1006.64" width="16.51" height="1.93" fill="#959db0"/>
      <rect x="450.15" y="1022.53" width="16.51" height="1.93" fill="#959db0"/>
      <rect x="460.43" y="1030" width="8.83" height=".99" fill="#959db0"/>
      <rect x="446.52" y="1011.68" width="22.73" height="1.93" fill="#959db0"/>
    </g>
  </g>
  <rect x="102" y="1142.32" width="884.33" height="12.86" rx="6.42" ry="6.42" fill="#05614e"/>
  <g>
    <rect x="784.17" y="1106.46" width="10.97" height="20.38" fill="#8c6239"/>
    <rect x="758.58" y="1121.44" width="62.16" height="20.88" fill="#c7c7d9"/>
    <path d="m758.73,1056.11c0,11.89,1.19,23.38,3.4,34.27,6.1,30,48.93,30,55.04,0,2.22-10.89,3.4-22.39,3.4-34.27,0-37.79-11.99-71.65-30.92-94.59-18.93,22.95-30.92,56.8-30.92,94.59Z" fill="#098d73"/>
    <path d="m761.37,1086.33c.24,1.36.5,2.71.77,4.05,6.1,30,48.93,30,55.04,0,.27-1.34.53-2.69.77-4.05-15.97,13.28-40.61,13.28-56.58,0Z" fill="#067a61"/>
  </g>
  <g>
    <rect x="897.98" y="1115.6" width="8.18" height="15.19" fill="#8c6239"/>
    <rect x="878.92" y="1126.76" width="46.31" height="15.56" fill="#c7c7d9"/>
    <path d="m879.03,1078.08c0,8.86.88,17.42,2.53,25.54,4.55,22.35,36.46,22.35,41.01,0,1.65-8.11,2.53-16.68,2.53-25.54,0-28.16-8.93-53.38-23.04-70.48-14.1,17.1-23.04,42.32-23.04,70.48Z" fill="#098d73"/>
    <path d="m880.99,1100.6c.18,1.01.37,2.02.57,3.02,4.55,22.35,36.46,22.35,41.01,0,.2-1,.39-2.01.57-3.02-11.9,9.9-30.26,9.9-42.16,0Z" fill="#067a61"/>
  </g>
  <g>
    <rect x="178.96" y="1115.6" width="8.18" height="15.19" fill="#8c6239"/>
    <rect x="159.89" y="1126.76" width="46.31" height="15.56" fill="#c7c7d9"/>
    <path d="m160.01,1078.08c0,8.86.88,17.42,2.53,25.54,4.55,22.35,36.46,22.35,41.01,0,1.65-8.11,2.53-16.68,2.53-25.54,0-28.16-8.93-53.38-23.04-70.48-14.1,17.1-23.04,42.32-23.04,70.48Z" fill="#098d73"/>
    <path d="m161.97,1100.6c.18,1.01.37,2.02.57,3.02,4.55,22.35,36.46,22.35,41.01,0,.2-1,.39-2.01.57-3.02-11.9,9.9-30.26,9.9-42.16,0Z" fill="#067a61"/>
  </g>
  <g>
    <rect x="291.97" y="1106.46" width="10.97" height="20.38" fill="#8c6239"/>
    <rect x="266.38" y="1121.44" width="62.16" height="20.88" fill="#c7c7d9"/>
    <path d="m266.54,1056.11c0,11.89,1.19,23.38,3.4,34.27,6.1,30,48.93,30,55.04,0,2.22-10.89,3.4-22.39,3.4-34.27,0-37.79-11.99-71.65-30.92-94.59-18.93,22.95-30.92,56.8-30.92,94.59Z" fill="#098d73"/>
    <path d="m269.17,1086.33c.24,1.36.5,2.71.77,4.05,6.1,30,48.93,30,55.04,0,.27-1.34.53-2.69.77-4.05-15.97,13.28-40.61,13.28-56.58,0Z" fill="#067a61"/>
  </g>
  <g>
    <g>
      <rect x="467.87" y="476.78" width="150.1" height="291" fill="#c7c7d9"/>
      <rect x="492.49" y="476.78" width="100.85" height="291" fill="#fbfbfb"/>
    </g>
    <g>
      <polygon points="632.22 476.76 453.61 476.76 542.91 309.92 632.22 476.76" fill="#152937"/>
      <polygon points="602.92 476.76 482.91 476.76 542.91 309.92 602.92 476.76" fill="#36424f"/>
    </g>
    <g>
      <path d="m542.91,556.98s-20.51,16.04-20.51,36.97v79.79h41.01v-79.79c0-20.93-20.51-36.97-20.51-36.97Z" fill="#2a415b"/>
      <path d="m542.91,556.98s20.51,16.04,20.51,36.97v79.79h-41.01v-79.79c0-20.93,20.51-36.97,20.51-36.97m0-12.07l-5.33,4.17c-.99.77-24.24,19.26-24.24,44.87v89.56h59.14v-89.56c0-25.61-23.25-44.1-24.24-44.87l-5.33-4.17h0Z" fill="#959db0"/>
      <rect x="507.95" y="673.74" width="69.93" height="9.77" fill="#c7c7d9"/>
      <path d="m542.91,556.98s-20.51,16.04-20.51,36.97v79.79h2.16v-73.36c0-20.93,18.35-36.97,18.35-36.97,0,0,18.35,16.04,18.35,36.97v73.36h2.16v-79.79c0-20.93-20.51-36.97-20.51-36.97Z" fill="#152937"/>
    </g>
    <g>
      <rect x="538.2" y="235.16" width="9.42" height="77.68" fill="#2a415b"/>
      <rect x="519.37" y="258.02" width="47.08" height="9.42" fill="#2a415b"/>
    </g>
    <rect x="467.87" y="476.76" width="150.1" height="10.42" fill="#959bae"/>
  </g>
  <rect x="467.87" y="767.79" width="150.1" height="34.45" fill="#152937"/>
  <rect x="467.87" y="802.24" width="150.1" height="9.43" fill="#959bae"/>
  <g>
    <g>
      <rect x="396.69" y="1106.46" width="10.97" height="20.38" fill="#8c6239"/>
      <rect x="371.09" y="1121.44" width="62.16" height="20.88" fill="#c7c7d9"/>
      <path d="m374.86,998.93c-2.34,13.84-3.61,28.48-3.61,43.63s1.19,28.96,3.4,42.45c2.69,16.38,12.52,25.54,23.2,27.47,13.64-38.08-.41-80.64-22.99-113.56Z" fill="#067a61"/>
      <path d="m402.17,925.4c-12.8,19.22-22.42,44.63-27.31,73.53,22.59,32.92,36.63,75.48,22.99,113.56,13.54,2.45,28.43-6.7,31.84-27.47,2.21-13.49,3.4-27.73,3.4-42.45,0-46.81-11.99-88.74-30.92-117.17Z" fill="#098d73"/>
      <path d="m373.88,1080c.24,1.68.5,3.36.77,5.02,6.1,37.15,48.93,37.15,55.04,0,.27-1.66.53-3.33.77-5.02-15.97,16.45-40.61,16.45-56.58,0Z" fill="#067a61"/>
    </g>
    <g>
      <rect x="367.16" y="1115.6" width="8.18" height="15.19" fill="#8c6239"/>
      <rect x="348.1" y="1126.76" width="46.31" height="15.56" fill="#e2e2e6"/>
      <path d="m348.21,1078.08c0,8.86.88,17.42,2.53,25.54,4.55,22.35,36.46,22.35,41.01,0,1.65-8.11,2.53-16.68,2.53-25.54,0-28.16-8.93-53.38-23.04-70.48-14.1,17.1-23.04,42.32-23.04,70.48Z" fill="#098d73"/>
      <path d="m350.17,1100.6c.18,1.01.37,2.02.57,3.02,4.55,22.35,36.46,22.35,41.01,0,.2-1,.39-2.01.57-3.02-11.9,9.9-30.26,9.9-42.16,0Z" fill="#067a61"/>
    </g>
  </g>
  <g>
    <g>
      <rect x="678.3" y="1106.46" width="10.97" height="20.38" transform="translate(1367.57 2233.3) rotate(180)" fill="#8c6239"/>
      <rect x="652.71" y="1121.44" width="62.16" height="20.88" transform="translate(1367.57 2263.76) rotate(180)" fill="#c7c7d9"/>
      <path d="m711.1,998.93c2.34,13.84,3.61,28.48,3.61,43.63s-1.19,28.96-3.4,42.45c-2.69,16.38-12.52,25.54-23.2,27.47-13.64-38.08.41-80.64,22.99-113.56Z" fill="#067a61"/>
      <path d="m683.79,925.4c12.8,19.22,22.42,44.63,27.31,73.53-22.59,32.92-36.63,75.48-22.99,113.56-13.54,2.45-28.43-6.7-31.84-27.47-2.21-13.49-3.4-27.73-3.4-42.45,0-46.81,11.99-88.74,30.92-117.17Z" fill="#098d73"/>
      <path d="m712.08,1080c-.24,1.68-.5,3.36-.77,5.02-6.1,37.15-48.93,37.15-55.04,0-.27-1.66-.53-3.33-.77-5.02,15.97,16.45,40.61,16.45,56.58,0Z" fill="#067a61"/>
    </g>
    <g>
      <rect x="710.62" y="1115.6" width="8.18" height="15.19" transform="translate(1429.41 2246.39) rotate(180)" fill="#8c6239"/>
      <rect x="691.55" y="1126.76" width="46.31" height="15.56" transform="translate(1429.41 2269.08) rotate(180)" fill="#e2e2e6"/>
      <path d="m737.74,1078.08c0,8.86-.88,17.42-2.53,25.54-4.55,22.35-36.46,22.35-41.01,0-1.65-8.11-2.53-16.68-2.53-25.54,0-28.16,8.93-53.38,23.04-70.48,14.1,17.1,23.04,42.32,23.04,70.48Z" fill="#098d73"/>
      <path d="m735.78,1100.6c-.18,1.01-.37,2.02-.57,3.02-4.55,22.35-36.46,22.35-41.01,0-.2-1-.39-2.01-.57-3.02,11.9,9.9,30.26,9.9,42.16,0Z" fill="#067a61"/>
    </g>
  </g>
  <g>
    <rect x="955.96" y="1118.84" width="7.17" height="13.33" transform="translate(1919.1 2251.01) rotate(180)" fill="#8c6239"/>
    <rect x="939.23" y="1128.64" width="40.64" height="13.65" transform="translate(1919.1 2270.93) rotate(180)" fill="#c7c7d9"/>
    <path d="m979.77,1085.92c0,7.77-.78,15.29-2.22,22.41-3.99,19.61-32,19.61-35.99,0-1.45-7.12-2.22-14.64-2.22-22.41,0-24.71,7.84-46.85,20.22-61.85,12.38,15,20.22,37.14,20.22,61.85Z" fill="#098d73"/>
    <path d="m978.05,1105.68c-.16.89-.33,1.77-.5,2.65-3.99,19.61-32,19.61-35.99,0-.18-.88-.35-1.76-.5-2.65,10.44,8.68,26.55,8.68,36.99,0Z" fill="#067a61"/>
  </g>
  <g>
    <rect x="124.14" y="1118.84" width="7.17" height="13.33" transform="translate(255.45 2251.01) rotate(180)" fill="#8c6239"/>
    <rect x="107.41" y="1128.64" width="40.64" height="13.65" transform="translate(255.45 2270.93) rotate(180)" fill="#c7c7d9"/>
    <path d="m147.94,1085.92c0,7.77-.78,15.29-2.22,22.41-3.99,19.61-32,19.61-35.99,0-1.45-7.12-2.22-14.64-2.22-22.41,0-24.71,7.84-46.85,20.22-61.85,12.38,15,20.22,37.14,20.22,61.85Z" fill="#098d73"/>
    <path d="m146.22,1105.68c-.16.89-.33,1.77-.5,2.65-3.99,19.61-32,19.61-35.99,0-.18-.88-.35-1.76-.5-2.65,10.44,8.68,26.55,8.68,36.99,0Z" fill="#067a61"/>
  </g>
</svg>