<?xml version="1.0" encoding="UTF-8"?>
<svg id="b" data-name="Warstwa 1" xmlns="http://www.w3.org/2000/svg" viewBox="0 0 1080 1155.18">
  <g>
    <polygon points="819.15 675.57 265.87 675.57 542.51 276.52 819.15 675.57" fill="#fbfbfb"/>
    <rect x="284.89" y="675.56" width="515.25" height="434.64" fill="#fbfbfb"/>
    <rect x="284.89" y="675.56" width="515.25" height="24.65" fill="#c7c7d9"/>
    <rect x="284.89" y="1110.21" width="515.25" height="19.83" fill="#959db0"/>
    <rect x="460.76" y="800.61" width="163.5" height="309.6" fill="#2a415b"/>
    <rect x="460.76" y="800.61" width="163.5" height="25.15" fill="#152937"/>
    <path d="m460.76,978.21h25.82c9.78,0,17.71,7.94,17.71,17.71v114.28h-43.54v-132h0Z" fill="#152937"/>
    <path d="m598.44,978.21h25.82v132h-43.54v-114.28c0-9.78,7.94-17.71,17.71-17.71Z" fill="#152937"/>
    <polygon points="644.09 1110.21 624.26 1110.21 624.26 800.61 460.76 800.61 460.76 1110.21 440.93 1110.21 440.93 780.78 644.09 780.78 644.09 1110.21" fill="#959db0"/>
    <circle cx="542.51" cy="531.77" r="52.03" fill="#152937"/>
    <circle cx="542.68" cy="538.98" r="46.92" fill="#2a415b"/>
    <path d="m542.51,597.42c-36.19,0-65.64-29.45-65.64-65.64s29.45-65.64,65.64-65.64,65.64,29.45,65.64,65.64-29.45,65.64-65.64,65.64Zm0-117.67c-28.69,0-52.03,23.34-52.03,52.03s23.34,52.03,52.03,52.03,52.03-23.34,52.03-52.03-23.34-52.03-52.03-52.03Z" fill="#959db0"/>
    <polygon points="852.8 675.57 819.15 675.57 542.51 276.52 265.87 675.57 232.22 675.57 542.51 227.99 852.8 675.57" fill="#959bae"/>
    <g>
      <rect x="533.27" y="46.08" width="18.51" height="152.71" fill="#2a415b"/>
      <rect x="496.26" y="91.04" width="92.55" height="18.51" fill="#2a415b"/>
    </g>
    <polygon points="542.51 181.35 218.8 648.28 218.8 715.55 542.51 248.62 866.22 715.55 866.22 648.28 542.51 181.35" fill="#152937"/>
    <polygon points="542.51 181.35 218.8 648.28 218.8 715.55 542.51 248.62 542.51 181.35" fill="#36424f"/>
    <rect x="539.85" y="489.56" width="5.66" height="94.15" fill="#152937"/>
    <rect x="539.85" y="487.91" width="5.66" height="97.43" transform="translate(1079.31 -6.05) rotate(90)" fill="#152937"/>
    <rect x="320.26" y="829.68" width="97.73" height="126.74" fill="#959db0"/>
    <rect x="338.94" y="843.89" width="60.37" height="87.65" fill="#e2e2e6"/>
    <circle cx="369.13" cy="849.79" r="2.46" fill="#2a415b"/>
    <rect x="351.85" y="863.18" width="32.45" height="3.8" fill="#959db0"/>
    <rect x="352.88" y="894.43" width="32.45" height="3.8" fill="#959db0"/>
    <rect x="373.08" y="909.11" width="17.35" height="1.94" fill="#959db0"/>
    <rect x="345.73" y="873.1" width="44.69" height="3.8" fill="#959db0"/>
  </g>
  <rect x="159.17" y="1129.9" width="764.45" height="25.28" rx="11.37" ry="11.37" fill="#05614e"/>
  <g>
    <rect x="831.49" y="1059.41" width="21.57" height="40.07" fill="#8c6239"/>
    <rect x="781.18" y="1088.85" width="122.18" height="41.05" fill="#c7c7d9"/>
    <path d="m781.5,981.13c0,19.03,2.33,37.44,6.69,54.88,11.99,48.03,96.19,48.03,108.19,0,4.35-17.44,6.69-35.85,6.69-54.88,0-60.51-23.57-114.71-60.78-151.46-37.21,36.74-60.78,90.94-60.78,151.46Z" fill="#098d73"/>
    <path d="m786.67,1029.53c.47,2.18.98,4.34,1.51,6.49,11.99,48.03,96.19,48.03,108.19,0,.54-2.15,1.04-4.31,1.51-6.49-31.39,21.26-79.83,21.26-111.21,0Z" fill="#067a61"/>
  </g>
  <g>
    <rect x="229.06" y="1059.41" width="21.57" height="40.07" fill="#8c6239"/>
    <rect x="178.75" y="1088.85" width="122.18" height="41.05" fill="#c7c7d9"/>
    <path d="m179.07,981.13c0,19.03,2.33,37.44,6.69,54.88,11.99,48.03,96.19,48.03,108.19,0,4.35-17.44,6.69-35.85,6.69-54.88,0-60.51-23.57-114.71-60.78-151.46-37.21,36.74-60.78,90.94-60.78,151.46Z" fill="#098d73"/>
    <path d="m184.24,1029.53c.47,2.18.98,4.34,1.51,6.49,11.99,48.03,96.19,48.03,108.19,0,.54-2.15,1.04-4.31,1.51-6.49-31.39,21.26-79.83,21.26-111.21,0Z" fill="#067a61"/>
  </g>
</svg>