<?xml version="1.0" encoding="UTF-8"?>
<svg id="b" data-name="Warstwa 1" xmlns="http://www.w3.org/2000/svg" viewBox="0 0 1080 1155.18">
  <g>
    <polygon points="547.77 1121.68 869.46 1121.68 869.46 844.43 547.77 385.17 547.77 1121.68" fill="#e2e2e6"/>
    <rect x="547.77" y="1121.68" width="321.7" height="17.86" fill="#959db0"/>
    <polygon points="547.77 352.48 547.77 385.17 869.46 844.43 869.46 816.71 547.77 352.48" fill="#959bae"/>
    <polygon points="901.5 802.37 547.77 293.95 547.77 294.3 547.77 332.71 547.77 352.48 869.46 816.71 902.19 863.94 901.5 802.37" fill="#152937"/>
    <polygon points="547.77 1121.68 226.07 1121.68 226.07 844.43 547.77 385.17 547.77 1121.68" fill="#e2e2e6"/>
    <rect x="226.07" y="1121.68" width="321.7" height="17.86" fill="#959db0"/>
    <polygon points="547.77 352.48 547.77 385.17 226.07 844.43 226.07 816.71 547.77 352.48" fill="#959bae"/>
    <polygon points="194.03 802.37 193.34 863.94 226.07 816.71 547.77 352.48 547.77 332.71 547.77 294.3 547.77 293.95 194.03 802.37" fill="#152937"/>
  </g>
  <g>
    <path d="m786.43,890.21s-28.76,22.5-28.76,51.86v122.3h57.52v-122.3c0-29.35-28.76-51.86-28.76-51.86Z" fill="#2a415b"/>
    <path d="m786.43,890.21s28.76,22.5,28.76,51.86v122.3h-57.52v-122.3c0-29.35,28.76-51.86,28.76-51.86m0-16.93l-7.47,5.85c-1.39,1.09-34,27.02-34,62.94v136h82.95v-136c0-35.92-32.62-61.85-34.01-62.94l-7.47-5.85h0Z" fill="#959db0"/>
    <rect x="737.38" y="1064.36" width="98.09" height="13.7" fill="#c7c7d9"/>
    <path d="m786.43,890.21s-28.76,22.5-28.76,51.86v122.3h3.03v-113.28c0-29.35,25.73-51.86,25.73-51.86,0,0,25.73,22.5,25.73,51.86v113.28h3.03v-122.3c0-29.35-28.76-51.86-28.76-51.86Z" fill="#152937"/>
    <rect x="784.68" y="895.64" width="3.5" height="168.72" fill="#152937"/>
    <rect x="784.68" y="933.81" width="3.5" height="54.08" transform="translate(1747.28 174.42) rotate(90)" fill="#152937"/>
    <rect x="784.68" y="988.93" width="3.5" height="54.08" transform="translate(1802.4 229.54) rotate(90)" fill="#152937"/>
  </g>
  <g>
    <path d="m296.76,890.21s-28.76,22.5-28.76,51.86v122.3h57.52v-122.3c0-29.35-28.76-51.86-28.76-51.86Z" fill="#2a415b"/>
    <path d="m296.76,890.21s28.76,22.5,28.76,51.86v122.3h-57.52v-122.3c0-29.35,28.76-51.86,28.76-51.86m0-16.93l-7.47,5.85c-1.39,1.09-34,27.02-34,62.94v136h82.95v-136c0-35.92-32.62-61.85-34.01-62.94l-7.47-5.85h0Z" fill="#959db0"/>
    <rect x="247.71" y="1064.36" width="98.09" height="13.7" fill="#c7c7d9"/>
    <path d="m296.76,890.21s-28.76,22.5-28.76,51.86v122.3h3.03v-113.28c0-29.35,25.73-51.86,25.73-51.86,0,0,25.73,22.5,25.73,51.86v113.28h3.03v-122.3c0-29.35-28.76-51.86-28.76-51.86Z" fill="#152937"/>
    <rect x="295.01" y="895.64" width="3.5" height="168.72" fill="#152937"/>
    <rect x="295.01" y="933.81" width="3.5" height="54.08" transform="translate(1257.61 664.09) rotate(90)" fill="#152937"/>
    <rect x="295.01" y="988.93" width="3.5" height="54.08" transform="translate(1312.73 719.21) rotate(90)" fill="#152937"/>
  </g>
  <polygon points="714.21 858.4 371.84 858.4 543.02 611.47 714.21 858.4" fill="#fbfbfb"/>
  <rect x="371.84" y="858.4" width="342.37" height="268.96" fill="#fbfbfb"/>
  <rect x="383.61" y="1127.35" width="318.83" height="12.27" fill="#959db0"/>
  <g>
    <path d="m543.03,799.06s-50.3,39.35-50.3,90.68v213.87h100.59v-213.87c0-51.33-50.3-90.68-50.3-90.68Z" fill="#2a415b"/>
    <path d="m543.03,799.06s50.3,39.35,50.3,90.68v213.87h-100.59v-213.87c0-51.33,50.3-90.68,50.3-90.68m0-29.6l-13.07,10.22c-2.43,1.9-59.46,47.25-59.46,110.06v237.82h145.06v-237.82c0-62.81-57.04-108.16-59.46-110.06l-13.07-10.22h0Z" fill="#959db0"/>
    <rect x="457.26" y="1103.61" width="171.53" height="17.96" fill="#c7c7d9"/>
    <rect x="430.09" y="1121.57" width="225.87" height="17.96" fill="#e2e2e6"/>
    <path d="m543.03,799.06s-50.3,39.35-50.3,90.68v213.87h5.29v-198.09c0-51.33,45-90.68,45-90.68,0,0,45,39.35,45,90.68v198.09h5.29v-213.87c0-51.33-50.3-90.68-50.3-90.68Z" fill="#152937"/>
    <path d="m492.73,1024.61h15.46c5.85,0,10.6,4.75,10.6,10.6v68.4h-26.06v-79h0Z" fill="#152937"/>
    <path d="m577.87,1024.61h15.46v79h-26.06v-68.4c0-5.85,4.75-10.6,10.6-10.6Z" fill="#152937"/>
  </g>
  <polygon points="735.03 858.4 714.21 858.4 543.02 611.47 371.84 858.4 351.02 858.4 543.02 581.44 735.03 858.4" fill="#959bae"/>
  <polygon points="543.02 552.58 342.72 841.52 342.72 883.14 543.02 594.21 743.34 883.14 743.34 841.52 543.02 552.58" fill="#152937"/>
  <polygon points="543.02 552.58 342.72 841.52 342.72 883.14 543.02 594.21 543.02 552.58" fill="#36424f"/>
  <g>
    <rect x="410.02" y="953.76" width="60.47" height="78.42" fill="#959db0"/>
    <g>
      <rect x="421.58" y="962.55" width="37.36" height="54.24" fill="#e2e2e6"/>
      <circle cx="440.26" cy="966.21" r="1.52" fill="#2a415b"/>
      <rect x="429.57" y="974.49" width="20.08" height="2.35" fill="#959db0"/>
      <rect x="430.21" y="993.83" width="20.08" height="2.35" fill="#959db0"/>
      <rect x="442.7" y="1002.92" width="10.74" height="1.2" fill="#959db0"/>
      <rect x="425.78" y="980.63" width="27.65" height="2.35" fill="#959db0"/>
    </g>
  </g>
  <rect x="153.7" y="1139.54" width="777.26" height="15.64" rx="7.82" ry="7.82" fill="#05614e"/>
  <g>
    <rect x="707.54" y="1095.92" width="13.35" height="24.79" fill="#8c6239"/>
    <rect x="676.41" y="1114.14" width="75.61" height="25.4" fill="#c7c7d9"/>
    <path d="m676.6,1018.19c0,17.91,1.44,35.23,4.14,51.64,7.42,45.19,59.52,45.19,66.94,0,2.69-16.41,4.14-33.73,4.14-51.64,0-56.94-14.58-107.95-37.61-142.52-23.02,34.57-37.61,85.58-37.61,142.52Z" fill="#098d73"/>
    <path d="m679.8,1063.73c.29,2.05.61,4.08.94,6.1,7.42,45.19,59.52,45.19,66.94,0,.33-2.02.64-4.06.94-6.1-19.42,20.01-49.4,20.01-68.82,0Z" fill="#067a61"/>
  </g>
  <g>
    <rect x="878.33" y="1095.92" width="13.35" height="24.79" fill="#8c6239"/>
    <rect x="847.2" y="1114.14" width="75.61" height="25.4" fill="#c7c7d9"/>
    <path d="m847.39,1034.67c0,14.46,1.44,28.44,4.14,41.69,7.42,36.49,59.52,36.49,66.94,0,2.69-13.25,4.14-27.23,4.14-41.69,0-45.97-14.58-87.15-37.61-115.06-23.02,27.91-37.61,69.09-37.61,115.06Z" fill="#098d73"/>
    <path d="m850.59,1071.44c.29,1.65.61,3.3.94,4.93,7.42,36.49,59.52,36.49,66.94,0,.33-1.63.64-3.27.94-4.93-19.42,16.16-49.4,16.16-68.82,0Z" fill="#067a61"/>
  </g>
  <g>
    <rect x="365.17" y="1095.92" width="13.35" height="24.79" fill="#8c6239"/>
    <rect x="334.04" y="1114.14" width="75.61" height="25.4" fill="#c7c7d9"/>
    <path d="m334.23,1018.19c0,17.91,1.44,35.23,4.14,51.64,7.42,45.19,59.52,45.19,66.94,0,2.69-16.41,4.14-33.73,4.14-51.64,0-56.94-14.58-107.95-37.61-142.52-23.02,34.57-37.61,85.58-37.61,142.52Z" fill="#098d73"/>
    <path d="m337.43,1063.73c.29,2.05.61,4.08.94,6.1,7.42,45.19,59.52,45.19,66.94,0,.33-2.02.64-4.06.94-6.1-19.42,20.01-49.4,20.01-68.82,0Z" fill="#067a61"/>
  </g>
  <g>
    <rect x="193" y="1095.92" width="13.35" height="24.79" fill="#8c6239"/>
    <rect x="161.87" y="1114.14" width="75.61" height="25.4" fill="#c7c7d9"/>
    <path d="m162.06,1034.67c0,14.46,1.44,28.44,4.14,41.69,7.42,36.49,59.52,36.49,66.94,0,2.69-13.25,4.14-27.23,4.14-41.69,0-45.97-14.58-87.15-37.61-115.06-23.02,27.91-37.61,69.09-37.61,115.06Z" fill="#098d73"/>
    <path d="m165.26,1071.44c.29,1.65.61,3.3.94,4.93,7.42,36.49,59.52,36.49,66.94,0,.33-1.63.64-3.27.94-4.93-19.42,16.16-49.4,16.16-68.82,0Z" fill="#067a61"/>
  </g>
  <g>
    <g>
      <rect x="451.75" y="329.99" width="182.58" height="353.97" fill="#c7c7d9"/>
      <rect x="481.7" y="329.99" width="122.68" height="353.97" fill="#fbfbfb"/>
    </g>
    <g>
      <polygon points="651.67 329.95 434.41 329.95 543.04 127.01 651.67 329.95" fill="#152937"/>
      <polygon points="616.03 329.95 470.05 329.95 543.04 127.01 616.03 329.95" fill="#36424f"/>
    </g>
    <g>
      <path d="m543.04,427.54s-24.94,19.52-24.94,44.97v97.06h49.89v-97.06c0-25.45-24.94-44.97-24.94-44.97Z" fill="#2a415b"/>
      <path d="m543.04,427.54s24.94,19.52,24.94,44.97v97.06h-49.89v-97.06c0-25.45,24.94-44.97,24.94-44.97m0-14.68l-6.48,5.07c-1.2.94-29.49,23.43-29.49,54.58v108.93h71.94v-108.93c0-31.15-28.29-53.64-29.49-54.58l-6.48-5.07h0Z" fill="#959db0"/>
      <rect x="500.51" y="569.56" width="85.07" height="11.88" fill="#c7c7d9"/>
      <path d="m543.04,427.54s-24.94,19.52-24.94,44.97v97.06h2.63v-89.23c0-25.45,22.32-44.97,22.32-44.97,0,0,22.32,19.52,22.32,44.97v89.23h2.63v-97.06c0-25.45-24.94-44.97-24.94-44.97Z" fill="#152937"/>
    </g>
    <g>
      <rect x="537.3" y="36.07" width="11.45" height="94.49" fill="#2a415b"/>
      <rect x="514.41" y="63.89" width="57.27" height="11.45" fill="#2a415b"/>
    </g>
    <rect x="451.75" y="329.95" width="182.58" height="12.67" fill="#959bae"/>
  </g>
  <rect x="451.75" y="683.96" width="182.58" height="41.9" fill="#152937"/>
  <rect x="451.75" y="725.86" width="182.58" height="11.47" fill="#959bae"/>
</svg>