<?xml version="1.0" encoding="UTF-8"?>
<svg id="b" data-name="Warstwa 1" xmlns="http://www.w3.org/2000/svg" viewBox="0 0 1080 1155.18">
  <g>
    <polygon points="548.62 1112.92 954.44 1112.92 954.44 763.17 548.62 183.81 548.62 1112.92" fill="#e2e2e6"/>
    <rect x="548.62" y="1112.92" width="405.82" height="22.52" fill="#959db0"/>
    <polygon points="548.62 142.57 548.62 183.81 954.44 763.17 954.44 728.2 548.62 142.57" fill="#959bae"/>
    <polygon points="994.85 710.11 548.62 68.74 548.62 69.17 548.62 117.64 548.62 142.57 954.44 728.2 995.73 787.78 994.85 710.11" fill="#152937"/>
    <polygon points="548.62 1112.92 142.8 1112.92 142.8 763.17 548.62 183.81 548.62 1112.92" fill="#e2e2e6"/>
    <rect x="142.8" y="1112.92" width="405.82" height="22.52" fill="#959db0"/>
    <polygon points="548.62 142.57 548.62 183.81 142.8 763.17 142.8 728.2 548.62 142.57" fill="#959bae"/>
    <polygon points="102.39 710.11 101.51 787.78 142.8 728.2 548.62 142.57 548.62 117.64 548.62 69.17 548.62 68.74 102.39 710.11" fill="#152937"/>
  </g>
  <g>
    <path d="m849.69,820.91s-36.28,28.39-36.28,65.42v154.28h72.57v-154.28c0-37.03-36.28-65.42-36.28-65.42Z" fill="#2a415b"/>
    <path d="m849.69,820.91s36.28,28.39,36.28,65.42v154.28h-72.57v-154.28c0-37.03,36.28-65.42,36.28-65.42m0-21.36l-9.43,7.38c-1.75,1.37-42.9,34.08-42.9,79.4v171.56h104.65v-171.56c0-45.31-41.15-78.03-42.9-79.4l-9.43-7.38h0Z" fill="#959db0"/>
    <rect x="787.82" y="1040.61" width="123.74" height="17.28" fill="#c7c7d9"/>
    <path d="m849.69,820.91s-36.28,28.39-36.28,65.42v154.28h3.82v-142.9c0-37.03,32.46-65.42,32.46-65.42,0,0,32.46,28.39,32.46,65.42v142.9h3.82v-154.28c0-37.03-36.28-65.42-36.28-65.42Z" fill="#152937"/>
    <rect x="847.48" y="827.77" width="4.42" height="212.84" fill="#152937"/>
    <rect x="847.48" y="875.92" width="4.42" height="68.22" transform="translate(1759.73 60.34) rotate(90)" fill="#152937"/>
    <rect x="847.48" y="945.46" width="4.42" height="68.22" transform="translate(1829.26 129.87) rotate(90)" fill="#152937"/>
  </g>
  <g>
    <path d="m231.98,820.91s-36.28,28.39-36.28,65.42v154.28h72.57v-154.28c0-37.03-36.28-65.42-36.28-65.42Z" fill="#2a415b"/>
    <path d="m231.98,820.91s36.28,28.39,36.28,65.42v154.28h-72.57v-154.28c0-37.03,36.28-65.42,36.28-65.42m0-21.36l-9.43,7.38c-1.75,1.37-42.9,34.08-42.9,79.4v171.56h104.65v-171.56c0-45.31-41.15-78.03-42.9-79.4l-9.43-7.38h0Z" fill="#959db0"/>
    <rect x="170.11" y="1040.61" width="123.74" height="17.28" fill="#c7c7d9"/>
    <path d="m231.98,820.91s-36.28,28.39-36.28,65.42v154.28h3.82v-142.9c0-37.03,32.46-65.42,32.46-65.42,0,0,32.46,28.39,32.46,65.42v142.9h3.82v-154.28c0-37.03-36.28-65.42-36.28-65.42Z" fill="#152937"/>
    <rect x="229.77" y="827.77" width="4.42" height="212.84" fill="#152937"/>
    <rect x="229.77" y="875.92" width="4.42" height="68.22" transform="translate(1142.01 678.06) rotate(90)" fill="#152937"/>
    <rect x="229.77" y="945.46" width="4.42" height="68.22" transform="translate(1211.55 747.59) rotate(90)" fill="#152937"/>
  </g>
  <polygon points="758.59 780.79 326.69 780.79 542.64 469.29 758.59 780.79" fill="#fbfbfb"/>
  <rect x="341.54" y="780.79" width="402.21" height="339.29" fill="#fbfbfb"/>
  <rect x="341.54" y="1120.07" width="402.21" height="15.48" fill="#959db0"/>
  <g>
    <path d="m542.64,681.49s-67.06,52.47-67.06,120.9v285.15h134.12v-285.15c0-68.44-67.06-120.9-67.06-120.9Z" fill="#2a415b"/>
    <path d="m542.64,681.49s67.06,52.47,67.06,120.9v285.15h-134.12v-285.15c0-68.44,67.06-120.9,67.06-120.9m0-39.47l-17.42,13.63c-3.24,2.53-79.28,63-79.28,146.74v317.09h193.41v-317.09c0-83.75-76.05-144.21-79.28-146.74l-17.42-13.63h0Z" fill="#959db0"/>
    <rect x="428.29" y="1087.54" width="228.71" height="23.95" fill="#c7c7d9"/>
    <rect x="392.07" y="1111.49" width="301.15" height="23.95" fill="#e2e2e6"/>
    <path d="m542.64,681.49s-67.06,52.47-67.06,120.9v285.15h7.06v-264.11c0-68.44,60-120.9,60-120.9,0,0,60,52.47,60,120.9v264.11h7.06v-285.15c0-68.44-67.06-120.9-67.06-120.9Z" fill="#152937"/>
    <path d="m475.58,982.21h20.61c7.8,0,14.13,6.33,14.13,14.13v91.19h-34.74v-105.33h0Z" fill="#152937"/>
    <path d="m589.09,982.21h20.61v105.33h-34.74v-91.19c0-7.8,6.33-14.13,14.13-14.13Z" fill="#152937"/>
  </g>
  <polygon points="784.86 780.79 758.59 780.79 542.64 469.29 326.69 780.79 300.43 780.79 542.64 431.41 784.86 780.79" fill="#959bae"/>
  <g>
    <rect x="535.42" y="289.41" width="14.45" height="119.2" fill="#2a415b"/>
    <rect x="506.54" y="324.5" width="72.24" height="14.45" fill="#2a415b"/>
  </g>
  <polygon points="542.64 395 289.95 759.49 289.95 812 542.64 447.51 795.33 812 795.33 759.49 542.64 395" fill="#152937"/>
  <polygon points="542.64 395 289.95 759.49 289.95 812 542.64 447.51 542.64 395" fill="#36424f"/>
  <g>
    <rect x="369.15" y="901.09" width="76.29" height="98.93" fill="#959db0"/>
    <g>
      <rect x="383.73" y="912.18" width="47.13" height="68.42" fill="#e2e2e6"/>
      <circle cx="407.3" cy="916.79" r="1.92" fill="#2a415b"/>
      <rect x="393.81" y="927.24" width="25.33" height="2.97" fill="#959db0"/>
      <rect x="394.61" y="951.64" width="25.33" height="2.97" fill="#959db0"/>
      <rect x="410.38" y="963.1" width="13.54" height="1.52" fill="#959db0"/>
      <rect x="389.03" y="934.99" width="34.88" height="2.97" fill="#959db0"/>
    </g>
  </g>
  <rect x="109.5" y="1135.45" width="864.54" height="19.74" rx="9.87" ry="9.87" fill="#05614e"/>
  <g>
    <rect x="768.22" y="1080.42" width="16.84" height="31.28" fill="#8c6239"/>
    <rect x="728.95" y="1103.4" width="95.38" height="32.04" fill="#c7c7d9"/>
    <path d="m729.2,1003.16c0,18.24,1.82,35.88,5.22,52.59,9.36,46.03,75.09,46.03,84.45,0,3.4-16.71,5.22-34.35,5.22-52.59,0-57.99-18.4-109.94-47.44-145.15-29.05,35.21-47.44,87.16-47.44,145.15Z" fill="#098d73"/>
    <path d="m733.23,1049.54c.37,2.09.76,4.16,1.18,6.22,9.36,46.03,75.09,46.03,84.45,0,.42-2.06.81-4.13,1.18-6.22-24.5,20.38-62.31,20.38-86.82,0Z" fill="#067a61"/>
  </g>
  <g>
    <rect x="297.96" y="1080.42" width="16.84" height="31.28" fill="#8c6239"/>
    <rect x="258.69" y="1103.4" width="95.38" height="32.04" fill="#c7c7d9"/>
    <path d="m258.93,1003.16c0,18.24,1.82,35.88,5.22,52.59,9.36,46.03,75.09,46.03,84.45,0,3.4-16.71,5.22-34.35,5.22-52.59,0-57.99-18.4-109.94-47.44-145.15-29.05,35.21-47.44,87.16-47.44,145.15Z" fill="#098d73"/>
    <path d="m262.97,1049.54c.37,2.09.76,4.16,1.18,6.22,9.36,46.03,75.09,46.03,84.45,0,.42-2.06.81-4.13,1.18-6.22-24.5,20.38-62.31,20.38-86.82,0Z" fill="#067a61"/>
  </g>
</svg>