<?xml version="1.0" encoding="UTF-8"?>
<svg id="b" data-name="Warstwa 1" xmlns="http://www.w3.org/2000/svg" viewBox="0 0 1080 1155.18">
  <g>
    <circle cx="716.03" cy="427.37" r="38.98" fill="#07ac85"/>
    <circle cx="717.55" cy="477.01" r="38.98" fill="#067a61"/>
  </g>
  <g>
    <circle cx="323.34" cy="528.01" r="38.98" fill="#07ac85"/>
    <circle cx="282.93" cy="556.89" r="38.98" fill="#098d73"/>
  </g>
  <g>
    <path d="m306.74,1129.34s89.83-36.23,77-173.31c-12.83-137.08-145.69-39.17-77,173.31Z" fill="#58893e"/>
    <path d="m306.74,1129.34s17.23-363.55-86.19-373.34c-103.42-9.79-5.9,373.34-5.9,373.34h92.1Z" fill="#067a61"/>
    <path d="m250.12,1129.34s44.79-296.41-54.35-257.52c-175.76,68.94-6.79,257.52-6.79,257.52h61.15Z" fill="#098d73"/>
    <path d="m102.92,1129.34s-86.06-13.71-59.64-62.59c26.42-48.88,120.03-60.21,149.47-16.1,29.44,44.11,21.89,78.68,21.89,78.68h-111.72Z" fill="#07ac85"/>
  </g>
  <g>
    <polygon points="817.59 675.85 264.64 675.85 541.11 277.04 817.59 675.85" fill="#fbfbfb"/>
    <g>
      <rect x="517.57" y="234.33" width="38.99" height="159.7" transform="translate(1074.12 628.36) rotate(180)" fill="#f2f2f2"/>
      <rect x="439.59" y="473.5" width="38.99" height="213.46" transform="translate(962.31 1122.62) rotate(175.5)" fill="#f2f2f2"/>
      <rect x="681.63" y="442.49" width="38.99" height="233.35" transform="translate(1402.24 1118.34) rotate(180)" fill="#f2f2f2"/>
      <rect x="556.55" y="265.71" width="38.99" height="249.13" transform="translate(1152.09 780.55) rotate(180)" fill="#e2e2e6"/>
      <rect x="478.58" y="277.04" width="38.99" height="258.08" transform="translate(996.14 812.15) rotate(180)" fill="#e2e2e6"/>
      <rect x="759.6" y="556.82" width="38.99" height="119.34" transform="translate(1558.19 1232.98) rotate(180)" fill="#e2e2e6"/>
    </g>
    <rect x="283.64" y="675.84" width="514.95" height="434.39" fill="#e2e2e6"/>
    <rect x="283.64" y="675.84" width="514.95" height="24.64" fill="#959bae"/>
    <rect x="283.64" y="1110.23" width="514.95" height="19.82" fill="#959db0"/>
    <rect x="459.41" y="800.82" width="163.41" height="309.42" fill="#2a415b"/>
    <rect x="459.41" y="800.82" width="163.41" height="25.14" fill="#152937"/>
    <path d="m459.41,978.32h25.81c9.77,0,17.7,7.93,17.7,17.7v114.22h-43.51v-131.92h0Z" fill="#152937"/>
    <path d="m597.01,978.32h25.81v131.92h-43.51v-114.22c0-9.77,7.93-17.7,17.7-17.7Z" fill="#152937"/>
    <polygon points="642.64 1110.23 622.82 1110.23 622.82 800.82 459.41 800.82 459.41 1110.23 439.59 1110.23 439.59 781 642.64 781 642.64 1110.23" fill="#959db0"/>
    <g>
      <rect x="322.63" y="700.48" width="38.99" height="272.09" fill="#f2f2f2"/>
      <rect x="400.6" y="700.48" width="38.99" height="366.54" fill="#f2f2f2"/>
      <rect x="284.26" y="690.62" width="38.99" height="206.64" transform="translate(101.73 -31.77) rotate(7.19)" fill="#fbfbfb"/>
      <rect x="361.62" y="700.48" width="38.99" height="114.68" fill="#fbfbfb"/>
      <rect x="519.76" y="700.48" width="38.99" height="80.51" fill="#f2f2f2"/>
    </g>
    <g>
      <rect x="681.63" y="700.48" width="38.99" height="110.67" fill="#f2f2f2"/>
      <rect x="759.6" y="700.48" width="38.99" height="362.53" fill="#f2f2f2"/>
      <rect x="642.64" y="700.48" width="38.99" height="192.72" fill="#fbfbfb"/>
      <rect x="721.96" y="730.75" width="38.99" height="237.76" transform="translate(-64.42 60.84) rotate(-4.5)" fill="#fbfbfb"/>
    </g>
    <circle cx="541.11" cy="532.14" r="52" fill="#152937"/>
    <circle cx="541.29" cy="539.35" r="46.89" fill="#2a415b"/>
    <path d="m541.11,597.74c-36.17,0-65.6-29.43-65.6-65.6s29.43-65.6,65.6-65.6,65.6,29.43,65.6,65.6-29.43,65.6-65.6,65.6Zm0-117.6c-28.67,0-52,23.33-52,52s23.33,52,52,52,52-23.33,52-52-23.33-52-52-52Z" fill="#959db0"/>
    <polygon points="851.22 675.85 817.59 675.85 541.11 277.04 264.64 675.85 231.01 675.85 541.11 228.54 851.22 675.85" fill="#959bae"/>
    <g>
      <rect x="464.81" y="113.6" width="152.62" height="18.5" transform="translate(368.26 650.13) rotate(-84.64)" fill="#2a415b"/>
      <rect x="533.93" y="54.57" width="18.5" height="92.49" transform="translate(392.07 632.21) rotate(-84.64)" fill="#2a415b"/>
    </g>
    <polygon points="541.11 181.93 217.59 648.58 217.59 715.81 541.11 249.16 864.63 715.81 864.63 648.58 541.11 181.93" fill="#152937"/>
    <polygon points="541.11 181.93 217.59 648.58 217.59 715.81 541.11 249.16 541.11 181.93" fill="#36424f"/>
    <rect x="538.46" y="489.95" width="5.66" height="94.09" fill="#152937"/>
    <rect x="538.46" y="488.31" width="5.66" height="97.38" transform="translate(1078.28 -4.29) rotate(90)" fill="#152937"/>
    <rect x="319" y="829.87" width="97.67" height="126.66" transform="translate(29.85 -11.72) rotate(1.9)" fill="#959db0"/>
    <rect x="337.66" y="844.07" width="60.34" height="87.6" transform="translate(-32.19 14.03) rotate(-2.09)" fill="#e2e2e6"/>
    <circle cx="365.37" cy="849.97" r="2.46" fill="#2a415b"/>
    <rect x="349.76" y="863.37" width="32.43" height="3.8" transform="translate(-31.36 13.95) rotate(-2.09)" fill="#959db0"/>
    <rect x="351.93" y="894.54" width="32.43" height="3.8" transform="translate(-32.5 14.05) rotate(-2.09)" fill="#959db0"/>
    <rect x="372.61" y="908.74" width="17.34" height="1.94" transform="translate(-32.97 14.53) rotate(-2.09)" fill="#959db0"/>
    <rect x="344.01" y="873.28" width="44.66" height="3.8" transform="translate(-31.72 13.97) rotate(-2.09)" fill="#959db0"/>
  </g>
  <g>
    <path d="m786.71,1129.98s-64.09-224.58,33.47-230.57c97.56-5.99,53.41,230.57,53.41,230.57h-86.88Z" fill="#067a61"/>
    <path d="m840.12,1129.98s-47-169.48,51.27-157.51c98.27,11.98,6.41,157.51,6.41,157.51h-57.68Z" fill="#098d73"/>
    <path d="m978.99,1129.98s81.18-13.77,56.26-62.88c-24.92-49.11-113.23-60.49-141-16.17-27.77,44.32-20.65,79.06-20.65,79.06h105.39Z" fill="#07ac85"/>
    <path d="m786.71,1129.98s-126.86,31.82-81.1-43.36c24.1-39.6,128.67-69.81,134.51,43.36.4,7.82-36.52,0-53.41,0Z" fill="#07ac85"/>
  </g>
  <rect x="90.93" y="1129.91" width="898.14" height="25.27" rx="12.32" ry="12.32" fill="#05614e"/>
</svg>