<?xml version="1.0" encoding="UTF-8"?>
<svg id="b" data-name="Warstwa 1" xmlns="http://www.w3.org/2000/svg" viewBox="0 0 62.56 62.56">
  <path d="m51.41,7.34C45.97,2.76,38.95,0,31.28,0,14,0,0,14,0,31.28c0,7.67,2.76,14.69,7.34,20.13,5.74,6.82,14.33,11.15,23.94,11.15,17.28,0,31.28-14,31.28-31.28,0-9.61-4.34-18.2-11.15-23.94Z" fill="#ffe400"/>
  <path d="m46.23,12.52c-4.1-3.27-9.29-5.23-14.95-5.23-13.25,0-23.99,10.74-23.99,23.99,0,5.65,1.96,10.85,5.23,14.95,4.4,5.51,11.16,9.04,18.76,9.04,13.25,0,23.99-10.74,23.99-23.99,0-7.6-3.53-14.36-9.04-18.76Z" fill="#faae00"/>
  <polygon points="34.67 24.1 34.67 24.08 34.67 14.54 27.89 14.54 27.89 24.1 19.53 24.1 19.53 30.87 27.88 30.87 27.89 30.87 27.89 48.02 34.67 48.02 34.67 30.87 43.03 30.87 43.03 24.1 34.67 24.1" fill="#ffe400"/>
  <path d="m31.28,0C14,0,0,14,0,31.28,0,38.95,2.76,45.97,7.34,51.41l5.18-5.18,15.36-15.36,6.79-6.79,11.56-11.56,5.18-5.18C45.97,2.76,38.95,0,31.28,0Z" fill="#fff" opacity=".3"/>
</svg>