<?xml version="1.0" encoding="UTF-8"?>
<svg id="b" data-name="Warstwa 1" xmlns="http://www.w3.org/2000/svg" viewBox="0 0 1080 80.11">
  <path d="m880.13,28.71c-3.33-12.77-12.28-23.26-23.99-28.71.08.41.08.73.08,1.14,0,5.44-.99,10.59-2.78,15.36H225.98c-1.8-4.79-2.79-9.98-2.79-15.36,0-.41,0-.73.08-1.14-11.79,5.45-20.74,15.94-23.99,28.71-4.39,3.09-8.22,6.91-11.22,11.31,3.01,4.39,6.83,8.3,11.22,11.39,3.33,12.77,12.28,23.26,23.99,28.71-.08-.41-.08-.73-.08-1.14,0-5.44.99-10.59,2.78-15.36h627.45c1.8,4.79,2.79,9.98,2.79,15.36,0,.4,0,.73-.08,1.14,11.79-5.45,20.74-15.94,23.99-28.71,4.39-3.09,8.22-6.91,11.22-11.31-3.01-4.39-6.83-8.3-11.22-11.39Z" fill="#fff"/>
</svg>