<?xml version="1.0" encoding="UTF-8"?>
<svg id="b" data-name="Warstwa 1" xmlns="http://www.w3.org/2000/svg" viewBox="0 0 131.58 246.73">
  <path d="m65.79,13.2h0c36.31,0,65.79,29.48,65.79,65.79v167.74H0V78.99C0,42.68,29.48,13.2,65.79,13.2Z" fill="#f9be9c"/>
  <rect x="13.34" y="7.67" width="104.89" height="138.19" rx="45.39" ry="45.39" fill="#e39466"/>
  <rect y="223.73" width="131.58" height="23" fill="#e39466"/>
  <rect x="13.34" y="0" width="104.89" height="138.19" rx="45.39" ry="45.39" fill="#f9d6c0"/>
  <path d="m105.57,124.24c-7.41-4.18-15.95-6.58-25.06-6.58h-29.43c-9.11,0-17.66,2.4-25.06,6.58,8.26,8.59,19.86,13.95,32.72,13.95h14.12c12.86,0,24.46-5.36,32.72-13.95Z" fill="#ffe8d9"/>
</svg>