<?xml version="1.0" encoding="UTF-8"?>
<svg id="b" data-name="Warstwa 1" xmlns="http://www.w3.org/2000/svg" viewBox="0 0 168.89 348.78">
  <path d="m84.44,13.2h0c36.31,0,65.79,29.48,65.79,65.79v269.46H18.66V78.99c0-36.31,29.48-65.79,65.79-65.79Z" fill="#f9be9c"/>
  <rect x="32" y="7.67" width="104.89" height="138.19" rx="45.39" ry="45.39" fill="#e39466"/>
  <rect x="32" y="0" width="104.89" height="138.19" rx="45.39" ry="45.39" fill="#f9d6c0"/>
  <path d="m124.22,124.24c-7.41-4.18-15.95-6.58-25.06-6.58h-29.43c-9.11,0-17.66,2.4-25.06,6.58,8.26,8.59,19.86,13.95,32.72,13.95h14.12c12.86,0,24.46-5.36,32.72-13.95Z" fill="#ffe8d9"/>
  <path d="m150.23,248.49v100.29H18.65v-100.32c19.61,6.32,42.01,9.91,65.8,9.92,23.78,0,46.17-3.58,65.78-9.89Z" fill="#e39466"/>
  <path d="m84.44,329.08c29.1,0,56.11,5.37,78.5,14.53,3.82-11.77,5.94-24.59,5.95-38.02,0-14.85-2.58-28.95-7.19-41.71-22.14,8.85-48.69,14.01-77.25,14.01-28.56,0-55.1-5.18-77.24-14.04C2.59,276.61,0,290.71,0,305.56c0,13.43,2.12,26.25,5.93,38.02,22.39-9.16,49.41-14.51,78.51-14.5Z" fill="#ffec33"/>
  <path d="m54.12,348.78h60.15c-2.9-14.14-4.48-29.28-4.48-45.05,0-29.1,5.36-56.11,14.52-78.5-11.77-3.82-24.59-5.94-38.02-5.94-14.85,0-28.95,2.58-41.71,7.2,8.85,22.14,14.02,48.69,14.02,77.24,0,15.77-1.58,30.91-4.48,45.05Z" fill="#ffec33"/>
</svg>