<?xml version="1.0" encoding="UTF-8"?>
<svg id="b" data-name="Warstwa 1" xmlns="http://www.w3.org/2000/svg" viewBox="0 0 259.51 197.39">
  <path d="m129.51,8.78c-4.85,0-8.78-3.93-8.78-8.78h-8.16c0,9.35,7.58,16.94,16.94,16.94s16.94-7.58,16.94-16.94h-8.16c0,4.85-3.93,8.78-8.78,8.78Z" fill="#9e9300"/>
  <circle cx="129.75" cy="157.57" r="16.94" fill="#857b00"/>
  <path d="m88.18,50.04c0,58.1-29.45,88.36-29.45,88.36h0c0,10.58,8.58,19.16,19.16,19.16h51.86s0-65.95,0-65.95V8.47c-22.96,0-41.58,18.61-41.58,41.58Z" fill="#edd800"/>
  <path d="m171.33,50.04c0,58.1,29.45,88.36,29.45,88.36h0c0,10.58-8.58,19.16-19.16,19.16h-51.86V8.47c22.96,0,41.58,18.61,41.58,41.58Z" fill="#c7b600"/>
  <path d="m58.73,138.41h71.03v19.16h-51.86c-10.58,0-19.16-8.59-19.16-19.16h0Z" fill="#c7b600"/>
  <path d="m129.75,138.41h71.03c0,10.58-8.59,19.16-19.16,19.16h-51.86v-19.16h0Z" fill="#9e9300"/>
  <path d="m129.75,75.07h-43.34c-3.3,0-5.91-2.8-5.67-6.09l1.16-16.09c.21-2.97,2.69-5.28,5.67-5.28h42.18v27.46Z" fill="#c7b600"/>
  <path d="m172.32,75.07h-42.57v-27.46h41.51c3.36,0,6.14,2.59,6.38,5.94l1.06,14.66c.27,3.71-2.67,6.86-6.38,6.86Z" fill="#9e9300"/>
</svg>