<?xml version="1.0" encoding="UTF-8"?>
<svg id="b" data-name="Warstwa 1" xmlns="http://www.w3.org/2000/svg" viewBox="0 0 259.51 197.39">
  <g>
    <polygon points="55.66 144.12 46.88 151.43 46.88 197.39 64.44 197.39 64.44 151.43 55.66 144.12" fill="#ebebf0"/>
    <polygon points="46.89 157.69 46.84 152.9 55.65 145.56 64.44 152.87 64.42 157.69 55.65 150.4 46.89 157.69" fill="#959bae"/>
    <polygon points="44.22 156.3 44.15 150.04 55.66 140.46 67.13 150.01 67.1 156.3 55.66 146.78 44.22 156.3" fill="#152937"/>
  </g>
  <g>
    <polygon points="203.89 144.12 195.11 151.43 195.11 197.39 212.67 197.39 212.67 151.43 203.89 144.12" fill="#ebebf0"/>
    <polygon points="195.12 157.69 195.07 152.9 203.89 145.56 212.67 152.87 212.65 157.69 203.89 150.4 195.12 157.69" fill="#959bae"/>
    <polygon points="192.45 156.3 192.38 150.04 203.89 140.46 215.36 150.01 215.33 156.3 203.89 146.78 192.45 156.3" fill="#152937"/>
  </g>
  <g>
    <polygon points="178.11 114.64 147.69 85.21 129.52 85.21 111.35 85.21 80.92 114.64 72.62 114.64 72.62 197.39 94.6 197.39 94.6 137.18 129.52 100.31 164.44 137.18 164.44 197.39 186.42 197.39 186.42 114.64 178.11 114.64" fill="#ebebf0"/>
    <path d="m99.7,197.39v-42.9c0-25.7,29.81-45.4,29.81-45.4,0,0,29.81,19.7,29.81,45.4v42.9h9.95v-42.9c0-31.45-30.57-50.92-32.01-51.87l-7.75-5.12-7.75,5.12c-1.44.95-32.01,20.42-32.01,51.87v42.9h9.95Z" fill="#959db0"/>
    <polygon points="129.52 38.78 110.38 54.65 110.38 85.21 129.52 85.21 148.65 85.21 148.65 54.65 129.52 38.78" fill="#ebebf0"/>
    <path d="m138.94,85.21v-15.81c0-6.57-7.41-11.31-7.73-11.51l-1.7-1.07-1.7,1.07c-.32.2-7.73,4.94-7.73,11.51v15.81h18.85Z" fill="#152937"/>
    <path d="m137.88,85.21v-14.03c0-5.83-6.58-10.04-6.86-10.21l-1.51-.95-1.51.95c-.28.18-6.86,4.39-6.86,10.21v14.03h16.73Z" fill="#2a415b"/>
    <polygon points="189.69 121.67 177.13 121.67 146.71 92.24 112.33 92.24 81.9 121.53 69.37 121.53 69.37 116.68 79.94 116.68 110.37 87.39 148.67 87.39 179.1 116.82 189.69 116.82 189.69 121.67" fill="#959bae"/>
    <polygon points="110.43 62.18 110.38 56.72 129.53 40.78 148.64 56.69 148.62 62.18 129.53 46.28 110.43 62.18" fill="#959bae"/>
    <g>
      <path d="m153.56,146.6v7.36l-5-6.51v-11.34l-2.26-2.01v10.41l-5-6.51v-11.88l-2.26-2.01v10.94l-5-6.51v-9.62l-2.26-2.01v80.48h2.26v-3.21h5v3.21h2.26v-3.21h5v3.21h2.26v-3.21h5v3.21h2.26v-48.78l-2.26-2.01Zm0,11.07v12.39h-5v-18.89l5,6.51Zm-7.26-9.45v21.84h-5v-28.35l5,6.51Zm-12.26-15.96l5,6.51v31.29h-5v-37.8Zm0,59.66v-19.59h5v19.59h-5Zm7.26,0v-19.59h5v19.59h-5Zm12.26,0h-5v-19.59h5v19.59Z" fill="#c4b500"/>
      <path d="m125,128.54l-5,6.51v-10.94l-2.26,2.01v11.88l-5,6.51v-10.41l-2.26,2.01v11.34l-5,6.51v-7.36l-2.26,2.01v48.78h2.26v-3.21h5v3.21h2.26v-3.21h5v3.21h2.26v-3.21h5v3.21h2.26v-80.48l-2.26,2.01v9.62Zm-7.26,13.17v28.35h-5v-21.84l5-6.51Zm-7.26,9.45v18.89h-5v-12.39l5-6.51Zm-5,40.75v-19.59h5v19.59h-5Zm7.26,0v-19.59h5v19.59h-5Zm7.26,0v-19.59h5v19.59h-5Zm0-21.86v-31.29l5-6.51v37.8h-5Z" fill="#edd800"/>
    </g>
    <polygon points="107.62 59.57 107.57 53.3 129.53 35.02 151.45 53.28 151.43 59.57 129.53 41.34 107.62 59.57" fill="#152937"/>
    <polygon points="189.69 117.06 177.13 117.06 146.71 87.64 112.33 87.64 81.9 116.93 69.37 116.93 69.37 112.07 79.94 112.07 110.37 82.79 148.67 82.79 179.1 112.21 189.69 112.21 189.69 117.06" fill="#152937"/>
    <g>
      <polygon points="195.09 87.19 186.31 94.5 186.31 197.39 203.87 197.39 203.87 94.5 195.09 87.19" fill="#ceced9"/>
      <polygon points="195.09 104.6 192.13 107.06 192.13 190.95 198.05 190.95 198.05 107.06 195.09 104.6" fill="#ebebf0"/>
      <polygon points="186.32 100.76 186.27 95.97 195.09 88.63 203.87 95.94 203.85 100.76 195.09 93.47 186.32 100.76" fill="#959bae"/>
      <polygon points="183.65 99.37 183.58 93.12 195.09 83.53 206.56 93.08 206.53 99.37 195.09 89.85 183.65 99.37" fill="#152937"/>
    </g>
    <g>
      <polygon points="64.42 87.19 55.64 94.5 55.64 197.39 73.2 197.39 73.2 94.5 64.42 87.19" fill="#ceced9"/>
      <polygon points="64.42 104.6 61.46 107.06 61.46 190.95 67.38 190.95 67.38 107.06 64.42 104.6" fill="#ebebf0"/>
      <polygon points="55.65 100.76 55.6 95.97 64.41 88.63 73.2 95.94 73.17 100.76 64.41 93.47 55.65 100.76" fill="#959bae"/>
      <polygon points="52.98 99.37 52.91 93.12 64.42 83.53 75.89 93.08 75.86 99.37 64.42 89.85 52.98 99.37" fill="#152937"/>
    </g>
  </g>
  <g>
    <rect x="75.89" y="188.96" width="2.58" height="4.79" fill="#8c6239"/>
    <rect x="69.87" y="192.48" width="14.61" height="4.91" fill="#959db0"/>
    <path d="m69.91,162.28c0,2.79.28,20.34.8,22.9,1.43,7.05,11.5,7.05,12.94,0,.52-2.56.8-20.11.8-22.9,0-8.88-2.82-16.84-7.27-22.24-4.45,5.39-7.27,13.35-7.27,22.24Z" fill="#098d73"/>
    <path d="m70.53,184.23c.06.32.12.64.18.95,1.43,7.05,11.5,7.05,12.94,0,.06-.32.12-.63.18-.95-3.75,3.12-9.55,3.12-13.3,0Z" fill="#067a61"/>
  </g>
  <g>
    <rect x="180.4" y="188.96" width="2.58" height="4.79" fill="#8c6239"/>
    <rect x="174.38" y="192.48" width="14.61" height="4.91" fill="#959db0"/>
    <path d="m174.42,162.28c0,2.79.28,20.34.8,22.9,1.43,7.05,11.5,7.05,12.94,0,.52-2.56.8-20.11.8-22.9,0-8.88-2.82-16.84-7.27-22.24-4.45,5.39-7.27,13.35-7.27,22.24Z" fill="#098d73"/>
    <path d="m175.04,184.23c.06.32.12.64.18.95,1.43,7.05,11.5,7.05,12.94,0,.06-.32.12-.63.18-.95-3.75,3.12-9.55,3.12-13.3,0Z" fill="#067a61"/>
  </g>
</svg>