<?xml version="1.0" encoding="UTF-8"?>
<svg id="b" data-name="Warstwa 1" xmlns="http://www.w3.org/2000/svg" viewBox="0 0 259.51 197.39">
  <rect x="89.77" y="53.61" width="79.97" height="133.87" fill="#948063"/>
  <rect x="85.02" y="46.9" width="89.47" height="6.71" fill="#ada08e"/>
  <rect x="89.77" y="53.61" width="79.97" height="3.36" fill="#5e513e"/>
  <rect x="96.48" y="63.22" width="66.55" height="65.22" fill="#5e513e"/>
  <path d="m96.48,128.64h66.55v2.68c0,3.15-2.56,5.71-5.71,5.71h-55.12c-3.15,0-5.71-2.56-5.71-5.71v-2.68h0Z" fill="#5e513e"/>
  <polygon points="214.19 187.48 169.74 187.48 169.74 95.05 214.19 130.72 214.19 187.48" fill="#7d6c51"/>
  <polygon points="45.31 187.48 89.77 187.48 89.77 95.05 45.31 130.72 45.31 187.48" fill="#7d6c51"/>
  <polygon points="56.11 176.07 78.98 176.07 78.98 120.55 56.11 138.9 56.11 176.07" fill="#948063"/>
  <polygon points="203.4 176.07 180.53 176.07 180.53 120.55 203.4 138.9 203.4 176.07" fill="#948063"/>
  <rect x="39.61" y="187.48" width="180.29" height="10.23" fill="#ada08e"/>
  <path d="m96.48,63.22h33.22v6.78c0,42.51-20.47,58.64-20.47,58.64h-12.75V63.22Z" fill="#ad334c"/>
  <path d="m162.97,63.22h-33.22v6.78c0,42.51,20.47,58.64,20.47,58.64h12.75V63.22Z" fill="#ad334c"/>
  <g>
    <rect x="126.95" y="141.27" width="5.6" height="46.22" fill="#edd800"/>
    <rect x="126.95" y="143.67" width="5.6" height="28.01" transform="translate(287.43 27.92) rotate(90)" fill="#edd800"/>
  </g>
  <g>
    <path d="m100.95,124.17h57.54c2.47,0,4.47,2,4.47,4.47h-66.49c0-2.47,2-4.47,4.47-4.47Z" fill="#d14967"/>
    <path d="m100.95,128.64h57.54c2.47,0,4.47,2,4.47,4.47h-66.49c0-2.47,2-4.47,4.47-4.47Z" transform="translate(259.45 261.76) rotate(180)" fill="#ad334c"/>
  </g>
  <g>
    <path d="m123.82,63.22s.45,29.55-16.27,53.59c10.94-25.07,10.74-53.59,10.74-53.59h5.53Z" fill="#d14967"/>
    <path d="m109.26,63.22s.2,29.55-7.33,53.59c4.93-25.07,4.84-53.59,4.84-53.59h2.49Z" fill="#d14967"/>
  </g>
  <g>
    <path d="m135.83,63.22s-.45,29.55,16.27,53.59c-10.94-25.07-10.74-53.59-10.74-53.59h-5.53Z" fill="#d14967"/>
    <path d="m150.4,63.22s-.2,29.55,7.33,53.59c-4.93-25.07-4.84-53.59-4.84-53.59h-2.49Z" fill="#d14967"/>
  </g>
  <rect x="96.14" y="63.22" width="66.83" height="3.13" fill="#8f293f"/>
  <polygon points="78.98 125.03 78.98 120.55 56.11 138.9 56.11 143.38 78.98 125.03" fill="#5e513e"/>
  <polygon points="180.53 125.03 180.53 120.55 203.4 138.9 203.4 143.38 180.53 125.03" fill="#5e513e"/>
  <polygon points="89.77 95.05 85.67 98.34 85.67 187.48 89.77 187.48 89.77 95.05" fill="#5e513e"/>
  <polygon points="169.74 95.05 173.84 98.34 173.84 187.48 169.74 187.48 169.74 95.05" fill="#5e513e"/>
</svg>