<?xml version="1.0" encoding="UTF-8"?>
<svg id="b" data-name="Warstwa 1" xmlns="http://www.w3.org/2000/svg" viewBox="0 0 259.51 197.39">
  <g>
    <circle cx="160.12" cy="76.79" r="6.69" fill="#07ac85"/>
    <circle cx="160.38" cy="85.31" r="6.69" fill="#067a61"/>
  </g>
  <g>
    <circle cx="92.72" cy="94.06" r="6.69" fill="#07ac85"/>
    <circle cx="85.79" cy="99.02" r="6.69" fill="#098d73"/>
  </g>
  <g>
    <path d="m89.87,197.27s15.42-6.22,13.22-29.75c-2.2-23.53-25.01-6.72-13.22,29.75Z" fill="#58893e"/>
    <path d="m89.87,197.27s2.96-62.39-14.79-64.07-1.01,64.07-1.01,64.07h15.81Z" fill="#067a61"/>
    <path d="m80.15,197.27s7.69-50.87-9.33-44.2c-30.16,11.83-1.17,44.2-1.17,44.2h10.49Z" fill="#098d73"/>
    <path d="m54.89,197.27s-14.77-2.35-10.24-10.74c4.53-8.39,20.6-10.33,25.65-2.76,5.05,7.57,3.76,13.5,3.76,13.5h-19.17Z" fill="#07ac85"/>
  </g>
  <g>
    <polygon points="177.55 119.44 82.65 119.44 130.1 50.99 177.55 119.44" fill="#fbfbfb"/>
    <g>
      <rect x="126.05" y="43.66" width="6.69" height="27.41" transform="translate(258.8 114.73) rotate(180)" fill="#f2f2f2"/>
      <rect x="112.67" y="84.71" width="6.69" height="36.64" transform="translate(239.77 196.63) rotate(175.5)" fill="#f2f2f2"/>
      <rect x="154.21" y="79.39" width="6.69" height="40.05" transform="translate(315.12 198.82) rotate(180)" fill="#f2f2f2"/>
      <rect x="132.75" y="49.05" width="6.69" height="42.76" transform="translate(272.18 140.85) rotate(180)" fill="#e2e2e6"/>
      <rect x="119.36" y="50.99" width="6.69" height="44.29" transform="translate(245.42 146.27) rotate(180)" fill="#e2e2e6"/>
      <rect x="167.59" y="99.01" width="6.69" height="20.48" transform="translate(341.88 218.5) rotate(180)" fill="#e2e2e6"/>
    </g>
    <rect x="85.91" y="119.44" width="88.38" height="74.55" fill="#e2e2e6"/>
    <rect x="85.91" y="119.44" width="88.38" height="4.23" fill="#959bae"/>
    <rect x="85.91" y="193.99" width="88.38" height="3.4" fill="#959db0"/>
    <rect x="116.07" y="140.88" width="28.05" height="53.1" fill="#2a415b"/>
    <rect x="116.07" y="140.88" width="28.05" height="4.31" fill="#152937"/>
    <path d="m116.07,171.35h.11c4.06,0,7.36,3.3,7.36,7.36v15.28h-7.47v-22.64h0Z" fill="#152937"/>
    <path d="m144.01,171.35h.11v22.64h-7.47v-15.28c0-4.06,3.3-7.36,7.36-7.36Z" fill="#152937"/>
    <polygon points="147.52 193.99 144.12 193.99 144.12 140.88 116.07 140.88 116.07 193.99 112.67 193.99 112.67 137.48 147.52 137.48 147.52 193.99" fill="#959db0"/>
    <g>
      <rect x="92.6" y="123.66" width="6.69" height="46.7" fill="#f2f2f2"/>
      <rect x="105.98" y="123.66" width="6.69" height="62.91" fill="#f2f2f2"/>
      <rect x="86.01" y="121.97" width="6.69" height="35.46" transform="translate(18.18 -10.08) rotate(7.19)" fill="#fbfbfb"/>
      <rect x="99.29" y="123.66" width="6.69" height="19.68" fill="#fbfbfb"/>
      <rect x="126.43" y="123.66" width="6.69" height="13.82" fill="#f2f2f2"/>
    </g>
    <g>
      <rect x="154.21" y="123.66" width="6.69" height="18.99" fill="#f2f2f2"/>
      <rect x="167.59" y="123.66" width="6.69" height="62.22" fill="#f2f2f2"/>
      <rect x="147.52" y="123.66" width="6.69" height="33.08" fill="#fbfbfb"/>
      <rect x="161.13" y="128.86" width="6.69" height="40.81" transform="translate(-11.21 13.38) rotate(-4.5)" fill="#fbfbfb"/>
    </g>
    <circle cx="130.1" cy="94.77" r="8.92" fill="#152937"/>
    <circle cx="130.13" cy="96.01" r="8.05" fill="#2a415b"/>
    <path d="m130.1,106.03c-6.21,0-11.26-5.05-11.26-11.26s5.05-11.26,11.26-11.26,11.26,5.05,11.26,11.26-5.05,11.26-11.26,11.26Zm0-20.18c-4.92,0-8.92,4-8.92,8.92s4,8.92,8.92,8.92,8.92-4,8.92-8.92-4-8.92-8.92-8.92Z" fill="#959db0"/>
    <polygon points="183.32 119.44 177.55 119.44 130.1 50.99 82.65 119.44 76.87 119.44 130.1 42.67 183.32 119.44" fill="#959bae"/>
    <g>
      <rect x="117" y="22.94" width="26.19" height="3.17" transform="translate(93.53 151.76) rotate(-84.64)" fill="#2a415b"/>
      <rect x="128.86" y="12.81" width="3.17" height="15.87" transform="translate(97.61 148.69) rotate(-84.64)" fill="#2a415b"/>
    </g>
    <polygon points="130.1 34.67 74.57 114.76 74.57 126.3 130.1 46.2 185.62 126.3 185.62 114.76 130.1 34.67" fill="#152937"/>
    <polygon points="130.1 34.67 74.57 114.76 74.57 126.3 130.1 46.2 130.1 34.67" fill="#36424f"/>
    <rect x="129.64" y="87.53" width=".97" height="16.15" fill="#152937"/>
    <rect x="129.64" y="87.25" width=".97" height="16.71" transform="translate(225.73 -34.52) rotate(90)" fill="#152937"/>
    <rect x="91.98" y="145.87" width="16.76" height="21.74" transform="translate(5.26 -3.24) rotate(1.9)" fill="#959db0"/>
    <rect x="95.18" y="148.31" width="10.36" height="15.03" transform="translate(-5.62 3.77) rotate(-2.09)" fill="#e2e2e6"/>
    <circle cx="99.93" cy="149.32" r=".42" fill="#2a415b"/>
    <rect x="97.26" y="151.62" width="5.57" height=".65" transform="translate(-5.48 3.76) rotate(-2.09)" fill="#959db0"/>
    <rect x="97.63" y="156.97" width="5.57" height=".65" transform="translate(-5.68 3.77) rotate(-2.09)" fill="#959db0"/>
    <rect x="101.18" y="159.41" width="2.98" height=".33" transform="translate(-5.76 3.86) rotate(-2.09)" fill="#959db0"/>
    <rect x="96.27" y="153.32" width="7.67" height=".65" transform="translate(-5.55 3.76) rotate(-2.09)" fill="#959db0"/>
  </g>
  <g>
    <path d="m172.25,197.38s-11-38.54,5.74-39.57c16.74-1.03,9.17,39.57,9.17,39.57h-14.91Z" fill="#067a61"/>
    <path d="m181.41,197.38s-8.07-29.09,8.8-27.03c16.87,2.06,1.1,27.03,1.1,27.03h-9.9Z" fill="#098d73"/>
    <path d="m205.25,197.38s13.93-2.36,9.66-10.79c-4.28-8.43-19.43-10.38-24.2-2.78-4.77,7.61-3.54,13.57-3.54,13.57h18.09Z" fill="#07ac85"/>
    <path d="m172.25,197.38s-18.42.3-13.92-7.44c4-6.88,22.08-11.98,23.09,7.44h-9.17Z" fill="#07ac85"/>
  </g>
</svg>