<?xml version="1.0" encoding="UTF-8"?>
<svg id="b" data-name="Warstwa 1" xmlns="http://www.w3.org/2000/svg" viewBox="0 0 259.51 197.39">
  <g>
    <path d="m151.22,79.7l-16.68-14.44s-8.38,19-32.53,30.57c3.17,8.56,6.96,16.5,6.96,16.5,0,0,26.37-2.51,42.25-32.62Z" fill="#99ce64"/>
    <path d="m195.06,94.46l-17.8-13.04s-6.8,19.62-29.94,33.11c3.86,8.28,8.28,15.87,8.28,15.87,0,0,26.08-4.65,39.46-35.94Z" fill="#64a040"/>
    <path d="m142.49,77.48l-13.64,17.35s19.37,7.46,32.08,31.04c8.4-3.57,16.15-7.73,16.15-7.73,0,0-3.76-26.22-34.59-40.66Z" fill="#64a040"/>
    <path d="m84.7,111.8l15.91,15.29s9.35-18.54,34.07-28.84c-2.72-8.72-6.1-16.83-6.1-16.83,0,0-26.47,1.14-43.88,30.39Z" fill="#64a040"/>
    <path d="m177.08,96.9l-10.48-19.42s-14.56,14.8-41.25,17.06c-.07,9.13.66,17.89.66,17.89,0,0,25.55,6.99,51.07-15.53Z" fill="#99ce64"/>
    <path d="m91.29,87.14l18.12-12.59s6.31,19.78,29.09,33.85c-4.06,8.18-8.67,15.66-8.67,15.66,0,0-25.95-5.3-38.54-36.92Z" fill="#99ce64"/>
    <path d="m67.79,102.71l11.2-19.01s14,15.33,40.58,18.59c-.27,9.13-1.33,17.85-1.33,17.85,0,0-25.79,6.03-50.45-17.43Z" fill="#64a040"/>
  </g>
  <g>
    <path d="m108.27,104.92l19.93-17.26s10.01,22.7,38.87,36.52c-3.79,10.23-8.31,19.71-8.31,19.71,0,0-31.51-3-50.48-38.97Z" fill="#99ce64"/>
    <path d="m57.34,114.34l21.27-15.58s8.13,23.44,35.77,39.56c-4.61,9.89-9.89,18.97-9.89,18.97,0,0-31.16-5.55-47.15-42.95Z" fill="#64a040"/>
    <path d="m118.69,102.27l16.29,20.73s-23.15,8.92-38.33,37.09c-10.04-4.27-19.29-9.24-19.29-9.24,0,0,4.5-31.33,41.33-48.58Z" fill="#64a040"/>
    <path d="m187.74,143.27l-19.01,18.27s-11.17-22.15-40.7-34.46c3.25-10.41,7.28-20.11,7.28-20.11,0,0,31.62,1.37,52.43,36.31Z" fill="#64a040"/>
    <path d="m77.36,125.47l12.52-23.2s17.4,17.68,49.28,20.38c.08,10.91-.79,21.38-.79,21.38,0,0-30.53,8.36-61.02-18.55Z" fill="#99ce64"/>
    <path d="m179.87,113.8l-21.66-15.04s-7.54,23.64-34.76,40.45c4.85,9.77,10.36,18.71,10.36,18.71,0,0,31.01-6.34,46.05-44.12Z" fill="#99ce64"/>
    <path d="m205.96,127.13l-13.38-22.72s-16.73,18.32-48.49,22.21c.32,10.91,1.59,21.33,1.59,21.33,0,0,30.82,7.21,60.28-20.82Z" fill="#64a040"/>
  </g>
  <path d="m171.67,197.39h-83.83c-11.72,0-22.06-7.66-25.48-18.87l-12.54-41.15h159.87l-12.54,41.15c-3.42,11.21-13.76,18.87-25.48,18.87Z" fill="#7d6c51"/>
  <polygon points="203.56 157.49 209.69 137.37 49.82 137.37 55.95 157.49 203.56 157.49" fill="#5e513e"/>
  <rect x="37.08" y="128.02" width="185.34" height="18.7" rx="9.35" ry="9.35" fill="#aba49a"/>
  <rect x="37.08" y="128.02" width="185.34" height="18.7" rx="9.35" ry="9.35" fill="#948063"/>
  <path d="m50.5,122.94h158.51c2.8,0,5.08,2.28,5.08,5.08H45.42c0-2.8,2.28-5.08,5.08-5.08Z" fill="#ad334c"/>
  <path d="m222.42,137.37h0c0-5.16-4.19-9.35-9.35-9.35H46.43c-5.16,0-9.35,4.19-9.35,9.35h0s185.34,0,185.34,0Z" fill="#ada08e"/>
</svg>