<?xml version="1.0" encoding="UTF-8"?>
<svg id="b" data-name="Warstwa 1" xmlns="http://www.w3.org/2000/svg" viewBox="0 0 259.51 197.39">
  <circle cx="48.91" cy="87.18" r="8.15" fill="#ada08e"/>
  <circle cx="210.6" cy="87.18" r="8.15" fill="#ada08e"/>
  <path d="m40.75,87.18c4.22,0,12.14,0,16.31,0,0,4.5-3.65,8.15-8.15,8.15-4.5,0-8.15-3.65-8.15-8.15Z" fill="#9e8b6f"/>
  <path d="m202.45,87.18c4.49,0,11.44,0,16.31,0,0,4.5-3.65,8.15-8.15,8.15-4.5,0-8.15-3.65-8.15-8.15Z" fill="#9e8b6f"/>
  <rect x="54.58" y="150.17" width="150.34" height="12.36" fill="#948063"/>
  <rect x="43.23" y="162.54" width="11.35" height="26.54" fill="#7d6c51"/>
  <rect x="43.23" y="189.08" width="11.35" height="8.31" fill="#ada08e"/>
  <rect x="43.23" y="131.63" width="11.35" height="30.91" fill="#9e8b6f"/>
  <path d="m48.91,93.89h0c3.13,0,5.68,2.54,5.68,5.68v32.06h-11.35v-32.06c0-3.13,2.54-5.68,5.68-5.68Z" fill="#7d6c51"/>
  <rect x="54.58" y="100.29" width="150.34" height="49.88" fill="#ada08e"/>
  <g>
    <path d="m68.17,145.91h123.17c2.35,0,4.26,1.91,4.26,4.26H63.9c0-2.35,1.91-4.26,4.26-4.26Z" fill="#d14967"/>
    <path d="m68.17,150.17h123.17c2.35,0,4.26,1.91,4.26,4.26H63.9c0-2.35,1.91-4.26,4.26-4.26Z" transform="translate(259.51 304.61) rotate(180)" fill="#ad334c"/>
  </g>
  <path d="m68.17,96.03h123.17c2.35,0,4.26,1.91,4.26,4.26H63.9c0-2.35,1.91-4.26,4.26-4.26Z" fill="#d14967"/>
  <rect x="204.92" y="162.54" width="11.35" height="26.54" fill="#7d6c51"/>
  <rect x="204.92" y="189.08" width="11.35" height="8.31" fill="#ada08e"/>
  <rect x="204.92" y="131.63" width="11.35" height="30.91" fill="#9e8b6f"/>
  <path d="m210.6,93.89h0c3.13,0,5.68,2.54,5.68,5.68v32.06h-11.35v-32.06c0-3.13,2.54-5.68,5.68-5.68Z" fill="#7d6c51"/>
  <path d="m63.9,100.29v34.41c0,2.25,1.82,4.07,4.07,4.07h123.56c2.25,0,4.07-1.82,4.07-4.07v-34.41H63.9Z" fill="#ad334c"/>
  <path d="m47.5,127.36h2.82c2.35,0,4.26,1.91,4.26,4.26h-11.35c0-2.35,1.91-4.26,4.26-4.26Z" fill="#d14967"/>
  <path d="m47.5,131.63h2.82c2.35,0,4.26,1.91,4.26,4.26h-11.35c0-2.35,1.91-4.26,4.26-4.26Z" transform="translate(97.82 267.52) rotate(180)" fill="#ad334c"/>
  <path d="m209.19,127.36h2.82c2.35,0,4.26,1.91,4.26,4.26h-11.35c0-2.35,1.91-4.26,4.26-4.26Z" fill="#d14967"/>
  <path d="m209.19,131.63h2.82c2.35,0,4.26,1.91,4.26,4.26h-11.35c0-2.35,1.91-4.26,4.26-4.26Z" transform="translate(421.2 267.52) rotate(180)" fill="#ad334c"/>
  <rect x="54.58" y="162.54" width="150.34" height="26.54" fill="#5e513e"/>
  <rect x="54.58" y="189.08" width="150.34" height="8.31" fill="#7d6c51"/>
  <g>
    <g>
      <path d="m86.32,113.57c-1.52,1.52-2.43,3.42-2.73,5.39,1.97-.3,3.87-1.21,5.39-2.73,1.52-1.52,2.43-3.42,2.73-5.39-1.97.3-3.87,1.21-5.39,2.73Z" fill="#d14967"/>
      <path d="m78.19,121.7c-1.52,1.52-2.43,3.42-2.73,5.39,1.97-.3,3.87-1.21,5.39-2.73s2.43-3.42,2.73-5.39c-1.97.3-3.87,1.21-5.39,2.73Z" fill="#d14967"/>
      <path d="m88.98,121.7c-1.52-1.52-3.42-2.43-5.39-2.73.3,1.97,1.21,3.87,2.73,5.39s3.42,2.43,5.39,2.73c-.3-1.97-1.21-3.87-2.73-5.39Z" fill="#d14967"/>
      <path d="m80.85,113.57c-1.52-1.52-3.42-2.43-5.39-2.73.3,1.97,1.21,3.87,2.73,5.39,1.52,1.52,3.42,2.43,5.39,2.73-.3-1.97-1.21-3.87-2.73-5.39Z" fill="#d14967"/>
    </g>
    <g>
      <path d="m117.1,113.57c-1.52,1.52-2.43,3.42-2.73,5.39,1.97-.3,3.87-1.21,5.39-2.73,1.52-1.52,2.43-3.42,2.73-5.39-1.97.3-3.87,1.21-5.39,2.73Z" fill="#d14967"/>
      <path d="m108.97,121.7c-1.52,1.52-2.43,3.42-2.73,5.39,1.97-.3,3.87-1.21,5.39-2.73s2.43-3.42,2.73-5.39c-1.97.3-3.87,1.21-5.39,2.73Z" fill="#d14967"/>
      <path d="m119.76,121.7c-1.52-1.52-3.42-2.43-5.39-2.73.3,1.97,1.21,3.87,2.73,5.39s3.42,2.43,5.39,2.73c-.3-1.97-1.21-3.87-2.73-5.39Z" fill="#d14967"/>
      <path d="m111.63,113.57c-1.52-1.52-3.42-2.43-5.39-2.73.3,1.97,1.21,3.87,2.73,5.39,1.52,1.52,3.42,2.43,5.39,2.73-.3-1.97-1.21-3.87-2.73-5.39Z" fill="#d14967"/>
    </g>
    <g>
      <path d="m147.88,113.57c-1.52,1.52-2.43,3.42-2.73,5.39,1.97-.3,3.87-1.21,5.39-2.73,1.52-1.52,2.43-3.42,2.73-5.39-1.97.3-3.87,1.21-5.39,2.73Z" fill="#d14967"/>
      <path d="m139.75,121.7c-1.52,1.52-2.43,3.42-2.73,5.39,1.97-.3,3.87-1.21,5.39-2.73,1.52-1.52,2.43-3.42,2.73-5.39-1.97.3-3.87,1.21-5.39,2.73Z" fill="#d14967"/>
      <path d="m150.54,121.7c-1.52-1.52-3.42-2.43-5.39-2.73.3,1.97,1.21,3.87,2.73,5.39s3.42,2.43,5.39,2.73c-.3-1.97-1.21-3.87-2.73-5.39Z" fill="#d14967"/>
      <path d="m142.41,113.57c-1.52-1.52-3.42-2.43-5.39-2.73.3,1.97,1.21,3.87,2.73,5.39s3.42,2.43,5.39,2.73c-.3-1.97-1.21-3.87-2.73-5.39Z" fill="#d14967"/>
    </g>
    <g>
      <path d="m178.66,113.57c-1.52,1.52-2.43,3.42-2.73,5.39,1.97-.3,3.87-1.21,5.39-2.73,1.52-1.52,2.43-3.42,2.73-5.39-1.97.3-3.87,1.21-5.39,2.73Z" fill="#d14967"/>
      <path d="m170.53,121.7c-1.52,1.52-2.43,3.42-2.73,5.39,1.97-.3,3.87-1.21,5.39-2.73,1.52-1.52,2.43-3.42,2.73-5.39-1.97.3-3.87,1.21-5.39,2.73Z" fill="#d14967"/>
      <path d="m181.31,121.7c-1.52-1.52-3.42-2.43-5.39-2.73.3,1.97,1.21,3.87,2.73,5.39s3.42,2.43,5.39,2.73c-.3-1.97-1.21-3.87-2.73-5.39Z" fill="#d14967"/>
      <path d="m173.19,113.57c-1.52-1.52-3.42-2.43-5.39-2.73.3,1.97,1.21,3.87,2.73,5.39,1.52,1.52,3.42,2.43,5.39,2.73-.3-1.97-1.21-3.87-2.73-5.39Z" fill="#d14967"/>
    </g>
  </g>
</svg>