<?xml version="1.0" encoding="UTF-8"?>
<svg id="b" data-name="Warstwa 1" xmlns="http://www.w3.org/2000/svg" viewBox="0 0 259.51 197.39">
  <rect x="121.62" y="43.06" width="16.27" height="78.99" transform="translate(212.31 -47.2) rotate(90)" fill="#edd800"/>
  <rect x="122.05" y="43.06" width="16.27" height="143.72" fill="#edd800"/>
  <path d="m149.03,44.16c-.19-.04-.34-.04-.53-.04-3.33,0-6.51.8-9.3,2.22-3.83,1.88-6.96,4.94-8.99,8.69-2.03-3.75-5.2-6.81-9.03-8.69-2.79-1.42-5.93-2.22-9.3-2.22-.19,0-.34,0-.53.04,2.56-5.51,7.5-9.72,13.51-11.29,1.45-2.07,3.29-3.87,5.36-5.28,2.07,1.42,3.87,3.21,5.32,5.28,6.01,1.53,10.95,5.74,13.51,11.29Z" fill="#edd800"/>
  <path d="m130.2,55.03c-2.03-3.75-5.2-6.81-9.03-8.69-2.79-1.42-5.93-2.22-9.3-2.22-.19,0-.34,0-.53.04,2.56-5.51,7.5-9.72,13.51-11.29,1.45-2.07,3.29-3.87,5.36-5.28v27.44Z" fill="#c4b500"/>
  <path d="m167.57,101.4c.04-.19.04-.34.04-.53,0-3.33-.8-6.51-2.22-9.3-1.88-3.83-4.94-6.96-8.69-8.99,3.75-2.03,6.81-5.2,8.69-9.03,1.42-2.79,2.22-5.93,2.22-9.3,0-.19,0-.34-.04-.53,5.51,2.56,9.72,7.5,11.29,13.51,2.07,1.45,3.87,3.29,5.28,5.36-1.42,2.07-3.21,3.87-5.28,5.32-1.53,6.01-5.74,10.95-11.29,13.51Z" fill="#edd800"/>
  <path d="m91.94,63.71c-.04.19-.04.34-.04.53,0,3.33.8,6.51,2.22,9.3,1.88,3.83,4.94,6.96,8.69,8.99-3.75,2.03-6.81,5.2-8.69,9.03-1.42,2.79-2.22,5.93-2.22,9.3,0,.19,0,.34.04.53-5.51-2.56-9.72-7.5-11.29-13.51-2.07-1.45-3.87-3.29-5.28-5.36,1.42-2.07,3.21-3.87,5.28-5.32,1.53-6.01,5.74-10.95,11.29-13.51Z" fill="#edd800"/>
  <path d="m169.25,82.57h-30.94l-8.56,8.11h35.17c.16.29.32.58.46.88,1.42,2.79,2.22,5.97,2.22,9.3,0,.19,0,.34-.04.53,5.55-2.56,9.76-7.5,11.29-13.51,2.07-1.45,3.87-3.25,5.28-5.32h-14.89Z" fill="#c4b500"/>
  <path d="m90.51,82.57h30.94l8.56,8.11h-35.17c-.16.29-.32.58-.46.88-1.42,2.79-2.22,5.97-2.22,9.3,0,.19,0,.34.04.53-5.55-2.56-9.76-7.5-11.29-13.51-2.07-1.45-3.87-3.25-5.28-5.32h14.89Z" fill="#c4b500"/>
  <rect x="130" y="90.69" width="8.31" height="88.03" fill="#c4b500"/>
  <g>
    <polygon points="129.75 160.05 129.75 187.31 112.01 197.39 64.06 197.39 129.75 160.05" fill="#36424f"/>
    <polygon points="129.75 160.05 129.75 187.31 147.5 197.39 195.45 197.39 129.75 160.05" fill="#152937"/>
    <polygon points="112.01 197.39 147.5 197.39 129.75 187.31 112.01 197.39" fill="#959bae"/>
  </g>
  <polygon points="130.2 82.57 122.05 74.42 122.05 46.8 130.2 27.59 130.2 82.57" fill="#c4b500"/>
</svg>