<?xml version="1.0" encoding="UTF-8"?>
<svg id="b" data-name="Warstwa 1" xmlns="http://www.w3.org/2000/svg" viewBox="0 0 259.51 197.39">
  <circle cx="85.67" cy="99.15" r="32.14" fill="#ffffdb"/>
  <circle cx="129.64" cy="55.41" r="32.14" fill="#ffffdb"/>
  <circle cx="173.84" cy="82.4" r="32.14" fill="#ffffdb"/>
  <path d="m76.93,117.17h17.47c4.72,0,8.56,3.83,8.56,8.56v71.66h-34.59v-71.66c0-4.72,3.83-8.56,8.56-8.56Z" fill="#ebdc98"/>
  <path d="m85.67,85.61s-6.77,13.99-6.77,20.12,6.77,6.95,6.77,6.95c0,0,6.77-.81,6.77-6.95s-6.77-20.12-6.77-20.12Z" fill="#ffee4e"/>
  <path d="m120.91,74.33h17.47c4.72,0,8.56,3.83,8.56,8.56v114.51h-34.59v-114.51c0-4.72,3.83-8.56,8.56-8.56Z" fill="#ebdc98"/>
  <path d="m129.64,42.77s-6.77,13.99-6.77,20.12,6.77,6.95,6.77,6.95c0,0,6.77-.81,6.77-6.95s-6.77-20.12-6.77-20.12Z" fill="#ffee4e"/>
  <path d="m165.1,101.39h17.47c4.72,0,8.56,3.83,8.56,8.56v87.44h-34.59v-87.44c0-4.72,3.83-8.56,8.56-8.56Z" fill="#ebdc98"/>
  <path d="m173.84,69.84s-6.77,13.99-6.77,20.12,6.77,6.95,6.77,6.95c0,0,6.77-.81,6.77-6.95s-6.77-20.12-6.77-20.12Z" fill="#ffee4e"/>
  <path d="m68.06,138.69c0,5.8-6.34,16.95,0,16.95s4.93-24.65,4.93-24.65v-3.45c0-1.47,1.2-2.67,2.67-2.67h0c1.47,0,2.67,1.2,2.67,2.67v14.29c0,1.56,1.27,2.83,2.83,2.83h0c1.56,0,2.83-1.27,2.83-2.83v-14.5c0-1.36,1.1-2.45,2.45-2.45h0c1.36,0,2.45,1.1,2.45,2.45v3.53c0,1.46,1.19,2.65,2.65,2.65h0c1.46,0,2.65-1.19,2.65-2.65v-3.71c0-1.26,1.02-2.28,2.28-2.28h0c1.26,0,2.28,1.02,2.28,2.28v25.4c0,11.15.61,16.18,4.22,16.18,6.58,0,.33-15.79.33-25.08v-20.21c0-3.46-2.8-6.26-6.26-6.26h-22.71c-3.46,0-6.26,2.8-6.26,6.26v15.25Z" fill="#e3c654"/>
  <path d="m156.13,122.91c0,5.8-6.34,16.95,0,16.95s4.93-24.65,4.93-24.65v-3.45c0-1.47,1.2-2.67,2.67-2.67h0c1.47,0,2.67,1.2,2.67,2.67v14.29c0,1.56,1.27,2.83,2.83,2.83h0c1.56,0,2.83-1.27,2.83-2.83v-14.5c0-1.36,1.1-2.45,2.45-2.45h0c1.36,0,2.45,1.1,2.45,2.45v3.53c0,1.46,1.19,2.65,2.65,2.65h0c1.46,0,2.65-1.19,2.65-2.65v-3.71c0-1.26,1.02-2.28,2.28-2.28h0c1.26,0,2.28,1.02,2.28,2.28v25.4c0,11.15.61,16.18,4.22,16.18,6.58,0,.33-15.79.33-25.08v-20.21c0-3.46-2.8-6.26-6.26-6.26h-22.71c-3.46,0-6.26,2.8-6.26,6.26v15.25Z" fill="#e3c654"/>
  <path d="m147.19,124.98c0,5.8,6.34,16.95,0,16.95s-4.93-24.65-4.93-24.65v-32.59c0-1.47-1.2-2.67-2.67-2.67h0c-1.47,0-2.67,1.2-2.67,2.67v22.42c0,1.56-1.27,2.83-2.83,2.83h0c-1.56,0-2.83-1.27-2.83-2.83v-22.64c0-1.36-1.1-2.45-2.45-2.45h0c-1.36,0-2.45,1.1-2.45,2.45v8.93c0,1.46-1.19,2.65-2.65,2.65h0c-1.46,0-2.65-1.19-2.65-2.65v-9.11c0-1.26-1.02-2.28-2.28-2.28h0c-1.26,0-2.28,1.02-2.28,2.28v10.22c0,11.15-.61,16.18-4.22,16.18-6.58,0-.33-15.79-.33-25.08v-5.03c0-3.46,2.8-6.26,6.26-6.26h22.71c3.46,0,6.26,2.8,6.26,6.26v44.39Z" fill="#e3c654"/>
</svg>