<?xml version="1.0" encoding="UTF-8"?>
<svg id="b" data-name="Warstwa 1" xmlns="http://www.w3.org/2000/svg" viewBox="0 0 259.51 197.39">
  <circle cx="85.88" cy="63.04" r="16.17" fill="#ffffdb"/>
  <circle cx="65.07" cy="63.04" r="16.17" fill="#ffffdb"/>
  <rect x="44.92" y="111.2" width="169.68" height="14.91" fill="#f2f2f2"/>
  <rect x="65.07" y="126.11" width="129.38" height="71.28" fill="#7d6c51"/>
  <rect x="65.07" y="126.11" width="129.38" height="8.97" fill="#5e513e"/>
  <g>
    <rect x="82.76" y="126.11" width="6.24" height="71.28" fill="#5e513e"/>
    <rect x="172.59" y="126.11" width="6.24" height="71.28" fill="#5e513e"/>
  </g>
  <path d="m61.52,70.27h7.09c1.22,0,2.2.99,2.2,2.2v38.72h-11.5v-38.72c0-1.22.99-2.2,2.2-2.2Z" fill="#ebdc98"/>
  <path d="m65.07,59.78s-2.25,4.65-2.25,6.69,2.25,2.31,2.25,2.31c0,0,2.25-.27,2.25-2.31s-2.25-6.69-2.25-6.69Z" fill="#ffee4e"/>
  <path d="m82.33,70.27h7.09c1.22,0,2.2.99,2.2,2.2v38.72h-11.5v-38.72c0-1.22.99-2.2,2.2-2.2Z" fill="#ebdc98"/>
  <path d="m85.88,59.78s-2.25,4.65-2.25,6.69,2.25,2.31,2.25,2.31c0,0,2.25-.27,2.25-2.31s-2.25-6.69-2.25-6.69Z" fill="#ffee4e"/>
  <rect x="99.75" y="115.1" width="60.01" height="75.27" fill="#5e513e"/>
  <rect x="97.32" y="111.2" width="64.86" height="75.27" fill="#fbfbfb"/>
  <g>
    <rect x="124.5" y="124.72" width="10.51" height="48.21" fill="#edd800"/>
    <rect x="105.65" y="143.57" width="48.21" height="10.51" fill="#edd800"/>
  </g>
  <g>
    <rect x="183.65" y="41.6" width="5.82" height="155.79" fill="#edd800"/>
    <path d="m193.31,41.99c-.07-.01-.12-.01-.19-.01-1.19,0-2.33.29-3.33.79-1.37.67-2.49,1.77-3.22,3.11-.73-1.34-1.86-2.44-3.23-3.11-1-.51-2.12-.79-3.33-.79-.07,0-.12,0-.19.01.92-1.97,2.69-3.48,4.84-4.04.52-.74,1.18-1.38,1.92-1.89.74.51,1.38,1.15,1.9,1.89,2.15.55,3.92,2.06,4.84,4.04Z" fill="#edd800"/>
    <rect x="183.5" y="41.6" width="5.82" height="28.28" transform="translate(242.15 -130.68) rotate(90)" fill="#edd800"/>
    <g>
      <path d="m199.95,62.48c.01-.07.01-.12.01-.19,0-1.19-.29-2.33-.79-3.33-.67-1.37-1.77-2.49-3.11-3.22,1.34-.73,2.44-1.86,3.11-3.23.51-1,.79-2.12.79-3.33,0-.07,0-.12-.01-.19,1.97.92,3.48,2.69,4.04,4.84.74.52,1.38,1.18,1.89,1.92-.51.74-1.15,1.38-1.89,1.9-.55,2.15-2.06,3.92-4.04,4.84Z" fill="#edd800"/>
      <path d="m172.87,48.99c-.01.07-.01.12-.01.19,0,1.19.29,2.33.79,3.33.67,1.37,1.77,2.49,3.11,3.22-1.34.73-2.44,1.86-3.11,3.23-.51,1-.79,2.12-.79,3.33,0,.07,0,.12.01.19-1.97-.92-3.48-2.69-4.04-4.84-.74-.52-1.38-1.18-1.89-1.92.51-.74,1.15-1.38,1.89-1.9.55-2.15,2.06-3.92,4.04-4.84Z" fill="#edd800"/>
    </g>
  </g>
</svg>