<?xml version="1.0" encoding="UTF-8"?>
<svg id="b" data-name="Warstwa 1" xmlns="http://www.w3.org/2000/svg" viewBox="0 0 259.51 197.39">
  <path d="m82.91,153.81h105.57v25.66h-105.57c-7.08,0-12.83-5.75-12.83-12.83h0c0-7.08,5.75-12.83,12.83-12.83Z" fill="#f7f4e3"/>
  <path d="m72.4,166.36h-4.74V31.04c0-8.35,6.77-15.12,15.12-15.12h105.55c1.95,0,3.53,1.58,3.53,3.53v133c0,1.95-1.58,3.53-3.53,3.53h-105.55c-5.72,0-10.38,4.66-10.38,10.38Z" fill="#5e3417"/>
  <path d="m83.08,155.97h105.53c1.79,0,3.24-1.45,3.24-3.24v-1.5h-108.64c-8.13,0-15.14,6.24-15.54,14.36-.43,8.68,6.51,15.89,15.1,15.89h106.71c1.31,0,2.37-1.06,2.37-2.37h0c0-1.31-1.06-2.37-2.37-2.37h-106.71c-6.05,0-10.91-5.21-10.33-11.38.51-5.38,5.24-9.38,10.64-9.38Z" fill="#361d0e"/>
  <g>
    <rect x="134.1" y="47.16" width="5.69" height="46.27" fill="#edd800"/>
    <rect x="134.1" y="47.23" width="5.69" height="29.9" transform="translate(199.12 -74.77) rotate(90)" fill="#edd800"/>
  </g>
  <rect x="134.71" y="98.51" width="4.48" height="41.73" rx="2.24" ry="2.24" transform="translate(256.32 -17.57) rotate(90)" fill="#edd800"/>
  <rect x="85.91" y="26.77" width="2.24" height="117.09" rx="1.12" ry="1.12" transform="translate(174.06 170.62) rotate(-180)" fill="#361d0e"/>
  <rect x="134.71" y="114" width="4.48" height="27.51" rx="2.24" ry="2.24" transform="translate(264.7 -9.19) rotate(90)" fill="#edd800"/>
  <polygon points="161.56 166.36 161.56 179.48 171.12 171.89 180.68 179.48 180.68 166.36 161.56 166.36" fill="#ad334c"/>
</svg>