<?xml version="1.0" encoding="UTF-8"?>
<svg id="b" data-name="Warstwa 1" xmlns="http://www.w3.org/2000/svg" viewBox="0 0 259.51 197.39">
  <g>
    <path d="m124.98,170.1c-40.32,0-73.13-32.8-73.13-73.13S84.66,23.85,124.98,23.85s73.13,32.8,73.13,73.13-32.8,73.13-73.13,73.13Zm0-142.53c-38.27,0-69.41,31.14-69.41,69.41s31.14,69.41,69.41,69.41,69.41-31.14,69.41-69.41S163.25,27.57,124.98,27.57Z" fill="#d1c000"/>
    <rect x="123.12" y="25.71" width="3.72" height="51.6" fill="#d1c000"/>
    <circle cx="124.98" cy="26.17" r="3.41" fill="#d1c000"/>
  </g>
  <g>
    <g>
      <circle cx="100.97" cy="162.68" r="16.25" fill="#948063"/>
      <circle cx="100.97" cy="152.28" r="4.55" fill="#c4aa84"/>
      <path d="m115.99,156.53c-.27,1.83-.88,3.65-1.86,5.35-4.2,7.27-13.5,9.77-20.77,5.57-4.17-2.41-6.76-6.49-7.43-10.91-3.04,7.41-.23,16.11,6.9,20.22,7.77,4.49,17.71,1.82,22.2-5.95,2.61-4.53,2.79-9.78.95-14.28Z" fill="#695b46"/>
    </g>
    <g>
      <circle cx="181.73" cy="141.04" r="16.25" fill="#948063"/>
      <circle cx="181.73" cy="130.65" r="4.55" fill="#c4aa84"/>
      <path d="m196.76,134.89c-.27,1.83-.88,3.65-1.86,5.35-4.2,7.27-13.5,9.77-20.77,5.57-4.17-2.41-6.76-6.49-7.43-10.91-3.04,7.41-.23,16.11,6.9,20.22,7.77,4.49,17.71,1.82,22.2-5.95,2.61-4.53,2.79-9.78.95-14.28Z" fill="#695b46"/>
    </g>
    <g>
      <circle cx="190.01" cy="66.1" r="16.25" fill="#948063"/>
      <circle cx="190.01" cy="55.71" r="4.55" fill="#c4aa84"/>
      <path d="m205.04,59.95c-.27,1.83-.88,3.65-1.86,5.35-4.2,7.27-13.5,9.77-20.77,5.57-4.17-2.41-6.76-6.49-7.43-10.91-3.04,7.41-.23,16.11,6.9,20.22,7.77,4.49,17.71,1.82,22.2-5.95,2.61-4.53,2.79-9.78.95-14.28Z" fill="#695b46"/>
    </g>
    <g>
      <circle cx="124.98" cy="48.31" r="16.25" fill="#948063"/>
      <circle cx="124.98" cy="37.91" r="4.55" fill="#c4aa84"/>
      <path d="m140.01,42.16c-.27,1.83-.88,3.65-1.86,5.35-4.2,7.27-13.5,9.77-20.77,5.57-4.17-2.41-6.76-6.49-7.43-10.91-3.04,7.41-.23,16.11,6.9,20.22,7.77,4.49,17.71,1.82,22.2-5.95,2.61-4.53,2.79-9.78.95-14.28Z" fill="#695b46"/>
    </g>
    <g>
      <circle cx="149.86" cy="162.68" r="16.25" fill="#948063"/>
      <circle cx="149.86" cy="152.28" r="4.55" fill="#c4aa84"/>
      <path d="m164.89,156.53c-.27,1.83-.88,3.65-1.86,5.35-4.2,7.27-13.5,9.77-20.77,5.57-4.17-2.41-6.76-6.49-7.43-10.91-3.04,7.41-.23,16.11,6.9,20.22,7.77,4.49,17.71,1.82,22.2-5.95,2.61-4.53,2.79-9.78.95-14.28Z" fill="#695b46"/>
    </g>
    <g>
      <circle cx="196.48" cy="105.68" r="16.25" fill="#948063"/>
      <circle cx="196.48" cy="95.29" r="4.55" fill="#c4aa84"/>
      <path d="m211.51,99.53c-.27,1.83-.88,3.65-1.86,5.35-4.2,7.27-13.5,9.77-20.77,5.57-4.17-2.41-6.76-6.49-7.43-10.91-3.04,7.41-.23,16.11,6.9,20.22,7.77,4.49,17.71,1.82,22.2-5.95,2.61-4.53,2.79-9.78.95-14.28Z" fill="#695b46"/>
    </g>
    <g>
      <circle cx="163.24" cy="34.72" r="16.25" fill="#948063"/>
      <circle cx="163.24" cy="24.32" r="4.55" fill="#c4aa84"/>
      <path d="m178.27,28.57c-.27,1.83-.88,3.65-1.86,5.35-4.2,7.27-13.5,9.77-20.77,5.57-4.17-2.41-6.76-6.49-7.43-10.91-3.04,7.41-.23,16.11,6.9,20.22,7.77,4.49,17.71,1.82,22.2-5.95,2.61-4.53,2.79-9.78.95-14.28Z" fill="#695b46"/>
    </g>
    <g>
      <circle cx="87.58" cy="34.72" r="16.25" fill="#948063"/>
      <circle cx="87.58" cy="24.32" r="4.55" fill="#c4aa84"/>
      <path d="m102.61,28.57c-.27,1.83-.88,3.65-1.86,5.35-4.2,7.27-13.5,9.77-20.77,5.57-4.17-2.41-6.76-6.49-7.43-10.91-3.04,7.41-.23,16.11,6.9,20.22,7.77,4.49,17.71,1.82,22.2-5.95,2.61-4.53,2.79-9.78.95-14.28Z" fill="#695b46"/>
    </g>
    <g>
      <circle cx="60.81" cy="66.1" r="16.25" fill="#948063"/>
      <circle cx="60.81" cy="55.71" r="4.55" fill="#c4aa84"/>
      <path d="m75.84,59.95c-.27,1.83-.88,3.65-1.86,5.35-4.2,7.27-13.5,9.77-20.77,5.57-4.17-2.41-6.76-6.49-7.43-10.91-3.04,7.41-.23,16.11,6.9,20.22,7.77,4.49,17.71,1.82,22.2-5.95,2.61-4.53,2.79-9.78.95-14.28Z" fill="#695b46"/>
    </g>
    <g>
      <circle cx="54.34" cy="105.68" r="16.25" fill="#948063"/>
      <circle cx="54.34" cy="95.29" r="4.55" fill="#c4aa84"/>
      <path d="m69.37,99.53c-.27,1.83-.88,3.65-1.86,5.35-4.2,7.27-13.5,9.77-20.77,5.57-4.17-2.41-6.76-6.49-7.43-10.91-3.04,7.41-.23,16.11,6.9,20.22,7.77,4.49,17.71,1.82,22.2-5.95,2.61-4.53,2.79-9.78.95-14.28Z" fill="#695b46"/>
    </g>
    <g>
      <circle cx="69.09" cy="141.04" r="16.25" fill="#948063"/>
      <circle cx="69.09" cy="130.65" r="4.55" fill="#c4aa84"/>
      <path d="m84.12,134.89c-.27,1.83-.88,3.65-1.86,5.35-4.2,7.27-13.5,9.77-20.77,5.57-4.17-2.41-6.76-6.49-7.43-10.91-3.04,7.41-.23,16.11,6.9,20.22,7.77,4.49,17.71,1.82,22.2-5.95,2.61-4.53,2.79-9.78.95-14.28Z" fill="#695b46"/>
    </g>
  </g>
  <g>
    <rect x="96.33" y="89.63" width="57.29" height="19.93" rx="3.51" ry="3.51" fill="#bfae00"/>
    <rect x="115.01" y="71.15" width="19.93" height="73.43" rx="3.51" ry="3.51" fill="#bfae00"/>
    <rect x="115.01" y="71.15" width="19.93" height="69.41" rx="3.51" ry="3.51" fill="#edd800"/>
    <rect x="96.33" y="89.63" width="57.29" height="16.4" rx="3.51" ry="3.51" fill="#edd800"/>
  </g>
</svg>