<?xml version="1.0" encoding="UTF-8"?>
<svg id="b" data-name="Warstwa 1" xmlns="http://www.w3.org/2000/svg" viewBox="0 0 259.51 197.39">
  <rect x="28.51" y="148.06" width="209.33" height="40.69" fill="#65696b"/>
  <path d="m245.1,170.9v-18.77c0-2.59-1.67-4.91-4.14-5.68-7.43-2.31-13.59-6.84-44.72-9.23,0,0-29.77-24.5-38.94-26.91s-31.12-1.65-31.12-1.65l-11.74-57.81c-.6-2.97-3.22-5.11-6.25-5.11H32.9c-3.22,0-5.93,2.4-6.33,5.59l-11.94,96.56v23h-.19c-2.22,0-4.02,1.8-4.02,4.02v12.25c0,2.22,1.8,4.02,4.02,4.02h13.99c1.23,0,2.23-1,2.23-2.23v-11.75h0c.1-13.14,10.79-23.77,23.95-23.77s23.85,10.62,23.95,23.77h0v11.75c0,1.23,1,2.23,2.23,2.23h103.06c1.23,0,2.23-1,2.23-2.23v-11.75h0c.1-13.14,10.79-23.77,23.95-23.77s23.85,10.62,23.95,23.77h0v11.75c0,1.23,1,2.23,2.23,2.23h8.84c2.2-.02,3.98-1.81,3.98-4.02v-12.25c0-2.21-1.78-4-3.98-4.02Z" fill="#ebebf0"/>
  <path d="m30.66,177.2h0c.02-2.15.32-4.24.87-6.22H13.3c-1.59,0-2.87,1.29-2.87,2.87v14.46c0,1.59,1.29,2.87,2.87,2.87h15.13c1.23,0,2.23-1,2.23-2.23v-11.75Z" fill="#ceced9"/>
  <g>
    <path d="m183.88,191.19c1.23,0,2.23-1,2.23-2.23v-11.75h0c.02-2.15.32-4.24.87-6.22h-109.28c.55,1.98.86,4.07.87,6.22h0v11.75c0,1.23,1,2.23,2.23,2.23h103.06Z" fill="#ceced9"/>
    <path d="m246.21,170.98h-13.06c.55,1.98.86,4.07.87,6.22h0v11.75c0,1.23,1,2.23,2.23,2.23h9.95c1.59,0,2.87-1.29,2.87-2.87v-14.46c0-1.59-1.29-2.87-2.87-2.87Z" fill="#ceced9"/>
  </g>
  <path d="m245.1,152.13l-12.25-1.53s-.53,6.92,2.18,8.64,10.07,3.61,10.07,3.61v-10.72Z" fill="#ffee70"/>
  <polygon points="225.99 134.98 202.45 127.39 225.99 119.79 225.99 134.98" fill="#ffe000"/>
  <polygon points="226.94 148.06 225.99 146.89 225.99 119.79 226.94 119.79 226.94 148.06" fill="#959bae"/>
  <path d="m127.33,114.25l3.73,21.34c.16.92.95,1.58,1.88,1.58h44.74c2.27,0,3.29-2.85,1.53-4.29l-20.2-16.55c-2.12-1.73-4.74-2.73-7.48-2.82l-22.85-.81c-.84-.03-1.49.72-1.35,1.55Z" fill="#b3e3e3"/>
  <path d="m115.59,137.17H29.31c-3.14,0-5.6-2.72-5.27-5.85l7.92-75.94c.28-2.7,2.56-4.75,5.27-4.75h66.88c2.62,0,4.85,1.92,5.24,4.51l11.48,75.94c.48,3.21-2,6.09-5.24,6.09Z" fill="#b3e3e3"/>
  <path d="m14.63,147.89h7.44c3.01,0,8.19,12.63,8.19,12.63h-15.63v-12.63Z" fill="#e90216"/>
  <rect x="133.02" y="144.32" width="15.9" height="6.28" rx="3.14" ry="3.14" fill="#ceced9"/>
  <g>
    <circle cx="54.62" cy="177.4" r="20" fill="#1d2200"/>
    <circle cx="54.62" cy="177.4" r="16.05" fill="#ceced9"/>
    <g>
      <path d="m57.74,173.47l9.82-1.6c-1.96-4.65-6.38-7.95-11.62-8.45l1.8,10.04Z" fill="#959bae"/>
      <path d="m51.51,173.47l1.8-10.04c-5.24.5-9.65,3.8-11.62,8.45l9.82,1.6Z" fill="#959bae"/>
      <path d="m54.62,183.05l-7,6.38c2.07,1.2,4.44,1.94,7,1.94s4.93-.74,7-1.94l-7-6.38Z" fill="#959bae"/>
      <path d="m59.66,179.39l4.18,8.45c2.93-2.57,4.82-6.3,4.82-10.51,0-1.01-.12-1.98-.32-2.93l-8.68,4.99Z" fill="#959bae"/>
      <path d="m45.41,187.84l4.18-8.45-8.68-4.99c-.2.95-.32,1.92-.32,2.93,0,4.21,1.89,7.94,4.82,10.51Z" fill="#959bae"/>
    </g>
    <g>
      <circle cx="54.74" cy="174.75" r=".89" fill="#959bae"/>
      <circle cx="57.76" cy="177.77" r=".89" fill="#959bae"/>
      <circle cx="54.7" cy="180.83" r=".89" fill="#959bae"/>
      <circle cx="51.68" cy="177.81" r=".89" fill="#959bae"/>
    </g>
  </g>
  <g>
    <circle cx="209.73" cy="177.4" r="20" fill="#1d2200"/>
    <circle cx="209.73" cy="177.4" r="16.05" fill="#ceced9"/>
    <g>
      <path d="m212.85,173.47l9.82-1.6c-1.96-4.65-6.38-7.95-11.62-8.45l1.8,10.04Z" fill="#959bae"/>
      <path d="m206.62,173.47l1.8-10.04c-5.24.5-9.65,3.8-11.62,8.45l9.82,1.6Z" fill="#959bae"/>
      <path d="m209.73,183.05l-7,6.38c2.07,1.2,4.44,1.94,7,1.94s4.93-.74,7-1.94l-7-6.38Z" fill="#959bae"/>
      <path d="m214.77,179.39l4.18,8.45c2.93-2.57,4.82-6.3,4.82-10.51,0-1.01-.12-1.98-.32-2.93l-8.68,4.99Z" fill="#959bae"/>
      <path d="m200.52,187.84l4.18-8.45-8.68-4.99c-.2.95-.32,1.92-.32,2.93,0,4.21,1.89,7.94,4.82,10.51Z" fill="#959bae"/>
    </g>
    <g>
      <circle cx="209.85" cy="174.75" r=".89" fill="#959bae"/>
      <circle cx="212.87" cy="177.77" r=".89" fill="#959bae"/>
      <circle cx="209.81" cy="180.83" r=".89" fill="#959bae"/>
      <circle cx="206.79" cy="177.81" r=".89" fill="#959bae"/>
    </g>
  </g>
  <polygon points="81.84 169.2 88.51 183.05 175.4 183.05 183.4 166.39 81.84 169.2" fill="#ebebf0"/>
</svg>