<?xml version="1.0" encoding="UTF-8"?>
<svg id="b" data-name="Warstwa 1" xmlns="http://www.w3.org/2000/svg" viewBox="0 0 259.51 197.39">
  <g>
    <path d="m129.75,15.86h-.01c-16.51,0-14.94-2.42-29.9,10.88-4.49,4,13.39,10.88,29.9,10.88,0,0,0,0,.01,0V15.86Z" fill="#c7b600"/>
    <polygon points="97.99 179.15 97.99 169.36 113.54 177.68 97.99 179.15" fill="#f6e655"/>
    <path d="m129.75,181.69s-31.89.32-31.76-2.54c.13-2.86,9.38-.53,9.32-2.7s-12.7-3.07-21.24-.64-14.61,2.22-14.61-2.23c0-7.73,40.06-140.49,40.06-140.49l18.22,2.38v146.21Z" fill="#c7b600"/>
    <path d="m124.52,30.45s-6.67.79-11.49-2.75c-4.82-3.55-8.99-6.62-8.99-6.62,0,0-6.64,3.13-10.55,13.24-3.91,10.12-24.95,83.8-22.02,139.27,9.58-7.63,46.46-7.15,46.46-7.15,0,0-2.41-31.6-1.85-79.77.42-35.92,7.6-53.57,7.6-53.57l.85-2.65Z" fill="#f6e655"/>
    <path d="m107.61,24.93s-9.67,53.74-9.61,137.07c2.95.44,20.95,0,20.95,0,0,0-3.92-78.43,6.93-133.22-8.06-4.23-18.27-3.86-18.27-3.86Z" fill="#e90216"/>
    <g>
      <path d="m114.65,16.06s.78,3.92,7,8.13c-6.53,1.72-14.57,2.73-23.91-.53,5.86-2.97,16.91-7.59,16.91-7.59Z" fill="#e90216"/>
      <path d="m88.38,34.3s.7-6.08,4.67-9.34c2.33-.18,6.2.53,6.2.53l10.16,1.48,14.26-1.72s2.8,2.37,3.16,8.13c-.26.3-.65.39-.65.39,0,0-.73-4.78-2.13-6.59.96,3.11,1.53,7.68,1.53,7.68l-.83.36s-.83-5.28-1.4-7.74c.75,4.89.49,8.54.49,8.54l-.78.18s-.03-5.1-.26-7.83c.05,2.76-.31,7.95-.31,7.95h-.73s.37-4.21.03-7.51c-.13,2.17-.16,5.81-.16,5.81l.1,2.17-.62.27-.34-1.96-.05,1.96-.78.15-.18-3.89-.16,3.89-.52.24-.29-2.49-.03,2.31-.65.18-.62-4.09.41,4.33-.83.18-.16-2.28-.21,2.55h-.7l-.16-2.05-.16,2.55h-.83l-.23-2.7s-.05,2.91-.13,2.91h-.73l-.05-1.69-.23,1.69-.65.24-.23-2.52-.1,2.67h-.6l-.13-2.31-.26,2.31-.73.12-.13-1.84s-.16,1.84-.23,1.84h-.65l.03-4.45-.39,4.33-1.1.12.4-4.42-.73,4.24s-.86.09-.86,0,.26-3.77.26-3.77l-.54,3.58-.81-.06.22-3.36-.48,3.22-.93-.22.57-5.76-.81,5.62-.86-.04.26-4.43-.47,3.98-.5.08.17-3.14-.48,3.12-.83-.04.54-4.33s-.81,4.07-.86,4.07-.83-.3-.83-.3l.64-4.59-.99,4.57-.61-.06.54-3.98-.85,3.8-.76-.2.41-2.79-.78,2.47-.85-.3,1.07-4.92s-1.33,4.73-1.38,4.73-.71-.22-.71-.22l1-4.13-1.45,4.15-.83-.47,1.42-4.59-1.64,4.19-.9-.18.85-3.4-1.04,2.99-.71-.24.61-2.47-.9,2.39h-.66l.54-2.89-.88,3.01-.83.06.55-3.05s-.8,3.05-.86,3.05-.97.08-.97.08l1.42-4.01-1.63,4.03-.85.18.09-.45-.48.15Z" fill="#edd800"/>
      <path d="m93.05,24.96s1.74-1.48,4.23-1.63c2.1.68,7.78,2.28,11.8,2.22,4.02-.06,11.81-1.53,12.26-1.58s.65.07.65.07l1.69,1.22s-7.21,2.82-14.65,2.64c-7.44-.18-14.21-2.58-15.97-2.94Z" fill="#bdb041"/>
    </g>
  </g>
  <g>
    <path d="m129.75,15.86h.01c16.51,0,14.94-2.42,29.9,10.88,4.49,4-13.39,10.88-29.9,10.88,0,0,0,0-.01,0V15.86Z" fill="#c7b600"/>
    <polygon points="161.51 179.15 161.51 169.36 145.97 177.68 161.51 179.15" fill="#f6e655"/>
    <path d="m129.75,181.69s31.89.32,31.76-2.54c-.13-2.86-9.38-.53-9.32-2.7s12.7-3.07,21.24-.64,14.61,2.22,14.61-2.23c0-7.73-40.06-140.49-40.06-140.49l-18.22,2.38v146.21Z" fill="#c7b600"/>
    <path d="m134.99,30.45s6.67.79,11.49-2.75c4.82-3.55,8.99-6.62,8.99-6.62,0,0,6.64,3.13,10.55,13.24,3.91,10.12,24.95,83.8,22.02,139.27-9.58-7.63-46.46-7.15-46.46-7.15,0,0,2.41-31.6,1.85-79.77-.42-35.92-7.6-53.57-7.6-53.57l-.85-2.65Z" fill="#f6e655"/>
    <path d="m151.9,24.93s9.67,53.74,9.61,137.07c-2.95.44-20.95,0-20.95,0,0,0,3.92-78.43-6.93-133.22,8.06-4.23,18.27-3.86,18.27-3.86Z" fill="#e90216"/>
    <g>
      <path d="m144.86,16.06s-.78,3.92-7,8.13c6.53,1.72,14.57,2.73,23.91-.53-5.86-2.97-16.91-7.59-16.91-7.59Z" fill="#e90216"/>
      <path d="m171.13,34.3s-.7-6.08-4.67-9.34c-2.33-.18-6.2.53-6.2.53l-10.16,1.48-14.26-1.72s-2.8,2.37-3.16,8.13c.26.3.65.39.65.39,0,0,.73-4.78,2.13-6.59-.96,3.11-1.53,7.68-1.53,7.68l.83.36s.83-5.28,1.4-7.74c-.75,4.89-.49,8.54-.49,8.54l.78.18s.03-5.1.26-7.83c-.05,2.76.31,7.95.31,7.95h.73s-.37-4.21-.03-7.51c.13,2.17.16,5.81.16,5.81l-.1,2.17.62.27.34-1.96.05,1.96.78.15.18-3.89.16,3.89.52.24.29-2.49.03,2.31.65.18.62-4.09-.41,4.33.83.18.16-2.28.21,2.55h.7l.16-2.05.16,2.55h.83l.23-2.7s.05,2.91.13,2.91h.73l.05-1.69.23,1.69.65.24.23-2.52.1,2.67h.6l.13-2.31.26,2.31.73.12.13-1.84s.16,1.84.23,1.84h.65l-.03-4.45.39,4.33,1.1.12-.4-4.42.73,4.24s.86.09.86,0-.26-3.77-.26-3.77l.54,3.58.81-.06-.22-3.36.48,3.22.93-.22-.57-5.76.81,5.62.86-.04-.26-4.43.47,3.98.5.08-.17-3.14.48,3.12.83-.04-.54-4.33s.81,4.07.86,4.07.83-.3.83-.3l-.64-4.59.99,4.57.61-.06-.54-3.98.85,3.8.76-.2-.41-2.79.78,2.47.85-.3-1.07-4.92s1.33,4.73,1.38,4.73.71-.22.71-.22l-1-4.13,1.45,4.15.83-.47-1.42-4.59,1.64,4.19.9-.18-.85-3.4,1.04,2.99.71-.24-.61-2.47.9,2.39h.66l-.54-2.89.88,3.01.83.06-.55-3.05s.8,3.05.86,3.05.97.08.97.08l-1.42-4.01,1.63,4.03.85.18-.09-.45.48.15Z" fill="#edd800"/>
      <path d="m166.46,24.96s-1.74-1.48-4.23-1.63c-2.1.68-7.78,2.28-11.8,2.22-4.02-.06-11.81-1.53-12.26-1.58s-.65.07-.65.07l-1.69,1.22s7.21,2.82,14.65,2.64c7.44-.18,14.21-2.58,15.97-2.94Z" fill="#bdb041"/>
    </g>
  </g>
</svg>