<?xml version="1.0" encoding="UTF-8"?>
<svg id="b" data-name="Warstwa 1" xmlns="http://www.w3.org/2000/svg" viewBox="0 0 259.51 197.39">
  <path d="m24.62,57.18v-21.7c0-1.41-.3-2.62-.9-3.65-.6-1.02-1.34-1.54-2.24-1.54v-1.41c.3-.04,2.62-1.34,6.98-3.9.3.09.66.2,1.09.35.43.15.99.57,1.7,1.25.7.68,1.06,1.47,1.06,2.37.26-.13.98-.53,2.18-1.22,3.16-1.79,5.03-2.69,5.63-2.69,1.36,0,2.64.9,3.84,2.69,1.19,1.79,1.79,3.44,1.79,4.93v19.39c0,2.35,1.04,3.73,3.14,4.16v1.41l-6.98,3.9c-.94-.38-1.81-1.01-2.62-1.89-.81-.87-1.22-1.7-1.22-2.46v-18.56c0-2.39-.27-4.21-.8-5.47-.53-1.26-1.48-1.89-2.85-1.89l-2.11.38v20.42c0,2.6.87,4.08,2.62,4.42v1.41l-6.46,3.65c-.94-.38-1.81-1.01-2.62-1.89-.81-.87-1.22-1.7-1.22-2.46Z"/>
  <path d="m59.82,29.4v22.66c0,2.6.87,4.08,2.62,4.42v1.41l-6.46,3.65c-.94-.38-1.81-1.01-2.62-1.89-.81-.87-1.22-1.7-1.22-2.46v-22.66c0-2.6-.88-4.07-2.62-4.42v-1.41l6.46-3.65c.94.38,1.81,1.01,2.62,1.89.81.88,1.22,1.7,1.22,2.46Zm-8.64-12.35v-3.9c0-.13.88-.52,2.66-1.18,1.77-.66,2.79-.99,3.07-.99s.68.36,1.22,1.09c.53.73.8,1.47.8,2.24v4.67c0,.13-.85.52-2.56,1.18-1.71.66-2.75.99-3.14.99s-.82-.37-1.31-1.12c-.49-.75-.74-1.74-.74-2.98Z"/>
  <path d="m81.9,25.05c.21,0,.75.33,1.6.99.85.66,1.71,1.58,2.56,2.75.85,1.17,1.28,2.31,1.28,3.42v10.75c0,.77-1.13,1.71-3.39,2.82-2.26,1.11-4.45,2.02-6.56,2.72s-3.25,1.06-3.42,1.06c0,3.29,1.43,5.31,4.29,6.08,1.41.34,3.09.51,5.06.51v1.86c-7,2.35-10.73,3.52-11.2,3.52-1.28,0-2.58-.91-3.9-2.72-1.32-1.81-1.98-3.94-1.98-6.37v-21.5c0-.3,2.43-1.35,7.3-3.17,4.86-1.81,7.66-2.72,8.38-2.72Zm-3.07,7.14c-.55-.83-1.26-1.25-2.11-1.25s-1.79.32-2.82.96v14.78c3.84-1.07,5.76-3.37,5.76-6.91v-4.54c0-1.19-.28-2.21-.83-3.04Z"/>
  <path d="m119.02,34.46c0-2.35-1.05-3.73-3.14-4.16v-1.41c4.61-2.56,6.93-3.84,6.98-3.84.38,0,1.07.42,2.05,1.25.98.83,1.58,1.72,1.79,2.66.08-.08,1.39-.76,3.9-2.02,2.52-1.26,3.8-1.89,3.84-1.89.85,0,1.79.51,2.82,1.54,1.96,1.96,2.94,4.59,2.94,7.87v21.12c0,.38-2.28,1.47-6.85,3.26s-7.4,2.69-8.51,2.69c-2.01,0-3.67-1.32-4.99-3.97-4.69,2.65-7.66,3.97-8.9,3.97s-2.44-.91-3.62-2.72c-1.17-1.81-1.76-3.49-1.76-5.02v-19.33c0-2.35-1.05-3.73-3.14-4.16v-1.41l6.98-3.9c.94.38,1.81,1.01,2.62,1.89.81.88,1.22,1.67,1.22,2.4v19.78c0,4.05,1.26,6.08,3.78,6.08.64,0,1.3-.13,1.98-.38v-20.29Zm8.54,19.04c.53,1.17,1.27,1.76,2.21,1.76s1.83-.19,2.69-.58v-17.92c0-2.22-.45-3.7-1.34-4.45-.9-.75-2.35-1.14-4.35-1.18v18.56c0,1.37.27,2.63.8,3.81Z"/>
  <path d="m154.28,29.4v22.66c0,2.6.87,4.08,2.62,4.42v1.41l-6.46,3.65c-.94-.38-1.81-1.01-2.62-1.89-.81-.87-1.22-1.7-1.22-2.46v-22.66c0-2.6-.88-4.07-2.62-4.42v-1.41l6.46-3.65c.94.38,1.81,1.01,2.62,1.89.81.88,1.22,1.7,1.22,2.46Zm-8.64-12.35v-3.9c0-.13.88-.52,2.66-1.18,1.77-.66,2.79-.99,3.07-.99s.68.36,1.22,1.09c.53.73.8,1.47.8,2.24v4.67c0,.13-.85.52-2.56,1.18-1.71.66-2.75.99-3.14.99s-.82-.37-1.31-1.12c-.49-.75-.74-1.74-.74-2.98Z"/>
  <path d="m176.36,25.05c.21,0,.75.33,1.6.99.85.66,1.71,1.58,2.56,2.75.85,1.17,1.28,2.31,1.28,3.42v10.75c0,.77-1.13,1.71-3.39,2.82-2.26,1.11-4.45,2.02-6.56,2.72s-3.25,1.06-3.42,1.06c0,3.29,1.43,5.31,4.29,6.08,1.41.34,3.09.51,5.06.51v1.86c-7,2.35-10.73,3.52-11.2,3.52-1.28,0-2.58-.91-3.9-2.72-1.32-1.81-1.98-3.94-1.98-6.37v-21.5c0-.3,2.43-1.35,7.3-3.17,4.86-1.81,7.66-2.72,8.38-2.72Zm-3.07,7.14c-.55-.83-1.26-1.25-2.11-1.25s-1.79.32-2.82.96v14.78c3.84-1.07,5.76-3.37,5.76-6.91v-4.54c0-1.19-.28-2.21-.83-3.04Z"/>
  <path d="m187.88,57.18v-21.7c0-1.41-.3-2.62-.9-3.65-.6-1.02-1.34-1.54-2.24-1.54v-1.41c.3-.04,2.62-1.34,6.98-3.9.3.09.66.2,1.09.35.43.15.99.57,1.7,1.25.7.68,1.06,1.47,1.06,2.37.26-.13.98-.53,2.18-1.22,3.16-1.79,5.11-2.69,5.86-2.69s1.58.38,2.5,1.15c.92.77,1.61,1.69,2.08,2.75.08-.04.96-.49,2.62-1.34,3.33-1.71,5.33-2.56,6.02-2.56,1.37,0,2.65.9,3.84,2.69s1.79,3.44,1.79,4.93v19.39c0,2.35,1.04,3.73,3.14,4.16v1.41l-6.98,3.9c-.94-.38-1.81-1.01-2.62-1.89-.81-.87-1.22-1.7-1.22-2.46v-18.88c0-2.77-.36-4.62-1.09-5.54-.73-.92-1.66-1.38-2.82-1.38l-1.86.38v20.29c0,2.35,1.04,3.73,3.14,4.16v1.41l-6.98,3.9c-.94-.38-1.81-1.01-2.62-1.89-.81-.87-1.22-1.7-1.22-2.46v-18.56c0-4.91-1.17-7.36-3.52-7.36l-2.24.38v20.42c0,2.6.87,4.08,2.62,4.42v1.41l-6.46,3.65c-.94-.38-1.81-1.01-2.62-1.89-.81-.87-1.22-1.7-1.22-2.46Z"/>
  <path d="m32.3,112.06c0,2.6.87,4.08,2.62,4.42v1.41l-6.46,3.65c-.94-.38-1.81-1.01-2.62-1.89-.81-.87-1.22-1.7-1.22-2.46v-31.68c0-1.15-.19-1.97-.58-2.46-.38-.49-1.05-.74-1.98-.74v-1.79c5.55-2.9,10.5-5.63,14.85-8.19l1.02,2.05c-.43.21-1.02.63-1.79,1.25-.77.62-1.41,1.25-1.92,1.89-1.28,1.62-1.92,3.46-1.92,5.5v5.89c3.97-2.56,6.31-3.84,7.04-3.84,1.19,0,2.52.78,3.97,2.34,1.45,1.56,2.18,3.3,2.18,5.22v6.98c0,.47-2.22,1.56-6.66,3.26,2.69,7.13,5.31,11.22,7.87,12.29.81.38,1.71.62,2.69.7v1.86c-3.97,2.56-6.46,3.84-7.49,3.84-1.37,0-3.1-2.08-5.22-6.24-2.11-4.16-3.57-7.63-4.38-10.4v7.17Zm0-10.3c.85,0,2.39-.53,4.61-1.6l1.15-.58v-2.88c0-3.63-1.24-5.44-3.71-5.44l-2.05.32v10.18Z"/>
  <path d="m60.82,114.26c.66.7,1.4,1.06,2.21,1.06s1.66-.32,2.56-.96v-19.9c0-2.6-.88-4.07-2.62-4.42v-1.41l6.46-3.65c.94.38,1.81,1.01,2.62,1.89.81.88,1.22,1.7,1.22,2.46v21.7c0,1.41.3,2.62.9,3.65s1.34,1.54,2.24,1.54v1.41c-.3.04-2.62,1.34-6.98,3.9-.98-.43-1.87-1.06-2.66-1.89-.79-.83-1.18-1.63-1.18-2.4l-8,4.29c-.13-.08-.32-.2-.58-.35-.26-.15-.69-.47-1.31-.96-.62-.49-1.16-1.01-1.63-1.57-1.28-1.41-1.92-3.01-1.92-4.8v-19.39c0-2.35-1.05-3.73-3.14-4.16v-1.41l6.98-3.9c.94.38,1.81,1.01,2.62,1.89.81.88,1.22,1.7,1.22,2.46v22.21c0,1.11.33,2.02.99,2.72Z"/>
  <path d="m76.53,88.89l7.04-3.84c.3.09.65.2,1.06.35.41.15.96.57,1.66,1.25.7.68,1.06,1.45,1.06,2.3.21-.08,1.23-.76,3.04-2.02,1.81-1.26,2.98-1.89,3.49-1.89,1.37,0,2.64.9,3.84,2.69,1.19,1.79,1.79,3.44,1.79,4.93v3.14l-6.59,3.71-1.09-.9c0-3.58-.34-5.63-1.02-6.14-.77-.55-1.92-.83-3.46-.83v20.42c0,2.6.87,4.08,2.62,4.42v1.41l-6.46,3.65c-.94-.38-1.81-1.01-2.62-1.89-.81-.87-1.22-1.7-1.22-2.46v-21.25c0-1.88-.33-3.28-.99-4.22-.66-.94-1.38-1.41-2.14-1.41v-1.41Z"/>
  <path d="m117.42,94.46c0-2.35-1.05-3.73-3.14-4.16v-1.41c4.61-2.56,6.93-3.84,6.98-3.84.38,0,1.07.42,2.05,1.25.98.83,1.58,1.72,1.79,2.66.08-.08,1.39-.76,3.9-2.02,2.52-1.26,3.8-1.89,3.84-1.89.85,0,1.79.51,2.82,1.54,1.96,1.96,2.94,4.59,2.94,7.87v21.12c0,.38-2.28,1.47-6.85,3.26s-7.4,2.69-8.51,2.69c-2.01,0-3.67-1.32-4.99-3.97-4.69,2.65-7.66,3.97-8.9,3.97s-2.44-.91-3.62-2.72c-1.17-1.81-1.76-3.49-1.76-5.02v-19.33c0-2.35-1.05-3.73-3.14-4.16v-1.41l6.98-3.9c.94.38,1.81,1.01,2.62,1.89.81.88,1.22,1.67,1.22,2.4v19.78c0,4.05,1.26,6.08,3.78,6.08.64,0,1.3-.13,1.98-.38v-20.29Zm8.54,19.04c.53,1.17,1.27,1.76,2.21,1.76s1.83-.19,2.69-.58v-17.92c0-2.22-.45-3.7-1.34-4.45-.9-.75-2.35-1.14-4.35-1.18v18.56c0,1.37.27,2.63.8,3.81Z"/>
  <path d="m164.85,93.5v18.11c0,1.58.26,2.68.77,3.3.51.62,1.3,1.06,2.37,1.31v1.41l-6.98,3.9c-.94-.38-1.81-1.01-2.62-1.89-.81-.87-1.22-1.67-1.22-2.4l-8,4.29c-.13-.08-.32-.2-.58-.35-.26-.15-.69-.47-1.31-.96-.62-.49-1.16-1.01-1.63-1.57-1.28-1.41-1.92-3.01-1.92-4.8v-10.5c0-.68,1.11-1.56,3.33-2.62,2.22-1.07,4.44-1.94,6.66-2.62l3.39-1.09c0-2.43-.64-4.13-1.92-5.09s-3.75-1.44-7.42-1.44v-1.92c6.61-2.35,10.33-3.52,11.14-3.52,1.41,0,2.75.92,4.03,2.75,1.28,1.83,1.92,3.73,1.92,5.7Zm-12.45,20.77c.66.7,1.4,1.06,2.21,1.06s1.66-.32,2.56-.96v-14.46c-1.07.38-1.87.7-2.4.96-.53.26-1.1.66-1.7,1.22-1.11,1.02-1.66,2.79-1.66,5.31v4.16c0,1.11.33,2.02.99,2.72Z"/>
  <path d="m192.24,91.26c-.43,0-.81.21-1.15.64v17.66c0,3.29,1.41,5.31,4.22,6.08,1.45.34,3.18.51,5.18.51v1.86c-7,2.35-10.73,3.52-11.2,3.52-1.28,0-2.58-.91-3.9-2.72-1.32-1.81-1.98-3.94-1.98-6.37v-21.5c0-.3,2.44-1.35,7.33-3.17,4.88-1.81,7.69-2.72,8.42-2.72.26,0,.55.62.9,1.86.34,1.24.74,2.73,1.18,4.48.45,1.75.92,3.04,1.41,3.87s1.42,1.25,2.78,1.25v1.28c-.94.43-2.53,1.18-4.77,2.27-2.24,1.09-3.45,1.63-3.62,1.63-.64,0-1.45-1.74-2.43-5.22-.98-3.48-1.77-5.22-2.37-5.22Z"/>
  <path d="m209.26,112.18v-21.25c0-.3,2.43-1.35,7.3-3.17,4.86-1.81,7.66-2.72,8.38-2.72s1.82.88,3.3,2.62c1.47,1.75,2.21,3.33,2.21,4.74v23.17c0,.34-2.34,1.42-7.01,3.23-4.67,1.81-7.53,2.72-8.58,2.72s-2.24-.92-3.58-2.75c-1.34-1.83-2.02-4.03-2.02-6.59Zm10.94,3.46c.81,0,1.64-.34,2.5-1.02v-18.88c0-3.16-1.09-4.74-3.26-4.74-.85,0-1.69.32-2.5.96v18.94c0,3.16,1.09,4.74,3.26,4.74Z"/>
  <path d="m32.3,138.39v7.62h3.26l-.64,3.14h-2.62v22.91c0,2.6.87,4.08,2.62,4.42v1.41l-6.46,3.65c-.94-.38-1.81-1.01-2.62-1.89-.81-.87-1.22-1.7-1.22-2.46v-27.97h-2.62l.64-2.69c1.28,0,2.83-.86,4.64-2.59,1.81-1.73,2.89-3.57,3.23-5.54h1.79Z"/>
  <path d="m47.37,174.26c.66.7,1.4,1.06,2.21,1.06s1.66-.32,2.56-.96v-19.9c0-2.6-.88-4.07-2.62-4.42v-1.41l6.46-3.65c.94.38,1.81,1.01,2.62,1.89.81.88,1.22,1.7,1.22,2.46v21.7c0,1.41.3,2.62.9,3.65s1.34,1.54,2.24,1.54v1.41c-.3.04-2.62,1.34-6.98,3.9-.98-.43-1.87-1.06-2.66-1.89-.79-.83-1.18-1.63-1.18-2.4l-8,4.29c-.13-.08-.32-.2-.58-.35-.26-.15-.69-.47-1.31-.96-.62-.49-1.16-1.01-1.63-1.57-1.28-1.41-1.92-3.01-1.92-4.8v-19.39c0-2.35-1.05-3.73-3.14-4.16v-1.41l6.98-3.9c.94.38,1.81,1.01,2.62,1.89.81.88,1.22,1.7,1.22,2.46v22.21c0,1.11.33,2.02.99,2.72Z"/>
  <path d="m90.41,132.25c1.15,0,2.96,2.79,5.44,8.38,2.47,5.59,3.71,9.45,3.71,11.58v19.52c0,.98.27,1.94.8,2.88.53.94,1.29,1.47,2.27,1.6v1.41c-.3.04-2.62,1.34-6.98,3.9-.98-.43-1.87-1.06-2.66-1.89-.79-.83-1.18-1.61-1.18-2.34-4.57,2.82-7.23,4.22-8,4.22-.3,0-.86-.33-1.7-.99-.83-.66-1.66-1.62-2.5-2.88-.83-1.26-1.25-2.55-1.25-3.87v-22.85c0-.43,3.6-1.9,10.82-4.42-1.54-3.37-2.77-5.74-3.71-7.1-.94-1.37-1.86-2.05-2.75-2.05h-2.11v-1.92c4.74-2.13,8-3.2,9.79-3.2Zm-1.09,43.39c.81,0,1.64-.34,2.5-1.02v-22.27c0-.26-.18-.8-.54-1.63s-.63-1.25-.8-1.25c-1.24,0-2.5.38-3.78,1.15l-.64.38v19.9c0,3.16,1.09,4.74,3.26,4.74Z"/>
  <path d="m127.02,153.5v18.11c0,1.58.26,2.68.77,3.3.51.62,1.3,1.06,2.37,1.31v1.41l-6.98,3.9c-.94-.38-1.81-1.01-2.62-1.89-.81-.87-1.22-1.67-1.22-2.4l-8,4.29c-.13-.08-.32-.2-.58-.35-.26-.15-.69-.47-1.31-.96-.62-.49-1.16-1.01-1.63-1.57-1.28-1.41-1.92-3.01-1.92-4.8v-10.5c0-.68,1.11-1.56,3.33-2.62,2.22-1.07,4.44-1.94,6.66-2.62l3.39-1.09c0-2.43-.64-4.13-1.92-5.09s-3.75-1.44-7.42-1.44v-1.92c6.61-2.35,10.33-3.52,11.14-3.52,1.41,0,2.75.92,4.03,2.75,1.28,1.83,1.92,3.73,1.92,5.7Zm-12.45,20.77c.66.7,1.4,1.06,2.21,1.06s1.66-.32,2.56-.96v-14.46c-1.07.38-1.87.7-2.4.96-.53.26-1.1.66-1.7,1.22-1.11,1.02-1.66,2.79-1.66,5.31v4.16c0,1.11.33,2.02.99,2.72Z"/>
  <path d="m142.25,151.26c-.43,0-.81.21-1.15.64v17.66c0,3.29,1.41,5.31,4.22,6.08,1.45.34,3.18.51,5.18.51v1.86c-7,2.35-10.73,3.52-11.2,3.52-1.28,0-2.58-.91-3.9-2.72-1.32-1.81-1.98-3.94-1.98-6.37v-21.5c0-.3,2.44-1.35,7.33-3.17,4.88-1.81,7.69-2.72,8.42-2.72.26,0,.55.62.9,1.86.34,1.24.74,2.73,1.18,4.48.45,1.75.92,3.04,1.41,3.87s1.42,1.25,2.78,1.25v1.28c-.94.43-2.53,1.18-4.77,2.27-2.24,1.09-3.45,1.63-3.62,1.63-.64,0-1.45-1.74-2.43-5.22-.98-3.48-1.77-5.22-2.37-5.22Zm-.26-20.67c.26-.43,1.3-.64,3.14-.64s2.75.41,2.75,1.22c0,1.2-1.92,4.27-5.76,9.22-.43.51-1.17.77-2.24.77-.3,0-.54-.34-.74-1.02-.19-.68-.29-1.34-.29-1.98s.34-1.77,1.02-3.39c.68-1.62,1.39-3.01,2.11-4.16Z"/>
  <path d="m187.11,145.05c.21,0,.75.33,1.6.99.85.66,1.71,1.58,2.56,2.75.85,1.17,1.28,2.31,1.28,3.42v10.75c0,.77-1.13,1.71-3.39,2.82-2.26,1.11-4.45,2.02-6.56,2.72s-3.25,1.06-3.42,1.06c0,3.29,1.43,5.31,4.29,6.08,1.41.34,3.09.51,5.06.51v1.86c-7,2.35-10.73,3.52-11.2,3.52-1.28,0-2.58-.91-3.9-2.72-1.32-1.81-1.98-3.94-1.98-6.37v-21.5c0-.3,2.43-1.35,7.3-3.17,4.86-1.81,7.66-2.72,8.38-2.72Zm-3.07,7.14c-.55-.83-1.26-1.25-2.11-1.25s-1.79.32-2.82.96v14.78c3.84-1.07,5.76-3.37,5.76-6.91v-4.54c0-1.19-.28-2.21-.83-3.04Z"/>
  <path d="m206.31,136.66v35.39c0,2.6.87,4.08,2.62,4.42v1.41l-6.46,3.65c-.94-.38-1.81-1.01-2.62-1.89-.81-.87-1.22-1.7-1.22-2.46v-35.39c0-2.6-.88-4.07-2.62-4.42v-1.41l6.46-3.65c.94.38,1.81,1.01,2.62,1.89.81.88,1.22,1.7,1.22,2.46Z"/>
  <path d="m212.71,172.18v-21.25c0-.3,2.43-1.35,7.3-3.17,4.86-1.81,7.66-2.72,8.38-2.72s1.82.88,3.3,2.62c1.47,1.75,2.21,3.33,2.21,4.74v23.17c0,.34-2.34,1.42-7.01,3.23-4.67,1.81-7.53,2.72-8.58,2.72s-2.24-.92-3.58-2.75c-1.34-1.83-2.02-4.03-2.02-6.59Zm10.94,3.46c.81,0,1.64-.34,2.5-1.02v-18.88c0-3.16-1.09-4.74-3.26-4.74-.85,0-1.69.32-2.5.96v18.94c0,3.16,1.09,4.74,3.26,4.74Z"/>
</svg>