<?xml version="1.0" encoding="UTF-8"?>
<svg id="b" data-name="Warstwa 1" xmlns="http://www.w3.org/2000/svg" viewBox="0 0 259.51 197.39">
  <path d="m172.95,31.66c.67,0,1.21-.54,1.21-1.21s-.54-1.21-1.21-1.21h-89.14c-.67,0-1.21.54-1.21,1.21s.54,1.21,1.21,1.21h.97c1.56,5.11,4.47,18.2,1.31,37.5-3.56,21.69,32.43,37.82,36.87,39.72v4.1c-1.67.22-2.97,1.64-2.97,3.37s1.3,3.15,2.97,3.37v6.16c-4.38,2.05-7.42,6.48-7.42,11.63,0,.69.07,1.36.18,2.03h0c.48,3.01,1.99,5.66,4.17,7.59.05.05.11.1.16.15.2.17.41.33.62.49.11.08.21.16.32.24.19.13.39.26.59.39.14.09.28.18.43.26.18.11.37.21.56.3.13.07.26.13.4.2v5.6c-1.67.22-2.97,1.64-2.97,3.37s1.3,3.15,2.97,3.37v1.43c0,8.22-3.14,5.18-7.42,9.46-3.18,0-3.04,5.8-3.04,5.8,0,0-9.25.83-9.25,7.6-16.85,0-19.89,11.6-19.89,11.6h90.05s-3.04-11.6-19.89-11.6c0-6.77-9.25-7.6-9.25-7.6,0,0,.14-5.8-3.04-5.8-4.28-4.28-7.42-1.24-7.42-9.46v-1.43c1.67-.22,2.97-1.64,2.97-3.37s-1.3-3.15-2.97-3.37v-5.6c.13-.06.27-.13.4-.2.19-.1.38-.2.56-.3.14-.08.29-.17.43-.26.2-.12.39-.25.58-.38.11-.08.21-.16.32-.24.21-.16.42-.32.62-.49.05-.05.11-.1.16-.15,2.18-1.93,3.69-4.58,4.17-7.59,0,0,0,0,0,0h0c.1-.66.18-1.34.18-2.03,0-5.15-3.04-9.59-7.42-11.63v-6.16c1.67-.22,2.97-1.64,2.97-3.37s-1.3-3.15-2.97-3.37v-4.1c.34-.14.86-.37,1.53-.68,0,0,0,0,0,0,8.17-3.72,38.62-19.01,35.34-39.04-3.16-19.3-.25-32.39,1.31-37.5h.97Z" fill="#edd800"/>
  <path d="m170.64,75.39c-2.92,16.94-28,29.48-35.3,32.81h0c-.68.31-1.2.54-1.54.69v4.1h-10.84v-4.1c-4.01-1.71-33.63-15-36.83-33.49h84.51Z" fill="#d6c300"/>
  <path d="m136.77,116.36c0,1.73-1.29,3.15-2.97,3.37v2.67h-10.84v-2.67c-1.67-.21-2.97-1.64-2.97-3.37h16.78Z" fill="#d6c300"/>
  <path d="m141.23,137.52c0,.7-.07,1.36-.17,2.03-.48,3.01-2,5.66-4.18,7.59-.05.05-.1.1-.15.14-.2.17-.41.34-.62.49-.1.08-.21.16-.32.25-.19.13-.39.26-.58.38-.14.09-.29.17-.43.27-.18.1-.37.2-.56.3-.13.07-.27.13-.4.2v2.67h-10.84v-2.67c-.13-.07-.27-.13-.4-.2-.18-.09-.38-.19-.56-.3-.14-.09-.29-.17-.42-.27-.2-.12-.4-.25-.58-.38-.11-.08-.21-.16-.33-.25-.2-.15-.42-.32-.61-.49-.06-.04-.11-.09-.16-.14-1.09-.96-2.02-2.11-2.72-3.39-.72-1.28-1.21-2.69-1.45-4.2-.1-.67-.17-1.33-.17-2.03h25.69Z" fill="#d6c300"/>
  <path d="m133.8,161.51v1.42c0,.2,0,.4.01.59h-10.86c.01-.19.01-.39.01-.59v-1.42c-1.67-.23-2.97-1.64-2.97-3.38h16.78c0,1.74-1.29,3.15-2.97,3.38Z" fill="#d6c300"/>
  <path d="m144.27,178.19h-31.77s-.03-1.22.25-2.55h31.28c.28,1.33.25,2.55.25,2.55Z" fill="#d6c300"/>
  <path d="m153.52,185.79h-50.27c0-.96.18-1.81.51-2.55h49.25c.33.74.51,1.59.51,2.55Z" fill="#d6c300"/>
  <path d="m173.41,197.39h-90.05s.48-1.85,2.15-4.09h85.75c1.67,2.23,2.15,4.09,2.15,4.09Z" fill="#d6c300"/>
</svg>