<?xml version="1.0" encoding="UTF-8"?>
<svg id="b" data-name="Warstwa 1" xmlns="http://www.w3.org/2000/svg" viewBox="0 0 259.51 197.39">
  <ellipse cx="129.75" cy="71.18" rx="92.53" ry="25.11" fill="#bababa"/>
  <polygon points="103.72 48.69 94.72 58.81 94.72 101.27 39.52 83.09 39.52 68.63 48.01 60.27 68.98 52.97 88.22 49.39 103.72 48.69" fill="#adadad"/>
  <path d="m129.75,95.5c-49.19,0-89.41-10.75-92.35-24.32h-.18v55.02c0,13.87,41.43,25.11,92.53,25.11s92.53-11.24,92.53-25.11v-55.02h-.18c-2.94,13.57-43.16,24.32-92.35,24.32Z" fill="#ededed"/>
  <path d="m129.75,46.07c-51.1,0-92.53,11.24-92.53,25.11s41.43,25.11,92.53,25.11,92.53-11.24,92.53-25.11-41.43-25.11-92.53-25.11Zm0,48.63c-48.95,0-88.64-10.53-88.64-23.52s39.69-23.52,88.64-23.52,88.64,10.53,88.64,23.52-39.69,23.52-88.64,23.52Z" fill="#d6d6d6"/>
  <rect x="107.37" y="82.61" width="13.8" height="4.25" rx="2.12" ry="2.12" fill="#fff"/>
  <rect x="125.77" y="82.61" width="13.8" height="4.25" rx="2.12" ry="2.12" fill="#fff"/>
</svg>