<?xml version="1.0" encoding="UTF-8"?>
<svg id="b" data-name="Warstwa 1" xmlns="http://www.w3.org/2000/svg" viewBox="0 0 259.51 197.39">
  <path d="m173.34,48.15l-22.14,9.61c-13.68,5.94-29.21,5.94-42.88,0l-22.14-9.61,15.81-36.4,6.33,2.75c13.68,5.94,29.21,5.94,42.89,0l6.33-2.75,15.81,36.4Z" fill="#800400"/>
  <path d="m102,185.64l-46.36-16.36V30.81c0-2.46,1.59-4.64,3.93-5.39l42.43-13.67v173.9Z" fill="#ca1713"/>
  <path d="m157.51,185.64l46.36-16.36V30.81c0-2.46-1.59-4.64-3.93-5.39l-42.43-13.67v173.9Z" fill="#ca1713"/>
  <rect x="157.51" y="98.7" width="46.36" height="50.1" fill="#91100e"/>
  <g>
    <g>
      <path d="m182.6,110.11c0-1.27,1.03-2.3,2.3-2.3h1.85v-1.44h-12.13v1.44h1.85c1.27,0,2.3,1.03,2.3,2.3v27.26c0,1.27-1.03,2.3-2.3,2.3h-1.85v1.44h12.13v-1.44h-1.85c-1.27,0-2.3-1.03-2.3-2.3v-27.26Z" fill="#edd800"/>
      <path d="m194.32,125.66c1.27,0,2.3,1.03,2.3,2.3v1.85h1.44v-12.13h-1.44v1.85c0,1.27-1.03,2.3-2.3,2.3h-27.26c-1.27,0-2.3-1.03-2.3-2.3v-1.85h-1.44v12.13h1.44v-1.85c0-1.27,1.03-2.3,2.3-2.3h27.26Z" fill="#edd800"/>
    </g>
    <g>
      <g>
        <path d="m169.41,108.81c0-.3.24-.54.54-.54h.44v-.34h-2.85v.34h.44c.3,0,.54.24.54.54v6.41c0,.3-.24.54-.54.54h-.44v.34h2.85v-.34h-.44c-.3,0-.54-.24-.54-.54v-6.41Z" fill="#edd800"/>
        <path d="m172.17,112.47c.3,0,.54.24.54.54v.44h.34v-2.85h-.34v.44c0,.3-.24.54-.54.54h-6.41c-.3,0-.54-.24-.54-.54v-.44h-.34v2.85h.34v-.44c0-.3.24-.54.54-.54h6.41Z" fill="#edd800"/>
      </g>
      <g>
        <path d="m192.87,132.26c0-.3.24-.54.54-.54h.44v-.34h-2.85v.34h.44c.3,0,.54.24.54.54v6.41c0,.3-.24.54-.54.54h-.44v.34h2.85v-.34h-.44c-.3,0-.54-.24-.54-.54v-6.41Z" fill="#edd800"/>
        <path d="m195.62,135.92c.3,0,.54.24.54.54v.44h.34v-2.85h-.34v.44c0,.3-.24.54-.54.54h-6.41c-.3,0-.54-.24-.54-.54v-.44h-.34v2.85h.34v-.44c0-.3.24-.54.54-.54h6.41Z" fill="#edd800"/>
      </g>
    </g>
    <g>
      <g>
        <path d="m195.62,112.47c.3,0,.54.24.54.54v.44h.34v-2.85h-.34v.44c0,.3-.24.54-.54.54h-6.41c-.3,0-.54-.24-.54-.54v-.44h-.34v2.85h.34v-.44c0-.3.24-.54.54-.54h6.41Z" fill="#edd800"/>
        <path d="m191.97,115.22c0,.3-.24.54-.54.54h-.44v.34h2.85v-.34h-.44c-.3,0-.54-.24-.54-.54v-6.41c0-.3.24-.54.54-.54h.44v-.34h-2.85v.34h.44c.3,0,.54.24.54.54v6.41Z" fill="#edd800"/>
      </g>
      <g>
        <path d="m172.17,135.92c.3,0,.54.24.54.54v.44h.34v-2.85h-.34v.44c0,.3-.24.54-.54.54h-6.41c-.3,0-.54-.24-.54-.54v-.44h-.34v2.85h.34v-.44c0-.3.24-.54.54-.54h6.41Z" fill="#edd800"/>
        <path d="m168.51,138.68c0,.3-.24.54-.54.54h-.44v.34h2.85v-.34h-.44c-.3,0-.54-.24-.54-.54v-6.41c0-.3.24-.54.54-.54h.44v-.34h-2.85v.34h.44c.3,0,.54.24.54.54v6.41Z" fill="#edd800"/>
      </g>
    </g>
  </g>
  <rect x="55.64" y="98.7" width="46.36" height="50.1" fill="#91100e"/>
  <g>
    <g>
      <path d="m80.73,110.11c0-1.27,1.03-2.3,2.3-2.3h1.85v-1.44h-12.13v1.44h1.85c1.27,0,2.3,1.03,2.3,2.3v27.26c0,1.27-1.03,2.3-2.3,2.3h-1.85v1.44h12.13v-1.44h-1.85c-1.27,0-2.3-1.03-2.3-2.3v-27.26Z" fill="#edd800"/>
      <path d="m92.45,125.66c1.27,0,2.3,1.03,2.3,2.3v1.85h1.44v-12.13h-1.44v1.85c0,1.27-1.03,2.3-2.3,2.3h-27.26c-1.27,0-2.3-1.03-2.3-2.3v-1.85h-1.44v12.13h1.44v-1.85c0-1.27,1.03-2.3,2.3-2.3h27.26Z" fill="#edd800"/>
    </g>
    <g>
      <g>
        <path d="m67.54,108.81c0-.3.24-.54.54-.54h.44v-.34h-2.85v.34h.44c.3,0,.54.24.54.54v6.41c0,.3-.24.54-.54.54h-.44v.34h2.85v-.34h-.44c-.3,0-.54-.24-.54-.54v-6.41Z" fill="#edd800"/>
        <path d="m70.3,112.47c.3,0,.54.24.54.54v.44h.34v-2.85h-.34v.44c0,.3-.24.54-.54.54h-6.41c-.3,0-.54-.24-.54-.54v-.44h-.34v2.85h.34v-.44c0-.3.24-.54.54-.54h6.41Z" fill="#edd800"/>
      </g>
      <g>
        <path d="m91,132.26c0-.3.24-.54.54-.54h.44v-.34h-2.85v.34h.44c.3,0,.54.24.54.54v6.41c0,.3-.24.54-.54.54h-.44v.34h2.85v-.34h-.44c-.3,0-.54-.24-.54-.54v-6.41Z" fill="#edd800"/>
        <path d="m93.76,135.92c.3,0,.54.24.54.54v.44h.34v-2.85h-.34v.44c0,.3-.24.54-.54.54h-6.41c-.3,0-.54-.24-.54-.54v-.44h-.34v2.85h.34v-.44c0-.3.24-.54.54-.54h6.41Z" fill="#edd800"/>
      </g>
    </g>
    <g>
      <g>
        <path d="m93.76,112.47c.3,0,.54.24.54.54v.44h.34v-2.85h-.34v.44c0,.3-.24.54-.54.54h-6.41c-.3,0-.54-.24-.54-.54v-.44h-.34v2.85h.34v-.44c0-.3.24-.54.54-.54h6.41Z" fill="#edd800"/>
        <path d="m90.1,115.22c0,.3-.24.54-.54.54h-.44v.34h2.85v-.34h-.44c-.3,0-.54-.24-.54-.54v-6.41c0-.3.24-.54.54-.54h.44v-.34h-2.85v.34h.44c.3,0,.54.24.54.54v6.41Z" fill="#edd800"/>
      </g>
      <g>
        <path d="m70.3,135.92c.3,0,.54.24.54.54v.44h.34v-2.85h-.34v.44c0,.3-.24.54-.54.54h-6.41c-.3,0-.54-.24-.54-.54v-.44h-.34v2.85h.34v-.44c0-.3.24-.54.54-.54h6.41Z" fill="#edd800"/>
        <path d="m66.64,138.68c0,.3-.24.54-.54.54h-.44v.34h2.85v-.34h-.44c-.3,0-.54-.24-.54-.54v-6.41c0-.3.24-.54.54-.54h.44v-.34h-2.85v.34h.44c.3,0,.54.24.54.54v6.41Z" fill="#edd800"/>
      </g>
    </g>
  </g>
</svg>