<?xml version="1.0" encoding="UTF-8"?>
<svg id="b" data-name="Warstwa 1" xmlns="http://www.w3.org/2000/svg" viewBox="0 0 259.51 197.39">
  <g>
    <path d="m221.39,49.66c-1.16.35-1.16,1.07-1.56,1.67-1.01,1.83-2.36,3.45-3.72,5.03-14.11,15.09-27.02,26.07-26.62,48.64,0,0-2,.02-2,.02-.25-18.03,9.45-31.68,22.33-43.24,3.44-3.31,7.19-6.5,9.51-10.73.37-.69.76-1.26.17-2.08,0,0,1.88.68,1.88.68h0Z" fill="#83c446"/>
    <path d="m230.18,29.32s-12.27,5.41-11.3,23.13c13.81-5.37,11.3-23.13,11.3-23.13Z" fill="#94de4f"/>
    <path d="m208.46,34.73s13.42,7.54,5.28,24.2c-11.44-8.15-5.28-24.2-5.28-24.2Z" fill="#94de4f"/>
    <path d="m195.8,48.03s13.42,7.54,5.28,24.2c-11.44-8.15-5.28-24.2-5.28-24.2Z" fill="#94de4f"/>
    <path d="m237.98,56.48s-11.27-10.48-24.65,2.35c11.25,8.41,24.65-2.35,24.65-2.35Z" fill="#72c424"/>
    <path d="m225.65,69.68s-11.27-10.48-24.65,2.35c11.25,8.41,24.65-2.35,24.65-2.35Z" fill="#72c424"/>
  </g>
  <path d="m145.37,13.05s-2.34,32.09,0,42.91c2.34,10.82,14.6,33.9,14.6,33.9l-25.24,13.7-19.29-34.26s-5.59-15.87,2.16-12.8c-2.34-14.78,1.44-25.96,6.13-20.73,0-15.15,5.05-20.19,8.83-14.96,3.79-10.82,15.15-21.46,12.8-7.75Z" fill="#dadade"/>
  <path d="m197.77,83s-.12-4.09-4.69-6.01c.12-7.93-6.73-19.47-22.12-14.3s-31.13,31.61-40.39,63.1c-20.07,11.06-40.63,12.38-36.9,24.28-6.85,3.61-6.37,11.66-1.92,15.51-4.33,3.37-.96,10.7,3.85,9.86-1.68,6.01,2.52,10.82,9.14,8.29-1.32,7.69,7.81,9.5,11.06,4.09-.12,7.21,9.14,6.85,11.9.6s11.18-41.47,17.07-47.36,26.92-6.37,33.78-26.56c6.85-20.19,1.92-28.37,5.53-31.37s13.7-.12,13.7-.12Z" fill="#f2f2f2"/>
  <path d="m147.35,99.23s-15.87-25.42-34.26-35.34-32.45-10.64-42.37-27.23S57.02-2.64,47.64,6.2c-9.38,8.83,0,33.9,0,33.9,0,0-8.29-5.23-6.49,5.95,1.8,11.18,13.34,17.31,13.34,17.31,0,0-11.18-3.07-8.65,6.85s14.78,11.9,14.78,11.9c0,0-10.82,3.43-5.77,11,5.05,7.57,17.67,6.13,17.67,6.13,0,0-8.47,5.05-.72,9.38s14.78,3.97,14.78,3.97c0,0-6.53,4.87,1.88,7.21,8.4,2.34,15.43,0,15.43,0,0,0-.54,5.05,14.6,4.69s25.42-6.31,25.42-6.31l3.43-18.93Z" fill="#f2f2f2"/>
  <path d="m186.24,82.1h0c4.42-1.13,11.54.91,11.54.91,0,0-.12-4.09-4.69-6.01,0,0-6.35.51-6.85,5.1Z" fill="#f6e655"/>
  <path d="m177.7,71.52s3.81-2.36,5.89-1.19,2.83,5.31,2.83,5.31c0,0-2.53,1.97-5.72.48s-3-4.59-3-4.59Z" fill="#cdcdd1"/>
  <circle cx="182.42" cy="73.28" r="2.83"/>
  <circle cx="183.35" cy="72.34" r="1" fill="#fff"/>
  <path d="m188.28,78.7s3.22-1.4,5.63-1.31c.83-.92-.13-1.79-.87-1.71s-3.18.29-4.76,3.02Z" fill="#cdcdd1"/>
  <g>
    <path d="m44.51,28.64c1.66,4.01,2.9,8.05,4.79,11.85,2.92,4.42,7.51,7.39,12,10.17,2.79,1.62,5.71,3.05,8.79,4.39-3.37-.12-6.7-.99-9.83-2.29-5.27-2.29-10.55-5.76-13.34-11.01-1.62-4.17-2.3-8.67-2.4-13.11h0Z" fill="#e0e0e6"/>
    <path d="m43.79,53.11c3.21,3.23,6.36,6.27,10.26,8.4,3.92,1.93,8.29,2.84,12.54,4.11,2.91.81,5.83,1.64,8.76,2.68-3.1.2-6.17,0-9.22-.39-4.62-.63-9.36-1.54-13.5-3.95-4-2.58-7.09-6.51-8.84-10.86h0Z" fill="#e0e0e6"/>
    <path d="m50,77.01c3.49,1.94,7,3.13,10.82,3.68,2.52.34,8.95.65,11.58.84,2.62.2,5.26.41,7.93.88-9.65,2.5-23.77,3.69-30.34-5.4h0Z" fill="#e0e0e6"/>
    <path d="m61.71,98.06c10.23,1.19,19.8-2.69,29.97-3.07-8.46,4.39-21.19,8.43-29.97,3.07h0Z" fill="#e0e0e6"/>
    <path d="m77.28,111.02c3.26.13,6.46.68,9.51.08,2.94-.87,5.9-2.39,8.85-3.52,2.06-.81,4.13-1.59,6.36-2.16-4.16,3.97-9.03,7.19-14.72,8.48-3.64.36-7.07-.95-10.01-2.87h0Z" fill="#e0e0e6"/>
    <path d="m95.67,120.82c1.87-.58,6.54-1.87,8.28-2.55,4.26-1.98,7.76-5.33,11.97-7.61-2.1,4.12-5.37,7.58-9.51,9.72-3.35,1.42-7.26,1.47-10.74.44h0Z" fill="#e0e0e6"/>
  </g>
  <g>
    <path d="m115.8,187.82c4.06-11.66,9.42-22.86,15.96-33.32-4.05,11.66-9.43,22.85-15.96,33.32h0Z" fill="#e0e0e6"/>
    <path d="m104.74,183.73c6.8-10.5,14.36-20.4,22.19-30.15-5.5,11.26-13.26,21.39-22.19,30.15h0Z" fill="#e0e0e6"/>
    <path d="m95.6,175.44c10.26-11.27,21.53-21.62,33.65-30.86-10.26,11.28-21.54,21.61-33.65,30.86h0Z" fill="#e0e0e6"/>
    <path d="m91.76,165.58c8.78-7.55,18.44-14.07,28.75-19.34-8.77,7.56-18.45,14.06-28.75,19.34h0Z" fill="#e0e0e6"/>
    <path d="m93.68,150.08c6.36-3.68,13.39-6.16,20.66-7.25-6.35,3.69-13.4,6.15-20.66,7.25h0Z" fill="#e0e0e6"/>
  </g>
</svg>