<?xml version="1.0" encoding="UTF-8"?>
<svg id="b" data-name="Warstwa 1" xmlns="http://www.w3.org/2000/svg" viewBox="0 0 259.51 197.39">
  <path d="m82.91,154.33h105.57v25.66h-105.57c-7.08,0-12.83-5.75-12.83-12.83h0c0-7.08,5.75-12.83,12.83-12.83Z" fill="#e0e0e0"/>
  <path d="m72.4,166.87h-4.74V31.55c0-8.35,6.77-15.12,15.12-15.12h105.55c1.95,0,3.53,1.58,3.53,3.53v133c0,1.95-1.58,3.53-3.53,3.53h-105.55c-5.72,0-10.38,4.66-10.38,10.38Z" fill="#1e2c37"/>
  <path d="m83.08,156.49h105.53c1.79,0,3.24-1.45,3.24-3.24v-1.5h-108.64c-8.13,0-15.14,6.24-15.54,14.36-.43,8.68,6.51,15.89,15.1,15.89h106.71c1.31,0,2.37-1.06,2.37-2.37h0c0-1.31-1.06-2.37-2.37-2.37h-106.71c-6.05,0-10.91-5.21-10.33-11.38.51-5.38,5.24-9.38,10.64-9.38Z" fill="#5f6973"/>
  <g>
    <rect x="129.14" y="52.25" width="4.9" height="67.17" fill="#edd800"/>
    <rect x="129.45" y="55.23" width="4.28" height="37.64" transform="translate(205.64 -57.54) rotate(90)" fill="#edd800"/>
  </g>
  <polygon points="87.03 158.81 87.03 171.93 106.16 158.81 87.03 158.81" fill="#ca1713"/>
</svg>