<?xml version="1.0" encoding="UTF-8"?>
<svg id="b" data-name="Warstwa 1" xmlns="http://www.w3.org/2000/svg" viewBox="0 0 259.51 197.39">
  <path d="m139.53,154.4V42.99c3.81-.18,6.84-3.32,6.84-7.17s-3.22-7.19-7.19-7.19c-.04,0-.07,0-.11,0,.38-1,.59-2.08.59-3.22,0-5.07-4.11-9.17-9.17-9.17s-9.17,4.11-9.17,9.17c0,1.13.22,2.21.59,3.22-.04,0-.07,0-.11,0-3.97,0-7.19,3.22-7.19,7.19s3.03,6.99,6.84,7.17v111.42c-3.81.18-6.84,3.32-6.84,7.17s3.22,7.19,7.19,7.19c.04,0,.07,0,.11,0-.38,1-.59,2.08-.59,3.22,0,5.07,4.11,9.17,9.17,9.17s9.17-4.11,9.17-9.17c0-1.13-.22-2.21-.59-3.22.04,0,.07,0,.11,0,3.97,0,7.19-3.22,7.19-7.19s-3.03-6.99-6.84-7.17Z" fill="#edd800"/>
  <path d="m180.25,66.98c-1.13,0-2.21.22-3.22.59,0-.04,0-.07,0-.11,0-3.97-3.22-7.19-7.19-7.19s-6.99,3.03-7.17,6.84h-64.38c-.18-3.81-3.32-6.84-7.17-6.84s-7.19,3.22-7.19,7.19c0,.04,0,.07,0,.11-1-.38-2.08-.59-3.22-.59-5.07,0-9.17,4.11-9.17,9.17s4.11,9.17,9.17,9.17c1.13,0,2.21-.22,3.22-.59,0,.04,0,.07,0,.11,0,3.97,3.22,7.19,7.19,7.19s6.99-3.03,7.17-6.84h64.38c.18,3.81,3.32,6.84,7.17,6.84s7.19-3.22,7.19-7.19c0-.04,0-.07,0-.11,1,.38,2.08.59,3.22.59,5.07,0,9.17-4.11,9.17-9.17s-4.11-9.17-9.17-9.17Z" fill="#edd800"/>
  <rect x="101.65" y="73.36" width="57.69" height="5.11" rx="2.56" ry="2.56" fill="#d6c300"/>
  <rect x="79.33" y="96.11" width="102.33" height="5.11" rx="2.56" ry="2.56" transform="translate(229.16 -31.83) rotate(90)" fill="#d6c300"/>
  <circle cx="170.3" cy="75.91" r="3.96" fill="#ca1713"/>
  <circle cx="91.22" cy="75.91" r="3.96" fill="#ca1713"/>
  <circle cx="130.5" cy="162.13" r="3.96" fill="#ca1713"/>
</svg>