<?xml version="1.0" encoding="UTF-8"?>
<svg id="b" data-name="Warstwa 1" xmlns="http://www.w3.org/2000/svg" viewBox="0 0 203.94 203.94">
  <polygon points="159.86 44.08 155.46 48.49 133.3 26.33 125.8 43.92 101.97 20.1 101.98 57.67 70.64 26.33 102.9 101.05 26.33 70.64 57.02 101.33 20.1 101.97 43.94 125.82 26.33 133.3 48.49 155.46 44.08 159.86 88.16 203.94 203.94 203.94 203.94 88.16 159.86 44.08" fill="#868696" opacity=".26"/>
  <polygon points="101.97 20.1 109.96 61.82 133.3 26.33 124.71 67.93 159.86 44.08 136.01 79.23 177.61 70.64 142.12 93.99 183.85 101.97 142.12 109.96 177.61 133.3 136.01 124.71 159.86 159.86 124.71 136.01 133.3 177.61 109.96 142.12 101.97 183.85 93.99 142.12 70.64 177.61 79.23 136.01 44.08 159.86 67.93 124.71 26.33 133.3 61.82 109.96 20.1 101.97 61.82 93.99 26.33 70.64 67.93 79.23 44.08 44.08 79.23 67.93 70.64 26.33 93.99 61.82 101.97 20.1" fill="#fff"/>
  <g>
    <path d="m51.86,83.61s5.75-16.58,19.46-16.58c13.7,0,25.55,24.7,25.55,24.7l13.03,23.69,34.35,33.16h-14.21s-35.19-8.46-54.31-25.89c-19.12-17.43-9.14-37.22-9.14-37.22l-14.72-1.86Z" fill="#e10032"/>
    <path d="m89.93,94.95s6.6-17.77,18.27-20.47c11.67-2.71,31.47,1.35,37.9-19.12,8.63,5.75,8.63,33.33-4.74,45.85s-38.07,20.64-38.07,20.64l-13.37-26.9Z" fill="#e10032"/>
  </g>
</svg>