<?xml version="1.0" encoding="UTF-8"?>
<svg id="b" data-name="Warstwa 1" xmlns="http://www.w3.org/2000/svg" viewBox="0 0 203.94 203.94">
  <polygon points="151.66 49.41 203.94 102.15 203.94 203.93 89.56 203.93 39.86 154.54 151.66 49.41" fill="#868696" opacity=".26"/>
  <g>
    <path d="m39.86,76.42v78.12s12.43-2.41,29.46-6.21c13.69-3.06,32.65,6.21,32.65,6.21v-78.12s-19.33-10.61-32.65-6.21c-13.83,4.56-29.46,6.21-29.46,6.21Z" fill="#a80022"/>
    <path d="m52.28,49.41v78.12s15.03,7.92,26.26,7.92,23.43,19.09,23.43,19.09v-78.12s-4.19-16.88-21.39-18.91c-11.15-1.31-28.29-8.1-28.29-8.1Z" fill="#e10032"/>
    <path d="m164.09,76.42v78.12s-12.43-2.41-29.46-6.21c-13.69-3.06-32.65,6.21-32.65,6.21v-78.12s19.33-10.61,32.65-6.21c13.83,4.56,29.46,6.21,29.46,6.21Z" fill="#e10032"/>
    <path d="m151.66,49.41v78.12s-13.17,7.58-28.02,8.82-21.66,18.19-21.66,18.19v-78.12s4.19-16.88,21.39-18.91c11.15-1.31,28.29-8.1,28.29-8.1Z" fill="#a80022"/>
  </g>
  <path d="m101.97,76.42s19.83,10.88,27.05,38.43c1.33-5.44,2.33-10.22,2.33-10.22l7.22,4.78s-2.75-20.44-32.77-41.11c-4.62,2.33-3.84,8.12-3.84,8.12Z" fill="#fff"/>
</svg>