<?xml version="1.0" encoding="UTF-8"?>
<svg id="b" data-name="Warstwa 1" xmlns="http://www.w3.org/2000/svg" viewBox="0 0 203.94 203.94">
  <polygon points="36.69 170.31 70.31 203.93 203.94 203.93 203.94 120.17 117.41 33.64 110.94 52.94 94.45 36.44 63.67 149.24 36.69 170.31" fill="#868696" opacity=".26"/>
  <path d="m91.62,83.19l-5.24,43.2-5.9-11.6,4.77-39.33h3.21c3.85,0,7.4,1.25,10.31,3.34v-32.93c0-6.75-5.47-12.22-12.22-12.22l-20.15,89.3c-1.3,5.74-3.73,11.16-7.17,15.94l-22.57,31.42h40.89l13.1-17.79c5.33-9.79,8.12-20.76,8.12-31.91v-29.1c-.62-3.93-3.44-7.13-7.15-8.31Z" fill="#e10032"/>
  <path d="m112.32,83.19l5.24,43.2,5.9-11.6-4.77-39.33h-3.21c-3.85,0-7.4,1.25-10.31,3.34v-32.93c0-6.75,5.47-12.22,12.22-12.22l20.15,89.3c1.3,5.74,3.73,11.16,7.17,15.94l22.57,31.42h-40.89l-13.1-17.79c-5.33-9.79-8.12-20.76-8.12-31.91v-29.1c.62-3.93,3.44-7.13,7.15-8.31Z" fill="#a80022"/>
</svg>