<?xml version="1.0" encoding="UTF-8"?>
<svg id="b" data-name="Warstwa 1" xmlns="http://www.w3.org/2000/svg" viewBox="0 0 203.94 203.94">
  <defs>
    <style>
      .c {
        fill: #fff;
      }

      .d {
        fill: #e2e2e6;
      }

      .e {
        fill: #e10032;
      }
    </style>
  </defs>
  <polygon class="d" points="138.73 61.04 203.91 126.22 203.91 203.93 136.51 203.93 83.42 150.84 138.73 61.04"/>
  <g>
    <path class="e" d="m54.14,94.13c-.04-.79-.06-1.59-.06-2.39,0-26.45,21.44-47.89,47.89-47.89s47.89,21.44,47.89,47.89c0,.8-.02,1.59-.06,2.39,0,.06,0,.12,0,.18-1.93,39.76-47.82,73.41-47.82,73.41,0,0-45.89-33.64-47.82-73.41,0-.06,0-.12,0-.18Z"/>
    <polygon class="c" points="121.55 85.91 106.97 85.91 106.97 71.17 96.97 71.17 96.97 85.91 82.4 85.91 82.4 95.91 96.97 95.91 96.97 126.18 106.97 126.18 106.97 95.91 121.55 95.91 121.55 85.91"/>
  </g>
</svg>